<svg xmlns="http://www.w3.org/2000/svg" viewBox="0 0 232 164"><defs><style>.cls-1{isolation:isolate;}.cls-2{fill:#ec8b2d;}.cls-3{fill:#f2af71;}.cls-4{fill:#e46d00;}.cls-5{fill:#6a3224;}.cls-6{fill:#8e5132;}.cls-7{fill:#561808;}.cls-8{fill:#fa0;}.cls-9{fill:#ffce6b;}.cls-10{fill:#ff8900;}.cls-11{fill:#c01711;}.cls-12{fill:#f4413d;}.cls-13{fill:#9cb219;}.cls-14{fill:#8a8e00;}.cls-15{fill:#b8c766;}.cls-16{fill:#e1ccb7;}.cls-17{opacity:0.5;mix-blend-mode:multiply;}.cls-18{fill:#f0e5da;}.cls-19{fill:none;}</style></defs><title>Recurso 8</title><g class="cls-1"><g id="Capa_2" data-name="Capa 2"><g id="Capa_1-2" data-name="Capa 1"><path class="cls-2" d="M187.24,106.15,42,108.86a74.9,74.9,0,0,0-1.94,13.61c-.11,2.34-.08,4.79,1.3,6.83,2,2.89,6.12,4.17,10,5.13,30.64,7.67,63.15,9.06,95.11,7.51,8.86-.43,17.85-1.11,26.1-3.83a27.77,27.77,0,0,0,10.58-5.81,19.5,19.5,0,0,0,4.75-7.64A25.16,25.16,0,0,0,187.24,106.15Z"/><path class="cls-3" d="M50.51,123.81c11.52,6.49,29.05,7.79,42.63,8.95a205.65,205.65,0,0,0,23.29.58c6.53-.2,14-.16,19.89-2.71.7-.31.44-1.1-.21-1.3-6.16-1.87-13.22-1.05-19.68-.92-7.35.15-14.69.16-22-.37s-14.92-1.48-22.28-2.62c-7-1.07-13.95-2.9-21.09-3.21a.85.85,0,0,0-.53,1.6Z"/><path class="cls-3" d="M140.67,131c4.65,1.47,10.47.51,15.29,0,4.46-.51,9.15-.85,12.74-3.23.74-.49.26-1.46-.53-1.66-4.64-1.16-9.91,0-14.64.47-4.45.4-9.2.24-13.27,1.86-1.46.59-.83,2.21.41,2.6Z"/><path class="cls-4" d="M188,108.21a30.67,30.67,0,0,1-1.19,6.71c-1.65,5.8-4.58,11.62-10.08,15.47-3.87,2.72-8.76,4.27-13.72,5.18a114.45,114.45,0,0,1-15.85,1.48A520.58,520.58,0,0,1,71,134.59c-10.75-1.14-22.06-2.87-30.71-8a7.57,7.57,0,0,0,1.1,2.71c2,2.89,6.12,4.17,10,5.13,30.64,7.67,63.15,9.06,95.11,7.51,8.86-.43,17.85-1.11,26.1-3.83a27.77,27.77,0,0,0,10.58-5.81,19.5,19.5,0,0,0,4.75-7.64A25,25,0,0,0,188,108.21Z"/><path class="cls-5" d="M197.34,102.12a2.47,2.47,0,0,0-.42-1.47,3.26,3.26,0,0,0-.84-.67l-6-3.88a26.8,26.8,0,0,0-4.94-2.71C182,92.2,178.48,92.06,175.05,92c-11.83-.12-23.64.72-35.47.59-28.16-.31-56.14-6.07-84.24-4.45-5.24.3-8.76,5.06-12.59,8-1.32-.88-3.37-.14-4.42,1s-1.6,2.5-2.76,3.52c-.7.61-1.61,1.08-2,1.85-.74,1.41.6,3,.42,4.53s-1.92,3.14-1,4.5c.55.78,1.81,1.09,2.26,1.91s-.09,1.75,0,2.64c.11,1.9,2.82,3,5.13,3s4.63-.65,6.9-.3a23,23,0,0,1,3.68,1.12,38.81,38.81,0,0,0,5.49,1.3,102.93,102.93,0,0,0,13.14,1.44c3.67.17,7.35.14,11,.11l69.62-.55c10.52-.08,21.05-.16,31.57.11a8,8,0,0,0,2.39-.18,23.39,23.39,0,0,0,3-1.67c1.73-.79,3.93-.57,5.72-1.29,2.63-1.07,3.51-3.78,3.91-6.19A47.43,47.43,0,0,0,197.34,102.12Z"/><path class="cls-6" d="M36.81,108.12c-2.16.62-3.27,3-1.77,4.54.86.88,2,.83,3.2.87a6.24,6.24,0,0,1,2.47.6,4.24,4.24,0,0,0,2,.69,1,1,0,0,0,1-1.12c-.27-1.55-3-2.17-4.6-2.24-.91,0-2.65.51-2.79-.63-.1-.8.64-1.63.79-2.4a.28.28,0,0,0-.37-.31Z"/><path class="cls-6" d="M43.72,110.76c.34.45,1,.71,1.45,1.12s.67,1,1.07,1.41,1.53.52,1.72-.18a2.38,2.38,0,0,0-1.2-2.44,3.2,3.2,0,0,0-2.83-.57.45.45,0,0,0-.21.66Z"/><path class="cls-6" d="M95.85,114.23c-1.38,2.29,1.83,3.38,4.1,2.59,1.6-.56,2.57-1,4.27-.42a9.68,9.68,0,0,0,2.27.64c1.78.15,3.87-.18,4.8-1.51a.62.62,0,0,0-.3-.94,4.68,4.68,0,0,0-2.44-.23c-2.09.21-3-.64-4.82-1a5.09,5.09,0,0,0-2.65.32c-.62.22-4.76,2.66-4.44.67.06-.34-.61-.47-.79-.17Z"/><path class="cls-6" d="M114.48,113.49c.85.4,4.68,1.35,4.9-.07s-3.81-1.22-4.74-1a.55.55,0,0,0-.16,1.06Z"/><path class="cls-6" d="M120.72,112.32c1.56.3,2.76-.08,4,1.1.79.79,1.2,1.62,2.46,2a8.94,8.94,0,0,0,6-1.13.6.6,0,0,0,.13-.82c-.6-.88-1.65-1-2.79-.81a13.3,13.3,0,0,1-1.73.36c-1.37,0-1.57-.87-2.38-1.48-1.51-1.13-4.86-1.68-6,0a.51.51,0,0,0,.38.77Z"/><path class="cls-6" d="M149.13,116.23c3.49-.63,6.06,2,9,3.08,2,.72,4.07,1.33,5.86,0,.73-.53.13-1.53-.77-1.53a14.38,14.38,0,0,1-5.05-1c-1.39-.5-2.41-1.37-3.74-1.93-1.75-.73-4.5-.8-5.9.45-.43.38,0,1,.61.86Z"/><path class="cls-6" d="M163.5,115.8c.52-.12-.15,0,.22,0a3.42,3.42,0,0,1,.45,0,4.23,4.23,0,0,1,.87.2c.66.22,1.17.62,1.84.84a1,1,0,0,0,1.34-.85c0-1-1.09-1.79-2.26-2a4.23,4.23,0,0,0-3.11.57c-.75.43-.32,1.51.65,1.27Z"/><path class="cls-6" d="M169.31,119.51a5.29,5.29,0,0,0,3,.51c1-.1,2.34-.25,2.83-1.1.33-.59,0-1.11-.66-1.34a5.15,5.15,0,0,0-2.54.22c-.83.13-1.64.2-2.45.41a.68.68,0,0,0-.21,1.3Z"/><path class="cls-6" d="M141,111.37a32,32,0,0,0,6.57.89c2.19.18,4.54.7,6.67.15a.64.64,0,0,0,.19-1.22c-1.85-1-4.21-.92-6.36-1a21.18,21.18,0,0,0-7.07.62.28.28,0,0,0,0,.55Z"/><path class="cls-7" d="M197.34,102.12a2.47,2.47,0,0,0-.42-1.47,3.26,3.26,0,0,0-.84-.67l-6-3.88a26.8,26.8,0,0,0-4.94-2.71C182,92.2,178.48,92.06,175.05,92c-11.83-.12-23.64.72-35.47.59-28.16-.31-56.14-6.07-84.24-4.45-5.24.3-8.76,5.06-12.59,8-1.32-.88-3.37-.14-4.42,1a8.15,8.15,0,0,0-.86,1.08,4.14,4.14,0,0,0,1.23,1.9c1.41,1.23,3.68,1.82,4.53,3.36.73,1.31.19,2.94,1,4.21a7.1,7.1,0,0,0,2.53,1.93,41.62,41.62,0,0,1,5.49,4l8.6,7c.53.44,1.07.88,1.58,1.35,2,.23,4,.39,6,.51a64,64,0,0,0,17.61-10.33,1.65,1.65,0,0,1,1-.5,2.52,2.52,0,0,1,1.18.5c1.71.94,3.94-.1,5.65-1a63.94,63.94,0,0,1,9.44-4.26,15,15,0,0,1,4.87-1.09,36.15,36.15,0,0,1,5.83.87c3.95.57,8-.26,12-.53a85.28,85.28,0,0,1,11.41.24l6.5.42c5.6.37,11.2.74,16.79,1.25,3.53.33,7.06.72,10.54,1.28q4.14.67,8.17,1.67c1.51.38,3.15.89,3.86,2,.55.89.42,2,1.06,2.85.79,1.06,2.45,1.36,3.85,1.83a9.7,9.7,0,0,1,3.19,1.81,7.86,7.86,0,0,0,1.53-.42c2.63-1.07,3.51-3.78,3.91-6.19A47.43,47.43,0,0,0,197.34,102.12Z"/><path class="cls-7" d="M148.86,120.69a15.06,15.06,0,0,0-2.21.17c-1.76,0-3-1.57-4.76-1.76-2-.21-3.76,1.45-5.78,1.29-1.33-.1-2.39-1-3.7-1.2-1.47-.25-2.95.36-4.44.43-3.56.18-6.82-2.62-10.27-1.88-1.48.32-2.7,1.27-4.22,1.44-1.74.19-3.44-.7-5.2-.6s-3.18,1.12-4.7,1.85-3.64,1.13-4.89.11a2.13,2.13,0,0,0-.67-.47c-.62-.2-1.2.3-1.65.7a8.25,8.25,0,0,1-4.15,1.87l58-.46h1.71a4.91,4.91,0,0,1-1-.42A6.67,6.67,0,0,0,148.86,120.69Z"/><path class="cls-8" d="M193.35,97.43c-9.88-7.94-24.48-10.26-38.24-10.88L55.94,88.06a35.54,35.54,0,0,0-16.69,4.23c-.91.5-1.89,1.22-1.75,2.11a2.32,2.32,0,0,0,.69,1.14c2,2.26,4.11,4.6,7.15,5.84a21.43,21.43,0,0,1,3.47,1.44,9.11,9.11,0,0,1,2.2,2.27,114.45,114.45,0,0,0,14.84,15.82c.2-2.21,2.71-3.73,5-4.89,7.34-3.73,15.06-7.12,23.44-8.75a119.33,119.33,0,0,1,15.62-1.65l24.91-1.52c8.05-.49,16.12-1,24.19-.71a125.76,125.76,0,0,1,14.66,1.34,40.49,40.49,0,0,1,11.53,3.1c3.5,1.7,6.48,4.38,7.39,7.66,1.18-2.35,2.37-4.69,3.55-7a10.15,10.15,0,0,0,1.45-4.49C197.56,101.43,195.55,99.2,193.35,97.43Z"/><path class="cls-9" d="M63.13,116.67a4.61,4.61,0,0,0,.22-2.07c-.4-1.59-2.9-2.55-2.83-4.17,0-.79.69-1.49.75-2.28.07-1.08-1-2-2.12-2.54a13.1,13.1,0,0,1-3.26-1.78A1.75,1.75,0,0,1,56,101c.7-.37,1.89-.47,1.89-1.16-3.21-1.18-6.93-.31-10.44-.39a1.87,1.87,0,0,1-.86-.17c-.94-.51,0-1.68.1-2.61C46.75,95,44,94.49,43,93.1a2.31,2.31,0,0,1,.06-2.58,30.63,30.63,0,0,0-3.8,1.77c-.91.5-1.89,1.22-1.75,2.11a2.32,2.32,0,0,0,.69,1.14c2,2.26,4.11,4.6,7.15,5.84a21.43,21.43,0,0,1,3.47,1.44,9.11,9.11,0,0,1,2.2,2.27,114.54,114.54,0,0,0,12,13.2A6.8,6.8,0,0,1,63.13,116.67Z"/><path class="cls-9" d="M188.78,94.34c-1.22-.2-2.43,0-3,.81-1,1.57,1.46,3.43.91,5.16a28,28,0,0,0-6.19-2,9.88,9.88,0,0,0-6.4.91c-.39.23-.79.58-.72,1s.58.64,1,.81a74.38,74.38,0,0,0,8.3,2.51c1,.23,2.18.83,1.81,1.6,1.65,1.5,5.12.13,6.94,1.49a3.4,3.4,0,0,1,1,3A29.74,29.74,0,0,1,192,114a8.56,8.56,0,0,1,.57,1.45c1.18-2.35,2.37-4.69,3.55-7a10.15,10.15,0,0,0,1.45-4.49c0-2.54-2-4.77-4.24-6.54A35.89,35.89,0,0,0,188.78,94.34Z"/><path class="cls-10" d="M105.9,101.68a1.61,1.61,0,0,1,1.51-2.12,5.16,5.16,0,0,1,1.2.41,5.07,5.07,0,0,0,2.23.07A75.47,75.47,0,0,1,118.48,99c1.59,0,3.18.14,4.78.11,3.82-.07,7.43-1.36,11.18-2,9.49-1.58,19.25,1.14,28.93.89a6.74,6.74,0,0,0,2.66-.45c.8-.38,1.4-1.15,1.17-1.89-.15-.48-.62-.87-.74-1.36-.29-1.26,1.77-2,3.32-1.89,2,.11,3.94.66,5.93.56,1.84-.09,3.82-1,4.15-2.5-7.73-2.51-16.39-3.52-24.75-3.9l-39.5.6a30,30,0,0,0-2.82,1.11c-1.53.71-3,1.55-4.49,2.25-6.24,2.82-13.7,3.06-20.79,2.62s-14.17-1.49-21.26-1c-1.16.08-2.65.5-2.6,1.47,0,.54.57,1,1.12,1.24C68.26,96.71,72.9,96,76.85,97c1.5.41,2.88,1.07,4.36,1.51,5.84,1.75,12.6,0,18.42,1.77.9.28,1.92.93,1.62,1.68a1.57,1.57,0,0,1-.63.65c-3.74,2.53-9.33,1.61-13.84,3a20.61,20.61,0,0,0-5.46,2.87,76,76,0,0,0-7.8,6.13,84.09,84.09,0,0,1,20.77-7.42,96.14,96.14,0,0,1,12.15-1.42,2.52,2.52,0,0,0,.51-1.43C106.94,103.46,106.18,102.62,105.9,101.68Z"/><path class="cls-11" d="M53.64,82.67a51.83,51.83,0,0,0-2.92,8.42,147,147,0,0,0,42.35,3.5c7-.44,14.21-1.36,20.92.36a3,3,0,0,0,1.65.11,2,2,0,0,0,1.08-1.13A17.63,17.63,0,0,0,118.3,83Z"/><path class="cls-11" d="M182.78,87.52c-.27-3-.65-6-1.16-9L128.8,82.15q-.66,5.8-1.33,11.61a2.31,2.31,0,0,0,.07,1.14,2.29,2.29,0,0,0,1.07,1c1.77.93,4,.91,6.1.85A372,372,0,0,0,177.6,93c1.59-.23,3.33-.54,4.33-1.59S182.9,88.87,182.78,87.52Z"/><path class="cls-12" d="M83.43,90.82c-3.54-.71-7.54,0-10.64-1.61A17.2,17.2,0,0,0,70.54,88c-1.68-.59-3.59-.14-5.29.39a2,2,0,0,0-.84.41c-.46.45-.2,1.13.11,1.66A20.72,20.72,0,0,0,67,93.9a148.35,148.35,0,0,0,23.85.79A15.78,15.78,0,0,0,83.43,90.82Z"/><path class="cls-12" d="M168.63,91.41c-.23-1.11-1.7-1.77-3.06-1.82a23.74,23.74,0,0,0-4,.49c-2.35.29-4.76-.07-7.13.14a18,18,0,0,0-8.37,3.17,31.52,31.52,0,0,0-3.74,3q12.8-.63,25.5-2.13c.2-.46.4-.92.58-1.39A2.86,2.86,0,0,0,168.63,91.41Z"/><path class="cls-13" d="M200.8,81.88a18.12,18.12,0,0,0-5-.53c-1.7-.1-3.57-.55-4.37-1.78l2.67-2.4a19.33,19.33,0,0,0-3.23-2.71,4.65,4.65,0,0,0,4.12-1.9c.42-.69.6-1.51,1.28-2,1.19-1,3.43-.56,4.45-1.63,1.23-1.29-.84-3.24-2.81-3.1s-3.49,1.44-4.9,2.59-3.2,2.31-5.15,2-3.41-1.68-5.16-1.25a9.28,9.28,0,0,0-2,1c-2.09,1.11-4.81.63-7.25.23-4.77-.8-9.62-1.19-14.47-1.57-35.2-2.78-75.81-2.72-110.42,3.25L42.91,76a21.12,21.12,0,0,0-9.63-4.4,2.6,2.6,0,0,0-1.59.06c-.94.46-.64,1.63-.18,2.45a28.72,28.72,0,0,0,5,6.5,10.72,10.72,0,0,0-5.36-.13c-1.69.56-2.85,2.43-1.75,3.63.78.85,2.25,1,3.54,1l7.06.29c.3,2.22-4.74,3.38-3.8,5.47.53,1.17,2.65,1.21,3.87.47S42,89.44,43,88.51s2.76-1.59,4-.89c.68.38,1,1.07,1.69,1.47C50.18,90,52.21,89,53.45,88S56,85.54,57.76,85.5a12.48,12.48,0,0,1,2.76.54c5.72,1.22,11.6-4.25,17-2.36a11,11,0,0,0-4.08,6.47l12.08-6.07c-1.87,1.74-.65,4.77,1.82,5.88s5.57.71,8.14-.23,4.86-2.36,7.4-3.34a3.12,3.12,0,0,1,2.13-.24c.89.35,1.06,1.31,1.56,2a3.53,3.53,0,0,0,3.86,1c1.41-.53,2.1-1.83,3.17-2.76s3.26-1.32,3.95-.17c-1.16.81-2.25,2-1.75,3.22.77,1.78,4.05,1.42,5.87.27s3.61-2.82,5.89-2.61c2.63.24,4.18,2.93,6.82,3.16,2.95.25,5.39-2.76,8.29-2.22,1.72.32,2.74,1.76,4.2,2.56,2.28,1.26,5.75.68,7.24-1.22.57-.72.93-1.63,1.84-2.06,1.77-.83,3.7.75,5,2A12.87,12.87,0,0,0,167.78,93c2.69.44,5.83-.45,7.05-2.48a10.35,10.35,0,0,0,3.5,1.65,3.62,3.62,0,0,0,3.58-1,3.53,3.53,0,0,1,.67-1,2,2,0,0,1,2.31.33c.6.51.94,1.2,1.54,1.72,1.8,1.56,5.29.75,6.6-1.11s.91-4.24-.07-6.23l9.77.35C203.56,84,202.36,82.43,200.8,81.88Z"/><path class="cls-14" d="M106,71.57A3.6,3.6,0,0,0,107.18,76c1.61,1.14,4,.94,6.07.51A35.14,35.14,0,0,0,126,71.05a1.73,1.73,0,0,1,.94-.4,1.81,1.81,0,0,1,1.18.66,8.32,8.32,0,0,0,6.47,2c1.35-.16,2.62-.63,3.95-.89A12.45,12.45,0,0,1,149,75.06a37.86,37.86,0,0,0-3.6,2.44c-.22.17-.44.37-.44.61s.36.49.67.62c3.14,1.3,7.4.27,9.19-2.23a14.19,14.19,0,0,1,1.64-2.38c1.76-1.63,4.91-1.38,7.45-.77s5.31,1.42,7.72.52a5.47,5.47,0,0,0,3.18-3.25l-1.3-.2c-4.77-.8-9.62-1.19-14.47-1.57-15.56-1.23-32.17-1.9-48.86-1.75-.27.21-.55.41-.81.62A10.37,10.37,0,0,0,106,71.57Z"/><path class="cls-15" d="M130.4,86.48c-1.38.36-3.27,1-3.94,0a1.23,1.23,0,0,1,0-1.19c.58-1.24,2.18-1.94,3.72-2.32a20.19,20.19,0,0,0,4.54-1.31c1.36-.72,2.31-2.21,1.58-3.4s-2.91-1.43-4.55-1c-3.29.74-5.81,2.85-8.57,4.49s-6.47,2.87-9.51,1.61c-1.43-.6-2.91-1.72-4.37-1.18A5.81,5.81,0,0,0,108,83a5.86,5.86,0,0,1-5.31.68c-1.27-.48-2.31-1.4-3.68-1.6a5.35,5.35,0,0,0-4.38,1.76,6.28,6.28,0,0,0-2,4.61,4.32,4.32,0,0,0,.57,1.93,14.76,14.76,0,0,0,2.41-.66c2.58-.93,4.86-2.36,7.4-3.34a3.12,3.12,0,0,1,2.13-.24c.89.35,1.06,1.31,1.56,2a3.53,3.53,0,0,0,3.86,1c1.41-.53,2.1-1.83,3.17-2.76s3.26-1.32,3.95-.17c-1.16.81-2.25,2-1.75,3.22.77,1.78,4.05,1.42,5.87.27s3.61-2.82,5.89-2.61c2.63.24,4.18,2.93,6.82,3.16a5.75,5.75,0,0,0,2.7-.53,3.64,3.64,0,0,0-.62-1.34A6,6,0,0,0,130.4,86.48Z"/><path class="cls-14" d="M83.89,83.29c.7-1.2,2.36-1.81,3.93-2.1a22.25,22.25,0,0,0,4.68-1,1.49,1.49,0,0,0,.89-.76c.14-.43-.2-.87-.6-1.18-2.36-1.8-6.2-.78-9.28-1.53-1.85-.45-3.41-1.56-5.3-1.89a11.39,11.39,0,0,0-5.78.87c-1.78.66-4.06,1.4-5.47.29-.54-.42-.81-1-1.36-1.47-1.17-.89-3-.52-4.51,0s-3.13,1.14-4.58.6A2.67,2.67,0,0,1,55,71.58a3.7,3.7,0,0,1,.31-.55c-2.26.33-4.51.69-6.73,1.07L42.91,76a20.85,20.85,0,0,0-8.36-4.13,2,2,0,0,0-.11.76A4.24,4.24,0,0,0,36,75.18a19.85,19.85,0,0,0,5.94,4c.5.21,1.06.46,1.23.9.55,1.39-3,2-2.66,3.44.15.55.91.86,1.59.83a4.94,4.94,0,0,0,1.88-.6l3.29-1.59a4,4,0,0,1,2-.55c2.08.14,2.85,3.09,4.91,2.83,1.26-.16,2-1.52,3.22-1.6a5.23,5.23,0,0,1,1.34.23,9.5,9.5,0,0,0,6.18-1.19,26.93,26.93,0,0,1,5.69-2.61A9.61,9.61,0,0,1,78.69,81a7.85,7.85,0,0,1-3.3,2.34,7.53,7.53,0,0,1,2.18.39,11,11,0,0,0-4.08,6.47L83.54,85.1A3.09,3.09,0,0,1,83.89,83.29Z"/><path class="cls-15" d="M164.2,89a3.39,3.39,0,0,1,2.7-1.77,28.9,28.9,0,0,1,3.61-.17,13.1,13.1,0,0,0,7.12-2.5,1.57,1.57,0,0,0,.68-.84c.13-.71-.87-1.22-1.74-1.32-2.08-.23-4.08.61-6.11,1.06s-4.62.34-5.68-1.16c-.42-.61-.56-1.4-1.27-1.78a3.34,3.34,0,0,0-1.73-.25c-2.22.08-4.85.38-5.82,2-.56,1-.5,2.32-1.66,2.8-1.32.54-2.66-.63-4-1.09a5.35,5.35,0,0,0-5,1.18,6.85,6.85,0,0,0-1.88,3c1.34.51,2.27,1.68,3.54,2.37,2.28,1.26,5.75.68,7.24-1.22.57-.72.93-1.63,1.84-2.06,1.77-.83,3.7.75,5,2A12.87,12.87,0,0,0,167.78,93a8.54,8.54,0,0,0,2.37,0,19.66,19.66,0,0,1-3.88-1C164.9,91.51,163.76,90.22,164.2,89Z"/><path class="cls-14" d="M200.8,81.88a18.12,18.12,0,0,0-5-.53c-1.7-.1-3.57-.55-4.37-1.78l2.67-2.4a19.33,19.33,0,0,0-3.23-2.71,4.65,4.65,0,0,0,4.12-1.9c.42-.69.6-1.51,1.28-2,1.19-1,3.43-.56,4.45-1.63,1.23-1.29-.84-3.24-2.81-3.1s-3.49,1.44-4.9,2.59a8.87,8.87,0,0,1-3.67,2c-.52,1.24-2.17,2-3.72,2.36s-3.49.67-4.73,1.68c-.94.77-1.31,2.21-.29,2.91s2.36.29,3.59.32a3.72,3.72,0,0,1,2.8,1.22,1.82,1.82,0,0,1-.2,2.52c-1.06.9-3.19.86-3.69,2s1.43,2.28,2.11,3.53.12,2.35-.32,3.55l0,0c.6.51.94,1.2,1.54,1.72,1.8,1.56,5.29.75,6.6-1.11s.91-4.24-.07-6.23l9.77.35C203.56,84,202.36,82.43,200.8,81.88Z"/><path class="cls-16" d="M184,70A41.93,41.93,0,0,0,180,60L49.35,62.18A16.09,16.09,0,0,0,40.6,72.83a2.81,2.81,0,0,0,.62,2.87c1.24,1,3.32.48,5-.08a74.51,74.51,0,0,1,26.91-3.89,7.28,7.28,0,0,1,2.77.48c1.7.79,2.17,2.59,2.84,4.11S81,79.46,82.86,79c1.51-.34,2.14-1.77,2.9-2.9S88.3,74,89.51,74.77c.92.61.75,1.84,1.5,2.59,1.31,1.32,4,.12,5-1.36.65-.9,1.44-2.06,2.7-1.94a6.2,6.2,0,0,1,1.27.38c1.83.57,3.82-.42,5.21-1.55s2.64-2.52,4.5-3c2.42-.65,5,.43,7.53.58,3.4.22,7.46-1.08,9.86.93,1.05.87,1.5,2.22,2.78,2.85,3.44,1.69,7.87-3.59,11.16-1.71,2.21,1.27,1.1,4.41,2.94,6s5,.69,6.84-.79,3.13-3.49,5.38-4.51a3.82,3.82,0,0,1,3.57,0c1.31.91,1.06,2.95,2.62,3.56s3-.76,4-1.9,2.71-2.37,4.07-1.56c.58.34.93,1,1.64,1.08a2.9,2.9,0,0,0,1.41-.45c1.61-.73,3.58-.27,5.39,0s4.06.17,5-1.15A3.39,3.39,0,0,0,184,70Z"/><path class="cls-4" d="M186.86,55.2C180.58,41,164.3,31,146.72,26.83s-36.34-3.12-54.35-.52a82,82,0,0,0-17.48,4A56.84,56.84,0,0,0,57,41.78C49.47,48.68,43,56.64,38.79,65.3c36.24,5.42,73.7-4.07,110.2,0,12.91,1.43,25.87,4.55,38.75,2.92C189.64,64.05,188.7,59.37,186.86,55.2Z"/><path class="cls-2" d="M82.8,54.74c-1.82-2-5.43-1.67-8.37-1.2l-12.24,2a8.65,8.65,0,0,1-3.08.11c-1-.22-1.93-.93-1.9-1.79s.69-1.33,1.34-1.83a90.8,90.8,0,0,1,11.93-8A32.6,32.6,0,0,1,77.34,41c4.32-1.25,9-1.1,13.52-1.66s9.32-2.13,11.36-5.51a11.25,11.25,0,0,0,1.33-4.39,15.22,15.22,0,0,0,0-4.47q-5.64.55-11.21,1.37a82,82,0,0,0-17.48,4A56.84,56.84,0,0,0,57,41.78C49.47,48.68,43,56.64,38.79,65.3c13.45,2,27.07,2,40.75,1.33a47,47,0,0,0,3.21-5.74C83.68,58.89,84.39,56.44,82.8,54.74Z"/><path class="cls-2" d="M186.86,55.2c-6-13.62-21.28-23.4-38-27.83a36.54,36.54,0,0,0-9.74,1.8c-2.64.89-5.51,2.65-5.15,5,.27,1.74,2.23,2.91,4,3.88q11.16,6,21.72,12.8c.84.54,1.74,1.15,2,2a5.83,5.83,0,0,1-.16,2.07c-.21,1.86,1,3.68,2.7,4.92a20.85,20.85,0,0,0,5.93,2.65c5.9,1.86,12.13,3.26,18.44,3.06A17.93,17.93,0,0,0,186.86,55.2Z"/><g class="cls-17"><path class="cls-4" d="M110.59,36.23c1.1-.4,2.32-.46,3.43-.81s.94-1.64-.28-1.69a7.26,7.26,0,0,0-4.1,1.49c-.74.5.21,1.28,1,1Z"/><path class="cls-4" d="M117.21,32.88A5.92,5.92,0,0,0,119,34.3c1.33.64,2.73-.86,1.64-1.76a6.73,6.73,0,0,0-2.09-1.05c-1.14-.41-2,.58-1.29,1.39Z"/><path class="cls-4" d="M109.46,30.18c.62.14,1.23.26,1.86.35l.81.12a4.84,4.84,0,0,0,1.32-.09,1.08,1.08,0,0,0,.33-2.06,4.26,4.26,0,0,0-1.24-.38l-.81-.07c-.64-.05-1.27-.08-1.91-.08-1.54,0-1.85,1.87-.36,2.21Z"/><path class="cls-4" d="M122.77,29.57a4,4,0,0,0,2.31,1.75c1.08.25,2.39-.65,2-1.61a3.87,3.87,0,0,0-2.24-1.8c-1.26-.51-2.83.56-2,1.66Z"/><path class="cls-4" d="M128.7,34.71c1.29.79,4.48.79,4.47-1.06,0-.8-.78-1.3-1.71-1.33-.73,0-1.35.23-2.05.21a1.42,1.42,0,0,0-1.36.86,1.14,1.14,0,0,0,.65,1.32Z"/><path class="cls-4" d="M134.24,30.4a5.42,5.42,0,0,0,3,0c1.14-.4.76-1.63,0-2.11a5.24,5.24,0,0,0-2.57-.44c-1.76,0-2.18,2.26-.42,2.57Z"/><path class="cls-4" d="M143,32.29a6.07,6.07,0,0,0,3,1.78c1.4.2,2.51-1.09,1.43-2a13.44,13.44,0,0,0-2.89-1.35c-1.2-.6-2.47.78-1.49,1.6Z"/><path class="cls-4" d="M147.78,30.05a5.46,5.46,0,0,0,2.55,1.64c1.52.37,2.47-1.21,1.48-2.11-.54-.49-1.31-.83-1.89-1.3a1.79,1.79,0,0,0-2.14,0,1.13,1.13,0,0,0,0,1.77Z"/><path class="cls-4" d="M135.72,39.61a18.21,18.21,0,0,0,4.5-.69c1.58-.58.69-2.54-.84-2.56a16.89,16.89,0,0,0-4.06.8,1.27,1.27,0,0,0-1.09,1.37,1.43,1.43,0,0,0,1.49,1.08Z"/><path class="cls-4" d="M95.92,30.74a5.25,5.25,0,0,1,1.29.77,4.65,4.65,0,0,0,1.71,1.13,1.52,1.52,0,0,0,2-1.23c.11-.94-.82-1.69-1.67-2.18a5.51,5.51,0,0,0-2.56-.68,1.16,1.16,0,0,0-.72,2.19Z"/><path class="cls-4" d="M90.5,36.06a5.57,5.57,0,0,0,5-.19c1.08-.72.2-2.36-1.14-2.28a16,16,0,0,1-2.76.34,1.53,1.53,0,0,0-1.66.67,1.06,1.06,0,0,0,.57,1.46Z"/><path class="cls-4" d="M86.68,31.82a32.19,32.19,0,0,0,3.25.47,1.53,1.53,0,0,0,1.57-1.14,1.36,1.36,0,0,0-1.14-1.44,8.58,8.58,0,0,0-3.31-.16c-.69.07-1.29.39-1.38,1a1.16,1.16,0,0,0,1,1.27Z"/><path class="cls-4" d="M102.43,28.19a6.21,6.21,0,0,0,2.74,1.36,1.63,1.63,0,0,0,1.81-.73,1.15,1.15,0,0,0-.63-1.58c-.87-.33-1.79-.53-2.69-.8-1.21-.37-2.11,1.06-1.23,1.75Z"/><path class="cls-4" d="M111.38,26.05A16.18,16.18,0,0,0,115,27.16a1.82,1.82,0,0,0,2-.81,1.26,1.26,0,0,0-.69-1.73,17.43,17.43,0,0,0-4.14-.79,1.18,1.18,0,0,0-.73,2.22Z"/><path class="cls-4" d="M123.19,24a4.21,4.21,0,0,0,.68,1.86,3,3,0,0,0,1.48,1.5c.82.29,2.09.14,2.27-.77.29-1.37-1-2.83-2.25-3.63-.86-.53-2.25.19-2.18,1Z"/><path class="cls-4" d="M135.84,23.84a7.73,7.73,0,0,0-2.5,1.84c-.92,1.09.94,2.7,2.27,1.88a7.41,7.41,0,0,0,1.23-1,6.25,6.25,0,0,0,.93-1.15c.69-1-.71-2.22-1.93-1.6Z"/><path class="cls-4" d="M94.69,25.94a13.33,13.33,0,0,0,4.34.84c1.73-.13,2.07-2,.41-2.49A13.61,13.61,0,0,0,95,24.18c-1.22.05-1.48,1.45-.29,1.76Z"/><path class="cls-4" d="M150.54,36.47c.54.1.93.29,1.49.43,1.24.33,2.68-1,1.81-1.95a3.17,3.17,0,0,0-3.65-.71,1.16,1.16,0,0,0,.35,2.23Z"/><path class="cls-4" d="M158.73,33.43c1.23.87,3.11,1.59,4.68.83a1.2,1.2,0,0,0,0-2.24,17.17,17.17,0,0,0-3.32-.53c-1.26-.23-2.5,1.14-1.36,1.94Z"/><path class="cls-4" d="M77.73,30.6a14.8,14.8,0,0,0,4.25.22c1.69-.3,1.44-2.23,0-2.63a8.14,8.14,0,0,0-4.55.53,1,1,0,0,0,.3,1.88Z"/><path class="cls-4" d="M75.36,35.88c1.39.12,3,.48,4.27-.15a1.24,1.24,0,0,0-.37-2.38c-1.25-.31-2.62.16-3.9.11a1.37,1.37,0,0,0-1.46,1.21c0,.71.67,1.13,1.46,1.21Z"/><path class="cls-4" d="M105.84,44.74a0,0,0,1,0,0-.09,0,0,0,1,0,0,.09Z"/><path class="cls-4" d="M105.94,43.93a4.56,4.56,0,0,0,1.61,1.12,2.14,2.14,0,0,0,2.47-.41c.46-.65,0-1.35-.7-1.72s-1.22-.42-1.76-.73a1.53,1.53,0,0,0-1.73.28,1,1,0,0,0,.11,1.46Z"/><path class="cls-4" d="M127.55,53.64a18,18,0,0,0,3.29-.11,1.25,1.25,0,0,0,0-2.49c-1.45-.32-2.63.23-3.92.68-1.12.4-.56,2,.63,1.92Z"/><path class="cls-4" d="M107.88,55c.69.25,1.36.52,2.07.71a1.54,1.54,0,0,0,1.29-.28l.08-.06-.48.23c.82-.19,1.09-.7.65-1.31l.14.45v-.08a1.07,1.07,0,0,0-.66-1c-.67-.27-1.38-.46-2.08-.67-1.38-.42-2.36,1.47-1,2Z"/><path class="cls-4" d="M170.16,48.85c1.16.82,2.29,2,3.93,2,1.12.06,2-1.15,1.34-1.93-1-1.12-2.67-1.32-4.14-1.71-1.07-.28-2,1-1.13,1.6Z"/></g><path class="cls-9" d="M110.59,35c1.1-.4,2.32-.46,3.43-.81s.94-1.64-.28-1.69a7.26,7.26,0,0,0-4.1,1.49c-.74.5.21,1.28,1,1Z"/><path class="cls-9" d="M117.21,31.62A5.92,5.92,0,0,0,119,33c1.33.64,2.73-.86,1.64-1.76a6.73,6.73,0,0,0-2.09-1.05c-1.14-.41-2,.58-1.29,1.39Z"/><path class="cls-9" d="M109.46,28.92c.62.14,1.23.26,1.86.35l.81.12a4.84,4.84,0,0,0,1.32-.09,1.08,1.08,0,0,0,.33-2.06,4.26,4.26,0,0,0-1.24-.38l-.81-.07c-.64-.05-1.27-.08-1.91-.08-1.54,0-1.85,1.87-.36,2.21Z"/><path class="cls-9" d="M122.77,28.31a4,4,0,0,0,2.31,1.75c1.08.25,2.39-.65,2-1.61a3.87,3.87,0,0,0-2.24-1.8c-1.26-.51-2.83.56-2,1.66Z"/><path class="cls-9" d="M128.7,33.45c1.29.79,4.48.79,4.47-1.06,0-.8-.78-1.3-1.71-1.33-.73,0-1.35.23-2.05.21a1.42,1.42,0,0,0-1.36.86,1.14,1.14,0,0,0,.65,1.32Z"/><path class="cls-9" d="M134.24,29.14a5.42,5.42,0,0,0,3,0c1.14-.4.76-1.63,0-2.11a5.24,5.24,0,0,0-2.57-.44c-1.76-.05-2.18,2.27-.42,2.57Z"/><path class="cls-9" d="M143,31a6.07,6.07,0,0,0,3,1.78c1.4.2,2.51-1.09,1.43-2a13.44,13.44,0,0,0-2.89-1.35c-1.2-.6-2.47.78-1.49,1.6Z"/><path class="cls-9" d="M147.78,28.79a5.46,5.46,0,0,0,2.55,1.64c1.52.37,2.47-1.21,1.48-2.11-.54-.49-1.31-.82-1.89-1.3a1.79,1.79,0,0,0-2.14,0,1.13,1.13,0,0,0,0,1.77Z"/><path class="cls-9" d="M135.72,38.35a18.21,18.21,0,0,0,4.5-.69c1.58-.58.69-2.54-.84-2.56a16.89,16.89,0,0,0-4.06.8,1.27,1.27,0,0,0-1.09,1.37,1.43,1.43,0,0,0,1.49,1.08Z"/><path class="cls-9" d="M95.92,29.49a4.94,4.94,0,0,1,1.29.76,4.65,4.65,0,0,0,1.71,1.13,1.52,1.52,0,0,0,2-1.23c.11-.94-.82-1.69-1.67-2.18a5.64,5.64,0,0,0-2.56-.68,1.17,1.17,0,0,0-.72,2.2Z"/><path class="cls-9" d="M90.5,34.8a5.57,5.57,0,0,0,5-.19c1.08-.72.2-2.36-1.14-2.28a16,16,0,0,1-2.76.34,1.53,1.53,0,0,0-1.66.67,1.06,1.06,0,0,0,.57,1.46Z"/><path class="cls-9" d="M86.68,30.56a32.19,32.19,0,0,0,3.25.47,1.52,1.52,0,0,0,1.57-1.14,1.36,1.36,0,0,0-1.14-1.44,8.58,8.58,0,0,0-3.31-.16c-.69.07-1.29.39-1.38,1a1.16,1.16,0,0,0,1,1.27Z"/><path class="cls-9" d="M102.43,26.93a6.21,6.21,0,0,0,2.74,1.36,1.63,1.63,0,0,0,1.81-.73,1.15,1.15,0,0,0-.63-1.58c-.87-.33-1.79-.53-2.69-.8-1.21-.37-2.11,1.06-1.23,1.75Z"/><path class="cls-9" d="M111.38,24.79A16.18,16.18,0,0,0,115,25.9a1.82,1.82,0,0,0,2-.81,1.26,1.26,0,0,0-.69-1.73,17.94,17.94,0,0,0-4.14-.79c-1.41-.14-2,1.73-.73,2.22Z"/><path class="cls-9" d="M123.19,22.72a4.16,4.16,0,0,0,.68,1.86,3,3,0,0,0,1.48,1.5c.82.29,2.09.14,2.27-.76.29-1.38-1-2.84-2.25-3.63-.86-.54-2.25.18-2.18,1Z"/><path class="cls-9" d="M135.84,22.58a7.88,7.88,0,0,0-2.5,1.84c-.92,1.09.94,2.7,2.27,1.88a7.41,7.41,0,0,0,1.23-1,6.25,6.25,0,0,0,.93-1.15c.69-1-.71-2.22-1.93-1.6Z"/><path class="cls-9" d="M94.69,24.68a13.33,13.33,0,0,0,4.34.84c1.73-.13,2.07-2,.41-2.49A13.61,13.61,0,0,0,95,22.92c-1.22,0-1.48,1.45-.29,1.76Z"/><path class="cls-9" d="M150.54,35.21c.54.1.93.29,1.49.43,1.24.33,2.68-1,1.81-2a3.17,3.17,0,0,0-3.65-.71,1.16,1.16,0,0,0,.35,2.23Z"/><path class="cls-9" d="M158.73,32.17c1.23.87,3.11,1.59,4.68.83a1.2,1.2,0,0,0,0-2.24,16.43,16.43,0,0,0-3.32-.52c-1.26-.24-2.5,1.13-1.36,1.93Z"/><path class="cls-9" d="M77.73,29.34a14.8,14.8,0,0,0,4.25.22c1.69-.3,1.44-2.23,0-2.63a8.14,8.14,0,0,0-4.55.53,1,1,0,0,0,.3,1.88Z"/><path class="cls-9" d="M75.36,34.62c1.39.12,3,.48,4.27-.15a1.24,1.24,0,0,0-.37-2.38c-1.25-.31-2.62.16-3.9.11a1.37,1.37,0,0,0-1.46,1.21c0,.71.67,1.13,1.46,1.21Z"/><path class="cls-9" d="M105.84,43.48a0,0,0,1,0,0-.09,0,0,0,0,0,0,.09Z"/><path class="cls-9" d="M105.94,42.67a4.56,4.56,0,0,0,1.61,1.12,2.14,2.14,0,0,0,2.47-.41c.46-.65,0-1.35-.7-1.72s-1.22-.42-1.76-.73a1.53,1.53,0,0,0-1.73.28,1,1,0,0,0,.11,1.46Z"/><path class="cls-9" d="M127.55,52.38a18,18,0,0,0,3.29-.11,1.25,1.25,0,0,0,0-2.49c-1.45-.32-2.63.23-3.92.69-1.12.39-.56,2,.63,1.91Z"/><path class="cls-9" d="M107.88,53.72c.69.25,1.36.52,2.07.71a1.54,1.54,0,0,0,1.29-.28l.08-.06-.48.23c.82-.19,1.09-.7.65-1.31.05.15.09.3.14.45v-.08a1.07,1.07,0,0,0-.66-1c-.67-.27-1.38-.46-2.08-.67-1.38-.42-2.36,1.47-1,2Z"/><path class="cls-9" d="M170.16,47.59c1.16.82,2.29,2,3.93,2,1.12.06,2-1.15,1.34-1.93-1-1.12-2.67-1.32-4.14-1.71-1.07-.28-2,1-1.13,1.6Z"/><path class="cls-18" d="M46.16,68.47c-3.88.6-3.46,4.13.22,4.91,2.48.52,5.1-.43,7.44-1,3-.77,6.47-.91,9.08-2.3,1-.51.71-1.58-.3-1.89-2.44-.76-5.07-.22-7.53.3-1.36.28-2.66.67-4,1-.66.19-5.93,1.83-4.55-.64.12-.22-.08-.44-.37-.39Z"/><path class="cls-18" d="M75.86,70.56c3.47.45,2.53,3.08,5.19,4.42,2.49,1.26,4.73.35,7-.6,1.54-.65,2-1,4-.76a10.06,10.06,0,0,0,3.55.26c2.12-.4,3.69-1.51,3.3-3.33-.09-.42-.65-.56-1.08-.51-2.58.3-2.3,1-5.53.23a8.35,8.35,0,0,0-2.17-.49,6.36,6.36,0,0,0-2.07.63C86,71.5,86.3,72.68,83.58,71.72c-2.18-.78-1.35-.93-2.54-2a3.75,3.75,0,0,0-1.47-.8c-1.59-.4-2.71.31-3.9,1.07-.25.16-.11.57.19.61Z"/><path class="cls-18" d="M114,68.76c4.13-.76,7.88-1.93,12-.64,2.71.85,3.57,2.61,6,3.55a8.54,8.54,0,0,0,3.45.36c2.6-.21,3.4-1.09,6.3-.61s2.21.24,4.06,1.3c.81.47,2.13-.15,2.05-1-.75-7.57-11.1-2.4-15.64-4.27-2.67-1.09-3.68-2.61-7-3-4.4-.46-8.3,1.1-11.85,3.07-.73.4-.28,1.34.6,1.17Z"/><path class="cls-18" d="M145.52,75.39c.67,3.79,9.42-1.84,10.23-3.36a.46.46,0,0,0-.47-.68c-1.77.11-3.13,1.14-4.53,2-.71.41-1.39.89-2.13,1.25a7.31,7.31,0,0,1-2.81.51c-.22,0-.33.15-.29.32Z"/><path class="cls-18" d="M159.1,70.88c2.87,0,1.37,1,3.08,2.19a4.22,4.22,0,0,0,3.44.57c2.25-.57,2.36-1.78,5.42-1.46,1.76.18,2.66.74,4.23,0a.5.5,0,0,0,.23-.75c-1.58-1.85-6.38-2.43-8.74-1.31-1.45.7-1.66.88-3.26-.08-.42-.24-.44-.62-1-.84-1.26-.46-2.62.25-3.64.82-.46.25-.3.87.28.87Z"/><rect class="cls-19" width="232" height="164"/></g></g></g></svg>