<svg xmlns="http://www.w3.org/2000/svg" viewBox="0 0 232 164"><defs><style>.cls-1{isolation:isolate;}.cls-2{fill:#ffdbae;}.cls-3{fill:#d68630;}.cls-4{fill:#fdc071;}.cls-5{fill:#e64e00;}.cls-6{fill:#ef7652;}.cls-7{fill:#c93100;}.cls-8,.cls-9{fill:#f39d00;}.cls-14,.cls-8{mix-blend-mode:multiply;}.cls-10{fill:#c17100;}.cls-11{fill:#ffbd4d;}.cls-12{fill:#ec8b2d;}.cls-13{fill:#e46d00;}.cls-14{opacity:0.5;}.cls-15{fill:none;}</style></defs><title>Recurso 9</title><g class="cls-1"><g id="Capa_2" data-name="Capa 2"><g id="Capa_1-2" data-name="Capa 1"><path class="cls-2" d="M163.28,32.15c-4-3-8.05-6-12.82-8.12s-10.41-3.2-15.65-2.09c-5.76,1.21-10.22,4.84-14.52,8.21C99.71,46.29,76.21,59.68,53.2,73.44,42.77,79.68,31.63,87,29.4,97.46c-1.35,6.31.88,12.79,4.19,18.59,2.72,4.75,6.43,9.42,12.09,11.84a31.4,31.4,0,0,0,12.85,2c11.65-.25,22.68-4.1,33.38-7.89,8.23-2.91,16.55-5.87,23.7-10.31,5.55-3.44,10.26-7.69,14.93-11.92,12.68-11.45,25.52-23.09,34.05-36.9C169.34,55.22,172.67,42.7,163.28,32.15Z"/><path class="cls-3" d="M157.2,27.78c-.36,0-.71-.09-1.06-.11-5.6-.24-11.27,2-14.55,5.71-1.79,2-3,4.55-5.6,5.88s-5.85,1.28-7.67,3.11c-1.26,1.27-1.41,3.09-2.62,4.38-1.66,1.76-4.76,2-7,3.36-3.66,2.2-4.33,7-8.41,8.59-2,.8-4.55.64-6.34,1.75-2.32,1.44-2.41,4.36-4.35,6.14-2.24,2.07-6.35,2.13-8.62,4.16-1,.93-1.57,2.18-2.65,3.07-2,1.66-5.24,1.62-7.94,2.36-6.37,1.74-10,7.94-16.54,9.13-2.71.5-5.65,0-8.21.93-2.74,1-4.45,3.2-6.89,4.59C45,93,39.2,93.42,37.72,97c-1.18,2.81,1.26,5.65,2.93,8.28,4.58,7.21,3.88,16.13,7.61,23.54a35.18,35.18,0,0,0,10.27,1.14c11.65-.25,22.68-4.1,33.38-7.89,8.23-2.91,16.55-5.87,23.7-10.31,5.55-3.44,10.26-7.69,14.93-11.92,12.68-11.45,25.52-23.09,34.05-36.9,4.75-7.69,8.08-20.21-1.31-30.76C161.29,30.66,159.29,29.16,157.2,27.78Z"/><path class="cls-4" d="M100.23,51.09c-3.71-1.82-7.1-.29-9.94,2-2.25,1.83-4,3.56-7,4.69-2.51,1-5.19,1.58-7.6,2.7-4.94,2.3-8.17,6.15-13.41,8.14-3.84,1.47-8.39,2.64-8.76,6.55-.06.64.7,1.17,1.43,1.18,8.39.09,15.44-5.23,21.21-9.46C80,64.13,85,63.44,89.07,61s5.49-7,10.83-7.81a1.08,1.08,0,0,0,.33-2.08Z"/><path class="cls-4" d="M115.56,38.08c-2,1-4.21,2.1-6.13,3.29-1.51,1-4.27,2.48-4.16,4.22a.8.8,0,0,0,.85.69c2.26.06,4.2-2.46,5.93-3.49s4.2-1.73,5.07-3.43a1.06,1.06,0,0,0-1.56-1.28Z"/><path class="cls-4" d="M105.18,47.47a2.72,2.72,0,0,0-.87.65c-.26.35.17.68.6.63a2.75,2.75,0,0,0,.93-.35c.74-.36,0-1.34-.66-.93Z"/><path class="cls-4" d="M148.88,26.32c-4.31-1.61-9.35-.05-12.89,2.27-1.93,1.27-3.17,2.92-4.79,4.42-2.1,2-5.11,3.15-6.67,5.41-.43.62.28,1.32,1.09,1.16,3.89-.74,7-3.9,9.44-6.34,3.95-4,8.43-4.59,13.82-6.48a.24.24,0,0,0,0-.44Z"/><path class="cls-4" d="M111.41,49.05c-4.65,1.46-6.87,5.19-10.15,8.06C96.81,61,90.92,63.78,85.39,66.52a99.88,99.88,0,0,0-13,7.3c-3,2.06-5.63,4.39-9.1,5.92-2.75,1.2-5.82,1.79-8.57,3-.84.36-.45,1.46.48,1.45a26.18,26.18,0,0,0,13.36-4.08c5.7-3.5,10.74-7.36,16.86-10.46C90.09,67.27,95,65,99.1,61.93c4.83-3.59,8.4-8.19,12.92-12,.4-.34,0-1.06-.61-.86Z"/><path class="cls-4" d="M36.94,112.45c-.66-1.24-1.87-2.2-2.39-3.46-.82-2,.36-4.67.28-6.76s-1.07-4.46-.81-6.66c.34-2.85,2.68-4.23,4.19-6.5,1.34-2,1.85-3.9.54-5.65-4.62,4-8.19,8.62-9.35,14-1.35,6.31.88,12.79,4.19,18.59a33.56,33.56,0,0,0,5.62,7.44C40.45,120,38.65,115.66,36.94,112.45Z"/><path class="cls-5" d="M180.35,27.32c-1.62-2.64-5.1-4.42-8.69-4.46a18.69,18.69,0,0,0-7.39,1.76c-8.88,3.75-15.73,10-22.86,15.75C119.72,57.84,94,71.47,68,84.49,61.65,87.7,55.07,91,50.73,96s-5.87,12.2-1.58,17.23a7.35,7.35,0,0,0,2.41,2c1.92.93,4.32.85,6.54.62A61.25,61.25,0,0,0,71.21,113c6.68-2.24,12.71-5.6,18.67-9,29.93-16.8,58.35-30.25,89.69-68.32A7.07,7.07,0,0,0,180.35,27.32Z"/><path class="cls-6" d="M151.15,37.83c-12.94,12.07-29.29,21.31-46,29.72S71.22,83.66,55.53,93.29c-1.5.92-3.07,2.73-1.68,3.76a11,11,0,0,1,5.33-2.82c1.47-.19,3,.13,4.45-.1a11.32,11.32,0,0,0,4.68-2.35,67.94,67.94,0,0,1,18.11-8.92c4.67-1.51,9.55-2.57,14.1-4.3,7.22-2.73,13.36-7,19.4-11.29,15.48-10.91,31-21.84,44.88-34.13,2.06-1.82,4.19-4.54,2.44-6.58-1-1.14-2.63-1.41-4.39-1.31a54,54,0,0,0-5.9,3.23,7.16,7.16,0,0,1-.3,2C155.78,33.27,153.49,35.64,151.15,37.83Z"/><path class="cls-7" d="M173.4,23.72c.35,2.14,3.31,3.36,4.12,5.41s-.6,4-2.45,5.27-4.15,2.05-6.2,3.13a17.29,17.29,0,0,0-6.3,5.55,30.37,30.37,0,0,1-3,4.53c-2.08,2.2-5.36,3.33-8.28,4.74-5.68,2.74-10.26,6.74-15,10.48-6.63,5.19-13.74,9.94-20.85,14.68-4.53,3-9.25,6.14-14.9,7.39-2.84.63-5.8.75-8.71,1.13-13.11,1.72-25,9-30.71,18.81A3.48,3.48,0,0,1,59.65,102l-3.45,3.18-.09-4.8A10.81,10.81,0,0,0,51.28,105c-.63-1.36-1.26-2.71-1.88-4.06a14.71,14.71,0,0,0-2.54,2.77,11,11,0,0,0,2.29,9.55,7.35,7.35,0,0,0,2.41,2c1.92.93,4.32.85,6.54.62A61.25,61.25,0,0,0,71.21,113c6.68-2.24,12.71-5.6,18.67-9,29.93-16.8,58.35-30.25,89.69-68.32a7.07,7.07,0,0,0,.78-8.39,10.13,10.13,0,0,0-7-4.29A2.28,2.28,0,0,0,173.4,23.72Z"/><path class="cls-8" d="M163.22,25.69c-.87,0-1.47,1.16-.5,1.49.82.29,1.72.53,2.5.88l.36.14a3.16,3.16,0,0,0-.58.12c-1.93.57-4.54.66-6.19,1.75-2.85,1.88-1,5.08,1.34,6.92-.65,0-1.31-.13-1.94-.19-2-.18-3.89-.48-5.84-.61a22.15,22.15,0,0,0-9.5,1c-4.49,1.79-4.9,5.1-.7,7.31,1.34.71,2.91,1.13,4.29,1.78,2.89,1.38,3.2,1.62-.26,1.87s-7.23.08-10.83,0c-3-.08-9.64-1.11-11.72,1.56-2.36,3,3,5.57,5.67,6.59l2,.75c-1.82-.16-3.62-.42-5.43-.61-3.83-.39-10.59-.94-11.74,3.26-1.29,4.69,5.66,5.47,8.63,7.69,1.39,1-.87.4-2.17.25-1.49-.17-3-.48-4.43-.73a79.73,79.73,0,0,0-9.52-1.26c-3.17-.15-10.31,0-9,4.21.56,1.74,3.06,2.7,4.71,3.53.69.34,5.93,2.4,5.93,2.89,0,2.38-6.33.72-7.56.49-5.64-1.1-12.13-2-17.89-1.11-2.64.42-6.61,1.66-5.73,4.45.74,2.38,5.16,3.5,7.5,4.36s4.44,1.7,6.64,2.59l.64.24c-.21,0-.45-.11-.75-.16-1.91-.33-3.84-.51-5.76-.89-6-1.18-12.9-3.17-19-1.5-5.93,1.62-7,5.84-4.66,10.2a21.56,21.56,0,0,0,16.46,11.1c1.59.21,2.8-1.54,1.17-2.28a38.1,38.1,0,0,1-9.52-5.71c-3.68-3.28-5.94-10,2-10,6.43,0,12.39,2.71,18.77,3,2.62.1,6.21-.39,6.76-3s-3-4.17-5.41-5.16c-1.93-.82-4-1.46-5.92-2.2-.9-.34-1.78-.75-2.69-1l-.21-.07c7.88-1.47,15.26,1.65,22.94,2.14,3.88.24,9.43-1,8.49-5.1-.4-1.74-2.13-2.83-3.85-3.78-1.9-1.06-4-1.87-5.92-2.9-3.81-2,.48-.47,2.61-.3,5.4.41,11.58,2.88,17,2.1,3.4-.48,6.08-3.07,4.06-5.81-1.5-2-14.27-6.18-5.17-5.73,4.53.23,12.78,2.81,16.64-.32,2.62-2.12.92-4.22-1.84-5.36a46,46,0,0,0-7.5-2.24c1.11,0,2.3-.14,3.15-.12,5.26.13,13,1.24,17.92-.77,4.37-1.8,2.17-5.58-.85-7.55a27,27,0,0,0-4.1-1.92c-4.62-2,.71-1.89,3.67-1.92,4.42-.06,9.2,1.61,13.59.89,4.15-.67,4.51-3.53,1.46-5.81-.41-.3-4.55-2.16-4.44-2.47.21-.57,4.21-1.21,4.91-1.42,1.33-.4,3.44-.82,4.09-2C172,25.73,165.62,25.56,163.22,25.69Z"/><path class="cls-9" d="M163.22,24.41c-.87,0-1.47,1.16-.5,1.5a26.4,26.4,0,0,1,2.5.88l.36.14A2.42,2.42,0,0,0,165,27c-1.93.57-4.54.66-6.19,1.76-2.85,1.88-1,5.07,1.34,6.91-.65,0-1.31-.13-1.94-.19-2-.17-3.89-.48-5.84-.61a22,22,0,0,0-9.5,1c-4.49,1.78-4.9,5.09-.7,7.3,1.34.71,2.91,1.13,4.29,1.79,2.89,1.37,3.2,1.61-.26,1.86s-7.23.09-10.83,0c-3-.09-9.64-1.11-11.72,1.55-2.36,3,3,5.57,5.67,6.59.35.14,1.11.44,2,.75-1.82-.15-3.62-.42-5.43-.6-3.83-.4-10.59-.94-11.74,3.25-1.29,4.69,5.66,5.47,8.63,7.69,1.39,1-.87.4-2.17.25-1.49-.17-3-.48-4.43-.73a79.73,79.73,0,0,0-9.52-1.26c-3.17-.15-10.31,0-9,4.21.56,1.74,3.06,2.7,4.71,3.53.69.35,5.93,2.41,5.93,2.9,0,2.37-6.33.72-7.56.48-5.64-1.09-12.13-2-17.89-1.11-2.64.42-6.61,1.66-5.73,4.45.74,2.38,5.16,3.5,7.5,4.36s4.44,1.71,6.64,2.59l.64.24-.75-.16c-1.91-.32-3.84-.5-5.76-.88-6-1.19-12.9-3.18-19-1.51-5.93,1.62-7,5.84-4.66,10.2a21.54,21.54,0,0,0,16.46,11.11c1.59.2,2.8-1.55,1.17-2.29a38.07,38.07,0,0,1-9.52-5.7c-3.68-3.29-5.94-10,2-10,6.43,0,12.39,2.72,18.77,3,2.62.1,6.21-.39,6.76-3s-3-4.17-5.41-5.16c-1.93-.81-4-1.46-5.92-2.2-.9-.34-1.78-.74-2.69-1l-.21-.07C91,76.87,98.42,80,106.1,80.47c3.88.25,9.43-1,8.49-5.1-.4-1.73-2.13-2.83-3.85-3.78-1.9-1-4-1.86-5.92-2.9-3.81-2,.48-.46,2.61-.3,5.4.41,11.58,2.88,17,2.1,3.4-.48,6.08-3.07,4.06-5.81-1.5-2-14.27-6.18-5.17-5.72,4.53.22,12.78,2.81,16.64-.32,2.62-2.12.92-4.23-1.84-5.37a46,46,0,0,0-7.5-2.24c1.11,0,2.3-.14,3.15-.12,5.26.13,13,1.25,17.92-.77,4.37-1.79,2.17-5.57-.85-7.54a26,26,0,0,0-4.1-1.92c-4.62-2,.71-1.89,3.67-1.93,4.42-.06,9.2,1.61,13.59.9,4.15-.68,4.51-3.53,1.46-5.81-.41-.31-4.55-2.17-4.44-2.47.21-.57,4.21-1.21,4.91-1.42,1.33-.4,3.44-.83,4.09-2C172,24.45,165.62,24.29,163.22,24.41Z"/><path class="cls-10" d="M120.34,68.74a29.92,29.92,0,0,1-3.28-.37c-1-.17-2-.44-2.93-.65-1.7-.37-3.45-.58-5.19-.78a40.21,40.21,0,0,0-5.26-.39c-.39,0-1.2.37-1.13.69a.6.6,0,0,0,.27.3,3.87,3.87,0,0,0,.64.34c-.9-.69,2.24.38,4,.51,5.4.41,11.58,2.88,17,2.1a6.28,6.28,0,0,0,4.12-2.15C126,69.15,123.11,69,120.34,68.74Z"/><path class="cls-10" d="M102.74,77.7c-3.45-.28-6.94-.17-10.38-.48-2-.19-4.07-.53-6.13-.62a8.92,8.92,0,0,0-4.84,1.09,21,21,0,0,0,2.06.74l-.08,0-.21-.07C91,76.87,98.42,80,106.1,80.47c3,.19,7.07-.54,8.25-2.81a31,31,0,0,1-4.9.55C107.2,78.24,105,77.88,102.74,77.7Z"/><path class="cls-10" d="M91.77,87.27c-6.17-.19-12.27-1.13-18.43-1.51a9.18,9.18,0,0,0-4.54.53,3.78,3.78,0,0,0-2.09,2.91c.54-1.41,2.08-2.4,5.15-2.39,6.43,0,12.39,2.72,18.77,3,2.62.1,6.21-.39,6.76-3a2.06,2.06,0,0,0,0-.26,6.11,6.11,0,0,1-1,.37A15.78,15.78,0,0,1,91.77,87.27Z"/><path class="cls-10" d="M73.73,101.83a19.14,19.14,0,0,1-3.11-1.22A19.57,19.57,0,0,1,63.12,95,16.61,16.61,0,0,1,60.6,89.2a8.46,8.46,0,0,0,1.11,4.47,21.54,21.54,0,0,0,16.46,11.11c1.33.17,2.37-1,1.73-1.85-1.07-.13-2.14-.31-3.19-.48A26.22,26.22,0,0,1,73.73,101.83Z"/><path class="cls-10" d="M147.92,49.22a16.58,16.58,0,0,1-2.53.47,21.18,21.18,0,0,1-3.56-.08c-4.64-.35-9.78-.3-14.17,1q1.77.28,3.42.51l-.42-.09c1.11,0,2.3-.14,3.15-.12,5.26.13,13,1.25,17.92-.77,1.79-.73,2.47-1.8,2.45-2.94a12.23,12.23,0,0,1-2.08.84C150.73,48.49,149.33,48.88,147.92,49.22Z"/><path class="cls-10" d="M169.44,26.93a9.42,9.42,0,0,1-1.94.85c-2.39.84-5.11,2-7.5,2.84a.39.39,0,0,0,0,.76l1.54.41c-.33-.2-.54-.35-.52-.42.21-.57,4.21-1.21,4.91-1.42,1.33-.4,3.44-.83,4.09-2a2,2,0,0,0,.22-1.76A3.2,3.2,0,0,1,169.44,26.93Z"/><path class="cls-10" d="M166,37a17.08,17.08,0,0,1-5.11.37l-6.66-.17a35.64,35.64,0,0,0-4.85.1,11.13,11.13,0,0,0-4.51,1.39,1.07,1.07,0,0,0-.44.43.63.63,0,0,0,.32.71,2.55,2.55,0,0,0,.89.32h.06c-2.41-1.42,2.13-1.35,4.78-1.38,4.42-.06,9.2,1.61,13.59.9,2.8-.46,3.87-1.91,3.34-3.5,0,0,0,0,0,.05A2.61,2.61,0,0,1,166,37Z"/><path class="cls-10" d="M136.84,58.3c-5-.24-9.93-1.11-14.92-1a4.07,4.07,0,0,0-2.55.66.83.83,0,0,0-.33.56,1,1,0,0,0,.32.62,4.08,4.08,0,0,0,1.12.78c-.82-.71-.37-1.13,2.88-1,4.53.22,12.78,2.81,16.64-.32a4.57,4.57,0,0,0,.73-.73,5.16,5.16,0,0,1-.95.27A13.12,13.12,0,0,1,136.84,58.3Z"/><path class="cls-11" d="M159.43,32.82c-.21.75,1.3,1.34,1.89,1.7a10.71,10.71,0,0,1,1.21,1,.71.71,0,0,0,.75.2c.88-.46-.54-1.58-1-1.84a13.31,13.31,0,0,0-1.55-.8,2.14,2.14,0,0,0-1.28-.31.06.06,0,0,0-.06,0Z"/><path class="cls-11" d="M164.28,25.39c.6.18,1.18.44,1.75.66a6.21,6.21,0,0,0,1.63.58c.35,0,.69-.33.56-.6-.6-1.19-2.65-1.34-3.94-1a.18.18,0,0,0,0,.35Z"/><path class="cls-11" d="M146.38,36.27c-2.4-1.21-5.11,1.73-4.86,3.54a3.44,3.44,0,0,0,2.12,2.39c1.54.81,3.5,1.94,5.39,2,.48,0,.88-.49.58-.83-1.27-1.49-3.61-1.8-5.38-2.76s-1-2.39.47-3.2a5.51,5.51,0,0,0,1.71-1s0-.06,0-.07Z"/><path class="cls-11" d="M146.94,36.34a4.1,4.1,0,0,0,1.88.14c.34,0,1-.14,1-.54s-.8-.44-1.17-.42a2.52,2.52,0,0,0-1.7.57.15.15,0,0,0,0,.25Z"/><path class="cls-11" d="M145,48c-2.71-.68-5.86-.37-8.68-.53-2.55-.14-5.18-.52-7.4.7-.41.23-.24.71.24.74,2.88.19,6,.15,8.87.1a22,22,0,0,0,7-.87c.07,0,0-.12,0-.14Z"/><path class="cls-11" d="M130.37,52.79c.82,1.36,3.18,1.78,4.65,2.53.85.44,2.4,1.93,3.3.78a.75.75,0,0,0,0-.89,7.15,7.15,0,0,0-3.45-2,10,10,0,0,0-4.35-.72.2.2,0,0,0-.15.29Z"/><path class="cls-11" d="M119.47,55.63a3.06,3.06,0,0,0-3.22,4.17c1,2.67,4.74,4.42,7.46,5.71,1,.45,1.71-.55,1.11-1.18-2-2.11-10.54-5-5.22-8.29.22-.13.14-.39-.13-.41Z"/><path class="cls-11" d="M100.85,65.39c-2.09,1.89-.11,4.15,1.8,5.57a23.6,23.6,0,0,0,4.11,2.26c1.46.7,2.7,1.89,4.31,2.28.24,0,.44-.14.39-.32-.43-1.66-2.86-2.66-4.52-3.44-2.86-1.33-6-3.12-5.58-6.18,0-.21-.35-.32-.51-.17Z"/><path class="cls-11" d="M110.85,75.65a1.12,1.12,0,0,0-.82.44,8.83,8.83,0,0,0-.71.65.38.38,0,0,0,.18.57,1.44,1.44,0,0,0,1.76-.44c.28-.36.38-1.24-.41-1.22Z"/><path class="cls-11" d="M82.59,75.52a11.59,11.59,0,0,0,3.38.09,22.45,22.45,0,0,0,3.48-.11.26.26,0,0,0,.08-.49c-1.8-.76-5.43-.81-7,.39a.07.07,0,0,0,0,.12Z"/><path class="cls-11" d="M81,78.91c.18,1.5,2,2.08,3.53,2.66,1.28.51,2.53,1.05,3.76,1.63A12.9,12.9,0,0,0,92,84.7c.66.1,1.36-.46.94-1-1.25-1.57-3.87-2.36-5.89-3.09-1.84-.66-3.72-1.4-5.6-2-.18-.06-.41.08-.4.25Z"/><path class="cls-11" d="M69,83.59c-2.85.58-5.14,2.25-5.7,4.66-.44,1.93-.57,5,1.79,6.14.28.14.64,0,.64-.3,0-1.62-.55-3.17-.36-4.82.28-2.45,2.32-3.27,4.25-4.81.45-.37,0-1-.62-.87Z"/><path class="cls-11" d="M65.91,95.35a5.73,5.73,0,0,0,1.38,2c.38.34,1.27,1.22,1.93.83s-.32-1.1-.67-1.37c-.71-.55-1.48-1.1-2.15-1.68-.19-.16-.6,0-.49.24Z"/><path class="cls-12" d="M202.89,44.52c-.7-6.9-1.69-15.53-13.45-18.48-5.22-.6-10,2.6-12.93,6.2s-4.78,7.8-8.25,11-8.54,5.43-13.12,7.82c-19.13,10-32.83,26.58-53.61,34C97.85,86.43,94,87.43,90.45,89,88,90,85.73,91.3,83.22,92.22,79.65,93.51,75.6,94,72.51,96A17.53,17.53,0,0,0,68,100.56a56.08,56.08,0,0,0-11,27.29c-.59,5.27.47,11.72,6.33,13.92,3.61,1.35,7.82.56,11.66-.26,24.5-5.21,49.72-10.75,69.78-23.43a182.2,182.2,0,0,0,16.93-12.6c12-9.68,24.21-19.59,31.75-31.94a83.27,83.27,0,0,0,5.89-12C201.54,56.08,203.48,50.32,202.89,44.52Z"/><path class="cls-4" d="M189.41,29.23a14.6,14.6,0,0,1,6.49-.37A19.15,19.15,0,0,0,189.44,26a11.8,11.8,0,0,0-5.39.67,17.76,17.76,0,0,0-7.54,5.53c-2.93,3.6-4.78,7.8-8.25,11s-8.54,5.43-13.12,7.82c-19.13,10-32.83,26.58-53.61,34C97.85,86.43,94,87.43,90.45,89,88,90,85.73,91.3,83.22,92.22,79.65,93.51,75.6,94,72.51,96a13.29,13.29,0,0,0-2.37,2A25.44,25.44,0,0,0,68,100.56a56.84,56.84,0,0,0-10.21,22.35,20,20,0,0,1,5.08-3c1.9-.78,4-1.41,5.43-2.69s2-3.5.45-4.71c-.6-.48-1.5-.83-1.59-1.51a1.6,1.6,0,0,1,.64-1.21,15.34,15.34,0,0,1,9.15-4.1,22.85,22.85,0,0,0,4.56-.57c3.31-1,4.68-4.23,7.25-6.23,5.56-4.35,14.59-2.14,22.15-3.21C119.38,94.48,126,89,131,83.24s9.36-12.11,16.06-16.57c5.91-3.93,13.47-6.21,18.38-11,2.71-2.65,4.42-5.89,7-8.62s6.56-5,10.71-4.49c2.67.34,6,1.62,7.65-.1,1.32-1.35.23-3.37-1.2-4.63s-3.3-2.4-3.69-4.1C185.54,31.86,187.26,30,189.41,29.23Z"/><path class="cls-13" d="M199.47,39.21a5.57,5.57,0,0,0-3.14,3.33c-3.83,8.05-6.29,16.59-11.42,24.14-3.9,5.72-9.21,10.69-14.52,15.59-11.89,10.94-24.6,22.09-41.26,27.36a13.64,13.64,0,0,1-6.25.83c-3.15-.52-5.33-2.89-8.28-3.94-5.87-2.1-12.21,1.48-18.39,2.86-6.38,1.41-14,.67-18.71,4.47-3.66,3-4.39,7.89-8.5,10.39-3.58,2.18-9,2-12.14,4.41-.39,5.11.84,11,6.41,13.12,3.61,1.35,7.82.56,11.66-.26,24.5-5.21,49.72-10.75,69.78-23.43a182.2,182.2,0,0,0,16.93-12.6c12-9.68,24.21-19.59,31.75-31.94a83.27,83.27,0,0,0,5.89-12c2.26-5.51,4.2-11.27,3.61-17.07-.17-1.66-.35-3.42-.7-5.17A3.89,3.89,0,0,0,199.47,39.21Z"/><path class="cls-2" d="M78.67,97.61C85.6,96.47,92,93.72,98.48,91.46c7.76-2.68,16.12-4.8,22.27-9.52,3-2.32,5.36-5.17,8-7.8a65.39,65.39,0,0,1,11.2-9c4.06-2.6,8.46-4.83,12.63-7.32,13.41-8,24.32-18.8,31.5-31.08a17.76,17.76,0,0,0-7.54,5.53c-2.93,3.6-4.78,7.8-8.25,11s-8.54,5.43-13.12,7.82c-19.13,10-32.83,26.58-53.61,34C97.85,86.43,94,87.43,90.45,89,88,90,85.73,91.3,83.22,92.22,79.65,93.51,75.6,94,72.51,96a13.29,13.29,0,0,0-2.37,2A35.74,35.74,0,0,0,78.67,97.61Z"/><g class="cls-14"><path class="cls-13" d="M170.65,72.53c-.49.43-1.72.12-2.59-.81s-.94-2-.32-2.26,1.61.19,2.35,1S171.14,72.11,170.65,72.53Z"/><path class="cls-13" d="M178.51,65.4c-.28.53-1.48.62-2.69.19s-1.95-1.21-1.66-1.74,1.48-.63,2.69-.2S178.8,64.86,178.51,65.4Z"/><path class="cls-13" d="M176,76.67a1.92,1.92,0,0,1-2.13-.82c-.56-.76-.53-1.62.07-1.93a1.88,1.88,0,0,1,2.12.82C176.63,75.5,176.6,76.36,176,76.67Z"/><path class="cls-13" d="M180.79,72.63c-.17.56-1,.88-1.85.71s-1.41-.77-1.24-1.34a1.56,1.56,0,0,1,1.86-.71C180.41,71.46,181,72.06,180.79,72.63Z"/><path class="cls-13" d="M185.19,71.86A2,2,0,0,1,183,71c-.65-.79-.7-1.7-.11-2a2,2,0,0,1,2.24.84C185.73,70.62,185.78,71.53,185.19,71.86Z"/><path class="cls-13" d="M178.53,55.3c-.24.54-1.31.72-2.29.25s-1.32-1.32-.86-1.76a2,2,0,0,1,2.16-.06C178.3,54.1,178.77,54.75,178.53,55.3Z"/><path class="cls-13" d="M182.72,54.6a1.93,1.93,0,0,1-2.1-1.05c-.52-.84-.44-1.74.2-2a1.94,1.94,0,0,1,2.09,1.05C183.44,53.44,183.35,54.34,182.72,54.6Z"/><path class="cls-13" d="M186.42,57.69c.3.52-.57,1.35-2,1.39s-2.37-.72-2.13-1.26,1.13-.81,2-.85S186.13,57.15,186.42,57.69Z"/><path class="cls-13" d="M187.26,53.59a1.43,1.43,0,0,1-2-.6,1,1,0,0,1,.72-1.62,1.68,1.68,0,0,1,1.61.74A1.14,1.14,0,0,1,187.26,53.59Z"/><path class="cls-13" d="M191.6,51.39c-.56.35-1.63,0-2.24-.89s-.47-1.81.18-2a2,2,0,0,1,2,1C192.1,50.19,192.16,51,191.6,51.39Z"/><path class="cls-13" d="M195.08,57.71a1.79,1.79,0,0,1-1.66-.51,1.13,1.13,0,0,1,.14-1.45,1.42,1.42,0,0,1,2,.31A1,1,0,0,1,195.08,57.71Z"/><path class="cls-13" d="M198.4,56.33c-.71,0-1.25-.85-1.2-1.84s.66-1.78,1.37-1.75,1.25.84,1.2,1.83S199.11,56.35,198.4,56.33Z"/><path class="cls-13" d="M197.51,61.3a1.35,1.35,0,0,1-.64-1.86,1.76,1.76,0,0,1,1.81-1.24c.69.15,1,1,.65,1.86A1.68,1.68,0,0,1,197.51,61.3Z"/><path class="cls-13" d="M193.35,63a1.13,1.13,0,0,1-.72-1.7,1.54,1.54,0,0,1,1.92-.87,1.2,1.2,0,0,1,.48,1.63A1.65,1.65,0,0,1,193.35,63Z"/><path class="cls-13" d="M193.28,67.59c-.5-.41-.24-1.28.57-1.93a2.07,2.07,0,0,1,2.37-.43c.5.42.24,1.28-.57,1.94A2.08,2.08,0,0,1,193.28,67.59Z"/><path class="cls-13" d="M189.31,67.94c-.7.12-1.51-.83-1.52-2.13s.77-2.25,1.46-2.15,1.09,1,1.11,2.13S190,67.83,189.31,67.94Z"/><path class="cls-13" d="M191.41,62c-.47.44-1.6.24-2.4-.53s-.88-1.72-.28-2a2.14,2.14,0,0,1,2.23.66C191.64,60.71,191.89,61.53,191.41,62Z"/><path class="cls-13" d="M189.71,73.74A.85.85,0,0,1,189,73a1.81,1.81,0,0,1,.55-1.48,2.67,2.67,0,0,1,1.61-.81,1,1,0,0,1,1,.38c.25.56-.14,1.2-.62,1.72A2.51,2.51,0,0,1,189.71,73.74Z"/><path class="cls-13" d="M188.92,77.16c-.37-.5.18-1.32,1.22-1.83s2.18-.52,2.54,0-.18,1.32-1.22,1.83S189.28,77.66,188.92,77.16Z"/><path class="cls-13" d="M187.48,76.3A1.55,1.55,0,0,1,185.74,75a1.32,1.32,0,0,1,1.07-1.74,1.63,1.63,0,0,1,1.47,1.37A1.38,1.38,0,0,1,187.48,76.3Z"/><path class="cls-13" d="M187.28,80.38c-.39.49-1.61.4-2.6-.32s-1.25-1.7-.71-2.07a2.34,2.34,0,0,1,2.41.49C187.22,79.09,187.66,79.89,187.28,80.38Z"/><path class="cls-13" d="M189.38,80.46c.44.46,0,1.37-1.09,2s-2.23.81-2.67.35.06-1.37,1.1-2S189,80,189.38,80.46Z"/><path class="cls-13" d="M181,79.38a1.28,1.28,0,1,1,1.29-1.28A1.28,1.28,0,0,1,181,79.38Z"/><path class="cls-13" d="M180,83.09c-.12.57-1.29.86-2.36.27s-1.19-1.6-.6-1.91a2.29,2.29,0,0,1,2,.15C179.66,82,180.13,82.51,180,83.09Z"/><path class="cls-13" d="M183,85.55c-.66-.21-.8-1.1-.3-2s1.4-1.4,2-1.12.77,1.16.31,2A2,2,0,0,1,183,85.55Z"/><path class="cls-13" d="M182.28,86.44c.2.55-.47,1.2-1.52,1.16s-1.64-.73-1.38-1.27a1.64,1.64,0,0,1,1.5-.84A1.55,1.55,0,0,1,182.28,86.44Z"/><path class="cls-13" d="M181.47,83.64a1.21,1.21,0,0,1-1.36-1.41,1.33,1.33,0,0,1,1.68-1.16,1.36,1.36,0,0,1,.88,1.37A1.5,1.5,0,0,1,181.47,83.64Z"/><path class="cls-13" d="M173.7,88.93c-.63-.27-.66-1.26.12-2.13s1.93-1.16,2.43-.75.28,1.27-.35,2A2.22,2.22,0,0,1,173.7,88.93Z"/><path class="cls-13" d="M176.67,92.2c.49.42-.26,1.62-2,2.13s-3.26,0-3.19-.6,1.13-1,2.33-1.39S176.18,91.77,176.67,92.2Z"/><path class="cls-13" d="M177.72,92c-.7-.07-1.13-1-.76-2s1.33-1.54,2-1.28.79,1.09.5,1.9A1.83,1.83,0,0,1,177.72,92Z"/><path class="cls-13" d="M170.65,90.36a.69.69,0,0,1-.22.87,2.6,2.6,0,0,1-3,.06.7.7,0,0,1-.28-.86,2.43,2.43,0,0,1,3.54-.07Z"/><path class="cls-13" d="M168.13,87.07c-.68-.17-1.12-.62-1.08-1s.58-.78,1.28-.85a1.07,1.07,0,0,1,1.29,1A1.16,1.16,0,0,1,168.13,87.07Z"/><path class="cls-13" d="M160.45,86.87a.9.9,0,0,1-.83.56A2.24,2.24,0,0,1,158.1,87a1.47,1.47,0,0,1-.65-1.22.78.78,0,0,1,.62-.71,2.41,2.41,0,0,1,1.79.39A1.57,1.57,0,0,1,160.45,86.87Z"/><path class="cls-13" d="M168.35,79.89A1.53,1.53,0,0,1,167,79a1.21,1.21,0,0,1,.73-1.32,1.3,1.3,0,0,1,1.77.81A1.06,1.06,0,0,1,168.35,79.89Z"/><path class="cls-13" d="M144,87.58c-.56.37-1.59.08-2.41-.59s-1.16-1.53-.7-2,1.62-.27,2.53.49S144.56,87.21,144,87.58Z"/><path class="cls-13" d="M149.21,87.07a1.37,1.37,0,1,1,1.29-1.37A1.33,1.33,0,0,1,149.21,87.07Z"/><path class="cls-13" d="M156.07,94.24c0,.58-.65,1.06-1.45,1.06s-1.46-.48-1.46-1.06.65-1.06,1.46-1.06S156.07,93.66,156.07,94.24Z"/><path class="cls-13" d="M161.52,94.92a1.43,1.43,0,0,1-1.42-1.37A1.33,1.33,0,0,1,161.25,92a1.44,1.44,0,0,1,1.42,1.37A1.33,1.33,0,0,1,161.52,94.92Z"/><path class="cls-13" d="M160.85,99.7c.06.58-.64,1.1-1.56,1.16s-1.7-.37-1.76-1,.64-1.1,1.56-1.16S160.8,99.11,160.85,99.7Z"/><path class="cls-13" d="M165.24,100.74a1.57,1.57,0,0,1-.94-1.66,1.62,1.62,0,0,1,1.09-1.59c.67-.17,1.53.57,1.48,1.67S165.9,100.94,165.24,100.74Z"/><path class="cls-13" d="M164.82,103a.63.63,0,0,1,.21.89,2,2,0,0,1-1.43,1,2.48,2.48,0,0,1-1.81-.26c-.4-.27-.48-.61-.33-.86a1.71,1.71,0,0,1,.7-.6,2.76,2.76,0,0,1,.8-.33,2.91,2.91,0,0,1,.89,0A2.21,2.21,0,0,1,164.82,103Z"/><path class="cls-13" d="M169.11,100.76a1.36,1.36,0,0,1-1-1.55,1.5,1.5,0,0,1,1.31-1.38,1.31,1.31,0,0,1,1.25,1.58A1.43,1.43,0,0,1,169.11,100.76Z"/><path class="cls-13" d="M169.57,95.49c-.19.57-1.12.85-2.09.64s-1.6-.85-1.42-1.41,1.12-.85,2.09-.63S169.75,94.93,169.57,95.49Z"/><path class="cls-13" d="M152.91,105.67c-.69-.11-1-1.15-.17-2.08s2.13-1,2.47-.51.08,1.2-.39,1.75A2.22,2.22,0,0,1,152.91,105.67Z"/><path class="cls-13" d="M152.13,110.61c-.18.57-1.11.85-2,.57s-1.41-1-1.1-1.53a1.76,1.76,0,0,1,2-.45C151.78,109.44,152.31,110.05,152.13,110.61Z"/><path class="cls-13" d="M149.43,113.38c.19.24.17.58-.18.89a2.34,2.34,0,0,1-1.73.44,2.1,2.1,0,0,1-1.52-.79.63.63,0,0,1,.1-.9,2.63,2.63,0,0,1,2.55-.17A2.16,2.16,0,0,1,149.43,113.38Z"/><path class="cls-13" d="M156.34,110.13a1.32,1.32,0,0,1-1.05-1.6,1.48,1.48,0,0,1,1.51-1.32,1.3,1.3,0,0,1,1,1.59A1.48,1.48,0,0,1,156.34,110.13Z"/><path class="cls-13" d="M156.74,111.37c.21.23.18.59-.17.95a2.93,2.93,0,0,1-1.82.75,3.16,3.16,0,0,1-2-.42c-.43-.3-.55-.64-.4-.91.34-.52,1.24-.68,2.1-.77A3.19,3.19,0,0,1,156.74,111.37Z"/><path class="cls-13" d="M160,106.45c.17.56-.55,1.18-1.57,1s-1.37-1-.94-1.44a1.81,1.81,0,0,1,1.47-.63A1.46,1.46,0,0,1,160,106.45Z"/><path class="cls-13" d="M147,106.89c-.59-.32-.31-1.5.92-2.41s2.7-1,3-.49-.34,1.35-1.3,2.07S147.54,107.22,147,106.89Z"/><path class="cls-13" d="M142.16,110c-.71,0-1.26-.79-1.48-1.71s0-1.81.62-2,1.64.48,1.9,1.65S142.87,110,142.16,110Z"/><path class="cls-13" d="M140.48,113.54c-.35.51-1.35.59-2.29.29s-1.61-.91-1.45-1.48,1.24-.85,2.38-.49S140.83,113,140.48,113.54Z"/><path class="cls-13" d="M141.33,117.69c.2.56-.5,1.22-1.59,1.33s-2-.37-2-1,.74-1,1.62-1.14S141.13,117.13,141.33,117.69Z"/><path class="cls-13" d="M143.8,115.25a1.56,1.56,0,0,1-1.31-1.46,1.42,1.42,0,0,1,.95-1.63,1.49,1.49,0,0,1,1.61,1.43A1.36,1.36,0,0,1,143.8,115.25Z"/><path class="cls-13" d="M145.48,117.62c-.21.56-1.37.76-2.58.45s-2-1-1.82-1.56,1.36-.76,2.58-.45S145.69,117.06,145.48,117.62Z"/><path class="cls-13" d="M78.74,122.93c0,.58-1,1.06-2.18,1.06s-2.19-.48-2.19-1.06,1-1.06,2.19-1.06S78.74,122.35,78.74,122.93Z"/><path class="cls-13" d="M80,125.47c.07.58-.85,1.13-2,1.23s-2.24-.3-2.31-.88.85-1.13,2.06-1.23S79.91,124.89,80,125.47Z"/><path class="cls-13" d="M79,132a1.81,1.81,0,0,1-2-1c-.46-.8-.32-1.65.32-1.9a1.79,1.79,0,0,1,2,1C79.76,130.87,79.62,131.72,79,132Z"/><path class="cls-13" d="M66.28,124.44c-.18.56-1.17.84-2.21.62s-1.73-.85-1.55-1.42,1.16-.84,2.2-.63S66.45,123.87,66.28,124.44Z"/><path class="cls-13" d="M63.77,129.94c-.54.38-1.66,0-2.52-.76s-1.12-1.77-.59-2.16,1.66,0,2.52.76S64.3,129.55,63.77,129.94Z"/><path class="cls-13" d="M59.56,133.21a1.59,1.59,0,0,1-1.89-.48,1,1,0,0,1,.29-1.61,1.59,1.59,0,0,1,1.89.48A1,1,0,0,1,59.56,133.21Z"/><path class="cls-13" d="M71.25,132.84c-.09.58-1.28.93-2.66.78s-2.41-.74-2.32-1.32,1.28-.93,2.66-.78S71.35,132.26,71.25,132.84Z"/><path class="cls-13" d="M72.73,138.88c.15.57-.62,1.19-1.72,1.39s-2.11-.1-2.27-.66.62-1.2,1.72-1.4S72.57,138.31,72.73,138.88Z"/><path class="cls-13" d="M79.71,138.83a1.67,1.67,0,0,1-1.84-1.09,1.26,1.26,0,0,1,.59-1.81A1.69,1.69,0,0,1,80.3,137,1.25,1.25,0,0,1,79.71,138.83Z"/><path class="cls-13" d="M82.66,140.32c.44.45-.12,1.39-1.44,1.69s-2.39-.3-2.28-.87.83-1,1.61-1.18A2.35,2.35,0,0,1,82.66,140.32Z"/><path class="cls-13" d="M87.29,138.8a1.49,1.49,0,0,1-1.87-.63,1,1,0,0,1,.62-1.58,1.56,1.56,0,0,1,1.72.69A1.07,1.07,0,0,1,87.29,138.8Z"/><path class="cls-13" d="M96.41,136.09c.35.5-.28,1.32-1.51,1.5s-2.15-.44-2-1,.83-1,1.59-1.09A2,2,0,0,1,96.41,136.09Z"/><path class="cls-13" d="M93.72,132.05c.19.56-.8,1.25-2.18,1s-2-1.15-1.59-1.61A2.41,2.41,0,0,1,92,131C92.78,131.15,93.54,131.48,93.72,132.05Z"/><path class="cls-13" d="M97.49,128.73a1.59,1.59,0,0,1-1.63-.85,1.15,1.15,0,0,1,.54-1.53,1.45,1.45,0,0,1,1.87.78A1.08,1.08,0,0,1,97.49,128.73Z"/><path class="cls-13" d="M93.07,124.21c-.06.57-1.26,1-2.54.51s-1.8-1.39-1.35-1.84a2.46,2.46,0,0,1,2.33-.11C92.41,123.08,93.14,123.62,93.07,124.21Z"/><path class="cls-13" d="M99.31,119.74c-.11.57-1.12.92-2.19.63s-1.64-1.06-1.31-1.58a2,2,0,0,1,2.11-.43C98.78,118.6,99.42,119.16,99.31,119.74Z"/><path class="cls-13" d="M93.49,113c.42.46-.17,1.41-1.49,1.86s-2.55.12-2.65-.45.67-1.16,1.67-1.51S93.07,112.54,93.49,113Z"/><path class="cls-13" d="M101.82,108.92c-.48.42-1.63.17-2.27-.73s-.33-1.85.35-2a2,2,0,0,1,1.88.93C102.21,107.75,102.32,108.5,101.82,108.92Z"/><path class="cls-13" d="M108.28,108.42c-.67-.2-.88-1.1-.67-2s.79-1.73,1.51-1.72,1.27,1,1,2.09S108.94,108.63,108.28,108.42Z"/><path class="cls-13" d="M109.58,123.26c-.7.1-1.43-.62-1.63-1.61s.19-1.86.89-2,1.44.62,1.64,1.61S110.28,123.16,109.58,123.26Z"/><path class="cls-13" d="M106.59,129.45c-.15.57-1.26.86-2.41.48s-1.7-1.22-1.32-1.71,1.37-.55,2.29-.25S106.73,128.88,106.59,129.45Z"/><path class="cls-13" d="M114.29,129.42a1.37,1.37,0,1,1,1.28-1.37A1.33,1.33,0,0,1,114.29,129.42Z"/><path class="cls-13" d="M110.14,133.51a1.9,1.9,0,0,1-2.22-.28c-.73-.57-.93-1.38-.44-1.8a1.89,1.89,0,0,1,2.22.27C110.43,132.28,110.63,133.09,110.14,133.51Z"/><path class="cls-13" d="M126.85,122.94a1.89,1.89,0,0,1,0-3.44c.7-.11,1.47.65,1.47,1.72S127.54,123.06,126.85,122.94Z"/><path class="cls-13" d="M126.11,119c-.07.58-1.44.94-3,.63s-2.61-1.11-2.37-1.66,1.55-.66,3-.4S126.19,118.42,126.11,119Z"/><path class="cls-13" d="M133.2,117.12a1.62,1.62,0,0,1-1.28-1.65,1.55,1.55,0,0,1,1.05-1.76c.69-.11,1.45.62,1.52,1.64S133.9,117.18,133.2,117.12Z"/><path class="cls-13" d="M133,122.75a1.6,1.6,0,0,1-1.95,0,1,1,0,0,1-.32-1.58,1.61,1.61,0,0,1,2,0A1,1,0,0,1,133,122.75Z"/><path class="cls-13" d="M121.94,128.71a1.84,1.84,0,0,1-.48-1.77,2,2,0,0,1,1-1.64,1.08,1.08,0,0,1,1.08.32,1.86,1.86,0,0,1,.49,1.57,2.09,2.09,0,0,1-.93,1.43A1.11,1.11,0,0,1,121.94,128.71Z"/><path class="cls-13" d="M121,125.42c.14.57-.83,1.19-2.12,1s-2-1-1.59-1.53a2.18,2.18,0,0,1,2-.55C120.07,124.47,120.82,124.84,121,125.42Z"/><path class="cls-13" d="M124.05,121.76a1.24,1.24,0,0,1-1.6.79c-.79-.18-1.16-.84-.87-1.36a1.47,1.47,0,0,1,1.57-.67A1.14,1.14,0,0,1,124.05,121.76Z"/><path class="cls-13" d="M131.76,111.66a1.06,1.06,0,0,1-.74-1.47,1.43,1.43,0,0,1,1.69-.77,1.07,1.07,0,0,1,.74,1.47A1.44,1.44,0,0,1,131.76,111.66Z"/><path class="cls-13" d="M132,106.61c.14.57-.74,1.2-2,1.19s-2.13-.64-2-1.2,1-.91,2-.91S131.83,106,132,106.61Z"/><path class="cls-13" d="M138.65,104.51c-.61-.3-.59-1.26,0-2.15s1.65-1.39,2.26-1.09.6,1.25,0,2.15S139.27,104.8,138.65,104.51Z"/><path class="cls-13" d="M151.71,102.1c-.7,0-1.2-1-.74-2.19s1.58-1.72,2.17-1.41.61,1.2.28,2.06S152.42,102.14,151.71,102.1Z"/><path class="cls-13" d="M127.59,127.2c-.71,0-1.18-.93-.8-1.91s1.38-1.48,2-1.19a1.37,1.37,0,0,1,.46,1.82A1.78,1.78,0,0,1,127.59,127.2Z"/></g><path class="cls-4" d="M171.29,72.86c-.49.42-1.72.11-2.59-.81s-.93-2-.32-2.26,1.61.18,2.35,1S171.78,72.43,171.29,72.86Z"/><path class="cls-4" d="M179.16,65.72c-.29.54-1.49.63-2.7.2s-1.94-1.21-1.66-1.75,1.49-.62,2.69-.19S179.44,65.19,179.16,65.72Z"/><path class="cls-4" d="M176.64,77a1.87,1.87,0,0,1-2.12-.82c-.57-.76-.54-1.62.06-1.92a1.89,1.89,0,0,1,2.13.81C177.27,75.82,177.24,76.69,176.64,77Z"/><path class="cls-4" d="M181.43,73c-.17.57-1,.89-1.85.71s-1.4-.77-1.23-1.34,1-.88,1.85-.71S181.6,72.39,181.43,73Z"/><path class="cls-4" d="M185.84,72.18a2,2,0,0,1-2.25-.84c-.65-.79-.7-1.7-.11-2a2,2,0,0,1,2.24.84C186.37,71,186.42,71.86,185.84,72.18Z"/><path class="cls-4" d="M179.17,55.62c-.24.55-1.31.73-2.29.26s-1.31-1.33-.85-1.77a2,2,0,0,1,2.15-.06C178.94,54.42,179.41,55.07,179.17,55.62Z"/><path class="cls-4" d="M183.36,54.93a2,2,0,0,1-2.1-1c-.52-.85-.43-1.75.2-2a1.93,1.93,0,0,1,2.1,1.05C184.08,53.76,184,54.66,183.36,54.93Z"/><path class="cls-4" d="M187.06,58c.3.52-.56,1.35-2,1.4s-2.38-.73-2.14-1.27,1.13-.81,2-.84S186.77,57.47,187.06,58Z"/><path class="cls-4" d="M187.9,53.92a1.44,1.44,0,0,1-2-.6,1,1,0,0,1,.72-1.62,1.68,1.68,0,0,1,1.62.73A1.16,1.16,0,0,1,187.9,53.92Z"/><path class="cls-4" d="M192.24,51.71c-.56.36-1.63,0-2.24-.88s-.47-1.82.19-2a2,2,0,0,1,2,1C192.75,50.51,192.8,51.35,192.24,51.71Z"/><path class="cls-4" d="M195.73,58a1.78,1.78,0,0,1-1.67-.51,1.13,1.13,0,0,1,.14-1.45,1.42,1.42,0,0,1,2,.32A1,1,0,0,1,195.73,58Z"/><path class="cls-4" d="M199,56.65c-.71,0-1.24-.84-1.2-1.83s.66-1.78,1.37-1.76,1.25.85,1.2,1.84S199.75,56.68,199,56.65Z"/><path class="cls-4" d="M198.16,61.62a1.35,1.35,0,0,1-.65-1.86,1.77,1.77,0,0,1,1.82-1.23c.68.14,1,1,.64,1.86S198.82,61.83,198.16,61.62Z"/><path class="cls-4" d="M194,63.32a1.13,1.13,0,0,1-.72-1.7,1.53,1.53,0,0,1,1.92-.86,1.18,1.18,0,0,1,.48,1.62A1.65,1.65,0,0,1,194,63.32Z"/><path class="cls-4" d="M193.92,67.92c-.49-.42-.24-1.29.57-1.94s1.88-.84,2.37-.43.25,1.29-.57,1.94S194.42,68.34,193.92,67.92Z"/><path class="cls-4" d="M190,68.27c-.69.11-1.5-.84-1.52-2.13s.77-2.26,1.47-2.16S191,65,191,66.12,190.65,68.16,190,68.27Z"/><path class="cls-4" d="M192.05,62.29c-.47.43-1.6.23-2.4-.54s-.87-1.72-.28-2a2.14,2.14,0,0,1,2.23.65C192.28,61,192.53,61.85,192.05,62.29Z"/><path class="cls-4" d="M190.35,74.06a.82.82,0,0,1-.7-.73,1.79,1.79,0,0,1,.55-1.48,2.63,2.63,0,0,1,1.61-.8,1,1,0,0,1,1,.38c.25.55-.14,1.19-.61,1.72A2.53,2.53,0,0,1,190.35,74.06Z"/><path class="cls-4" d="M189.56,77.49c-.36-.51.19-1.32,1.23-1.83s2.17-.52,2.54,0-.19,1.32-1.23,1.83S189.93,78,189.56,77.49Z"/><path class="cls-4" d="M188.13,76.63a1.55,1.55,0,0,1-1.74-1.33,1.32,1.32,0,0,1,1.07-1.74,1.63,1.63,0,0,1,1.46,1.37A1.38,1.38,0,0,1,188.13,76.63Z"/><path class="cls-4" d="M187.92,80.71c-.38.48-1.6.4-2.6-.32s-1.25-1.71-.71-2.08,1.58-.11,2.42.49S188.31,80.21,187.92,80.71Z"/><path class="cls-4" d="M190,80.78c.43.47-.06,1.37-1.1,2s-2.23.81-2.66.35.06-1.37,1.09-2S189.59,80.32,190,80.78Z"/><path class="cls-4" d="M181.66,79.71A1.29,1.29,0,1,1,183,78.43,1.28,1.28,0,0,1,181.66,79.71Z"/><path class="cls-4" d="M180.64,83.41c-.12.57-1.3.86-2.37.27s-1.19-1.6-.59-1.9a2.23,2.23,0,0,1,2,.15C180.3,82.27,180.77,82.83,180.64,83.41Z"/><path class="cls-4" d="M183.61,85.88c-.67-.21-.8-1.11-.31-2s1.41-1.4,2-1.13.77,1.17.31,2A2,2,0,0,1,183.61,85.88Z"/><path class="cls-4" d="M182.92,86.76c.2.56-.47,1.21-1.52,1.17s-1.64-.74-1.38-1.28a1.63,1.63,0,0,1,1.5-.83A1.55,1.55,0,0,1,182.92,86.76Z"/><path class="cls-4" d="M182.12,84a1.22,1.22,0,0,1-1.37-1.41,1.33,1.33,0,0,1,1.68-1.17,1.35,1.35,0,0,1,.88,1.38A1.48,1.48,0,0,1,182.12,84Z"/><path class="cls-4" d="M174.34,89.25c-.63-.26-.65-1.26.12-2.13s1.93-1.16,2.43-.74.29,1.26-.35,2A2.18,2.18,0,0,1,174.34,89.25Z"/><path class="cls-4" d="M177.31,92.53c.49.41-.26,1.62-2,2.13s-3.26,0-3.2-.61,1.13-1,2.33-1.38S176.82,92.09,177.31,92.53Z"/><path class="cls-4" d="M178.36,92.35c-.7-.08-1.13-1-.76-2s1.33-1.54,2-1.29.79,1.09.49,1.9A1.82,1.82,0,0,1,178.36,92.35Z"/><path class="cls-4" d="M171.29,90.69a.67.67,0,0,1-.22.86,2.28,2.28,0,0,1-1.5.52,2.41,2.41,0,0,1-1.54-.46.68.68,0,0,1-.27-.85,2.06,2.06,0,0,1,1.74-.8A2.14,2.14,0,0,1,171.29,90.69Z"/><path class="cls-4" d="M168.78,87.39c-.68-.17-1.12-.62-1.08-1s.57-.79,1.28-.86a1.07,1.07,0,0,1,1.28,1A1.15,1.15,0,0,1,168.78,87.39Z"/><path class="cls-4" d="M161.09,87.2a.88.88,0,0,1-.83.55,2.23,2.23,0,0,1-1.52-.45,1.51,1.51,0,0,1-.65-1.22.8.8,0,0,1,.62-.72,2.44,2.44,0,0,1,1.79.39A1.56,1.56,0,0,1,161.09,87.2Z"/><path class="cls-4" d="M169,80.22a1.53,1.53,0,0,1-1.4-.89,1.19,1.19,0,0,1,.73-1.32,1.3,1.3,0,0,1,1.76.81A1.07,1.07,0,0,1,169,80.22Z"/><path class="cls-4" d="M144.66,87.9c-.55.37-1.59.08-2.4-.59s-1.17-1.53-.71-2,1.62-.26,2.53.49S145.21,87.53,144.66,87.9Z"/><path class="cls-4" d="M149.85,87.39A1.37,1.37,0,1,1,151.14,86,1.32,1.32,0,0,1,149.85,87.39Z"/><path class="cls-4" d="M156.72,94.56c0,.59-.66,1.06-1.46,1.06s-1.46-.47-1.46-1.06.66-1,1.46-1S156.72,94,156.72,94.56Z"/><path class="cls-4" d="M162.16,95.24a1.42,1.42,0,0,1-1.42-1.37,1.32,1.32,0,0,1,1.15-1.52,1.42,1.42,0,0,1,1.42,1.36A1.33,1.33,0,0,1,162.16,95.24Z"/><path class="cls-4" d="M161.5,100c.05.58-.65,1.1-1.56,1.16s-1.71-.36-1.77-.94.65-1.11,1.56-1.17S161.44,99.44,161.5,100Z"/><path class="cls-4" d="M165.88,101.06a1.57,1.57,0,0,1-.94-1.65A1.61,1.61,0,0,1,166,97.82c.67-.17,1.53.57,1.48,1.67S166.54,101.27,165.88,101.06Z"/><path class="cls-4" d="M165.46,103.28a.65.65,0,0,1,.22.9,2.1,2.1,0,0,1-1.43.94,2.42,2.42,0,0,1-1.81-.26c-.41-.26-.49-.6-.34-.86a1.77,1.77,0,0,1,.7-.6,2.85,2.85,0,0,1,.8-.32,2.91,2.91,0,0,1,.89,0A2.35,2.35,0,0,1,165.46,103.28Z"/><path class="cls-4" d="M169.75,101.08a1.37,1.37,0,0,1-1-1.55,1.5,1.5,0,0,1,1.32-1.37,1.32,1.32,0,0,1,1.25,1.57A1.43,1.43,0,0,1,169.75,101.08Z"/><path class="cls-4" d="M170.21,95.82c-.19.56-1.12.84-2.09.63s-1.6-.84-1.42-1.41,1.12-.84,2.09-.63S170.39,95.25,170.21,95.82Z"/><path class="cls-4" d="M153.56,106c-.69-.11-1-1.16-.18-2.09s2.13-1,2.47-.5.08,1.2-.39,1.74A2.23,2.23,0,0,1,153.56,106Z"/><path class="cls-4" d="M152.77,110.94c-.18.56-1.11.85-2.05.56s-1.41-1-1.09-1.53a1.76,1.76,0,0,1,2-.45C152.43,109.77,153,110.37,152.77,110.94Z"/><path class="cls-4" d="M150.07,113.7c.19.24.17.58-.18.89a2.32,2.32,0,0,1-1.72.45,2.09,2.09,0,0,1-1.53-.8.62.62,0,0,1,.11-.9,2.34,2.34,0,0,1,.91-.34,2.29,2.29,0,0,1,1.63.18A2.06,2.06,0,0,1,150.07,113.7Z"/><path class="cls-4" d="M157,110.45a1.3,1.3,0,0,1-1-1.59,1.48,1.48,0,0,1,1.5-1.33,1.32,1.32,0,0,1,1.05,1.6A1.48,1.48,0,0,1,157,110.45Z"/><path class="cls-4" d="M157.38,111.69c.21.23.18.6-.17,1a3,3,0,0,1-1.82.75,3.18,3.18,0,0,1-2-.43c-.43-.29-.55-.64-.4-.9.34-.52,1.24-.68,2.11-.77A3.11,3.11,0,0,1,157.38,111.69Z"/><path class="cls-4" d="M160.68,106.77c.17.56-.55,1.18-1.56,1s-1.37-1-.94-1.44a1.83,1.83,0,0,1,1.46-.63A1.48,1.48,0,0,1,160.68,106.77Z"/><path class="cls-4" d="M147.59,107.22c-.59-.32-.31-1.51.93-2.41s2.69-1,3-.49-.33,1.35-1.3,2.06S148.18,107.55,147.59,107.22Z"/><path class="cls-4" d="M142.81,110.28c-.72,0-1.27-.8-1.49-1.72s0-1.81.62-2,1.64.48,1.91,1.65S143.51,110.3,142.81,110.28Z"/><path class="cls-4" d="M141.12,113.87c-.35.51-1.35.59-2.29.29s-1.61-.91-1.45-1.49,1.25-.84,2.38-.48S141.47,113.36,141.12,113.87Z"/><path class="cls-4" d="M142,118c.2.56-.5,1.22-1.59,1.34s-2-.37-2-.95.75-1.05,1.62-1.15S141.77,117.45,142,118Z"/><path class="cls-4" d="M144.45,115.57a1.56,1.56,0,0,1-1.32-1.45,1.42,1.42,0,0,1,1-1.63,1.47,1.47,0,0,1,1.61,1.42A1.36,1.36,0,0,1,144.45,115.57Z"/><path class="cls-4" d="M146.12,118c-.21.55-1.36.76-2.58.45s-2-1-1.82-1.57,1.37-.76,2.58-.45S146.33,117.39,146.12,118Z"/><path class="cls-4" d="M79.38,123.26c0,.58-1,1-2.18,1s-2.18-.47-2.18-1,1-1.06,2.18-1.06S79.38,122.67,79.38,123.26Z"/><path class="cls-4" d="M80.63,125.8c.07.58-.86,1.13-2.06,1.22s-2.24-.29-2.31-.88.85-1.13,2.06-1.22S80.56,125.21,80.63,125.8Z"/><path class="cls-4" d="M79.62,132.3a1.83,1.83,0,0,1-2-1c-.46-.8-.32-1.65.32-1.9a1.82,1.82,0,0,1,2,1C80.4,131.19,80.26,132,79.62,132.3Z"/><path class="cls-4" d="M66.92,124.76c-.18.57-1.16.85-2.2.63S63,124.53,63.16,124s1.16-.84,2.2-.62S67.1,124.2,66.92,124.76Z"/><path class="cls-4" d="M64.41,130.26c-.53.39-1.66.05-2.52-.76s-1.12-1.77-.59-2.15,1.67,0,2.52.76S64.94,129.88,64.41,130.26Z"/><path class="cls-4" d="M60.2,133.53a1.56,1.56,0,0,1-1.88-.48,1,1,0,0,1,.29-1.6,1.56,1.56,0,0,1,1.88.48A1,1,0,0,1,60.2,133.53Z"/><path class="cls-4" d="M71.9,133.16c-.1.58-1.29.93-2.66.78s-2.42-.74-2.33-1.32,1.29-.92,2.66-.77S72,132.59,71.9,133.16Z"/><path class="cls-4" d="M73.37,139.2c.15.57-.61,1.2-1.71,1.4s-2.12-.1-2.27-.67.61-1.19,1.71-1.4S73.22,138.63,73.37,139.2Z"/><path class="cls-4" d="M80.35,139.16a1.7,1.7,0,0,1-1.84-1.1,1.25,1.25,0,0,1,.59-1.8,1.67,1.67,0,0,1,1.84,1.09A1.26,1.26,0,0,1,80.35,139.16Z"/><path class="cls-4" d="M83.3,140.64c.44.46-.12,1.4-1.44,1.69s-2.38-.3-2.28-.87.83-1,1.61-1.17A2.38,2.38,0,0,1,83.3,140.64Z"/><path class="cls-4" d="M87.93,139.13a1.48,1.48,0,0,1-1.86-.64,1,1,0,0,1,.61-1.58,1.56,1.56,0,0,1,1.72.69A1.08,1.08,0,0,1,87.93,139.13Z"/><path class="cls-4" d="M97.06,136.41c.34.51-.28,1.33-1.51,1.5s-2.15-.43-2-1,.83-1,1.59-1.08A2.08,2.08,0,0,1,97.06,136.41Z"/><path class="cls-4" d="M94.37,132.38c.19.56-.81,1.25-2.19,1s-2-1.14-1.59-1.61a2.38,2.38,0,0,1,2.06-.46C93.42,131.47,94.19,131.81,94.37,132.38Z"/><path class="cls-4" d="M98.13,129.06a1.61,1.61,0,0,1-1.63-.86,1.14,1.14,0,0,1,.54-1.52,1.45,1.45,0,0,1,1.87.78A1.09,1.09,0,0,1,98.13,129.06Z"/><path class="cls-4" d="M93.71,124.53c-.06.58-1.25,1-2.54.52s-1.8-1.4-1.35-1.84a2.48,2.48,0,0,1,2.34-.12C93.05,123.41,93.78,124,93.71,124.53Z"/><path class="cls-4" d="M100,120.07c-.11.57-1.11.91-2.19.62s-1.63-1.06-1.31-1.57a2,2,0,0,1,2.12-.44C99.43,118.92,100.06,119.49,100,120.07Z"/><path class="cls-4" d="M94.13,113.34c.43.46-.17,1.41-1.48,1.86s-2.56.13-2.66-.45.68-1.16,1.67-1.5S93.71,112.87,94.13,113.34Z"/><path class="cls-4" d="M102.46,109.25c-.48.42-1.63.16-2.27-.74s-.33-1.84.36-2a2,2,0,0,1,1.87.92A1.33,1.33,0,0,1,102.46,109.25Z"/><path class="cls-4" d="M108.93,108.75c-.67-.21-.89-1.1-.68-2s.8-1.72,1.51-1.72,1.28,1,1,2.1S109.59,109,108.93,108.75Z"/><path class="cls-4" d="M110.23,123.59c-.7.09-1.44-.63-1.64-1.61s.2-1.87.9-2,1.43.62,1.63,1.6S110.93,123.49,110.23,123.59Z"/><path class="cls-4" d="M107.23,129.78c-.15.57-1.25.86-2.4.47s-1.7-1.22-1.33-1.71,1.37-.55,2.29-.25S107.38,129.2,107.23,129.78Z"/><path class="cls-4" d="M114.93,129.75a1.37,1.37,0,1,1,1.29-1.37A1.34,1.34,0,0,1,114.93,129.75Z"/><path class="cls-4" d="M110.78,133.84a1.91,1.91,0,0,1-2.22-.28c-.73-.58-.93-1.39-.44-1.81a1.9,1.9,0,0,1,2.22.28C111.07,132.6,111.27,133.41,110.78,133.84Z"/><path class="cls-4" d="M127.49,123.27a1.61,1.61,0,0,1-1.12-1.72,1.6,1.6,0,0,1,1.11-1.72c.69-.12,1.46.65,1.46,1.71S128.18,123.38,127.49,123.27Z"/><path class="cls-4" d="M126.75,119.32c-.07.58-1.43.94-3,.64s-2.61-1.12-2.36-1.66,1.54-.67,2.94-.4S126.83,118.74,126.75,119.32Z"/><path class="cls-4" d="M133.84,117.45a1.61,1.61,0,0,1-1.27-1.65,1.52,1.52,0,0,1,1-1.76c.69-.12,1.46.61,1.52,1.64S134.54,117.5,133.84,117.45Z"/><path class="cls-4" d="M133.65,123.08a1.61,1.61,0,0,1-2,0,1,1,0,0,1-.32-1.59,1.61,1.61,0,0,1,2,0A1,1,0,0,1,133.65,123.08Z"/><path class="cls-4" d="M122.58,129a1.84,1.84,0,0,1-.47-1.78,2,2,0,0,1,1-1.63,1,1,0,0,1,1.08.32,1.84,1.84,0,0,1,.49,1.57,2.07,2.07,0,0,1-.93,1.42A1.11,1.11,0,0,1,122.58,129Z"/><path class="cls-4" d="M121.6,125.74c.14.57-.82,1.2-2.12,1s-2-1-1.59-1.53a2.16,2.16,0,0,1,2-.55C120.71,124.79,121.47,125.17,121.6,125.74Z"/><path class="cls-4" d="M124.7,122.08a1.26,1.26,0,0,1-1.61.8c-.79-.18-1.16-.84-.86-1.37a1.45,1.45,0,0,1,1.56-.66A1.13,1.13,0,0,1,124.7,122.08Z"/><path class="cls-4" d="M132.4,112a1.08,1.08,0,0,1-.74-1.47,1.44,1.44,0,0,1,1.69-.78,1.07,1.07,0,0,1,.74,1.47A1.44,1.44,0,0,1,132.4,112Z"/><path class="cls-4" d="M132.62,106.94c.14.56-.75,1.19-2,1.19s-2.13-.64-2-1.21,1-.91,2-.91S132.48,106.36,132.62,106.94Z"/><path class="cls-4" d="M139.3,104.83c-.62-.29-.6-1.25,0-2.15s1.65-1.38,2.26-1.09.6,1.26,0,2.15S139.91,105.13,139.3,104.83Z"/><path class="cls-4" d="M152.35,102.42c-.7,0-1.19-1-.74-2.19s1.58-1.72,2.18-1.41.61,1.2.27,2.07S153.06,102.46,152.35,102.42Z"/><path class="cls-4" d="M128.23,127.52c-.7,0-1.18-.93-.8-1.91s1.38-1.47,2-1.19a1.39,1.39,0,0,1,.46,1.83A1.79,1.79,0,0,1,128.23,127.52Z"/><rect class="cls-15" width="232" height="164"/></g></g></g></svg>