<svg xmlns="http://www.w3.org/2000/svg" viewBox="0 0 232 164"><defs><style>.cls-1{fill:#ffa66b;}.cls-2{fill:#ffc6a2;}.cls-3{fill:#ffc942;}.cls-4{fill:#ffdd8c;}.cls-5{fill:#ffae00;}.cls-6{fill:#ff7100;}.cls-7{fill:#e64e00;}.cls-8{fill:#ec6841;}.cls-9{fill:#c13000;}.cls-10{fill:none;}</style></defs><title>Recurso 10</title><g id="Capa_2" data-name="Capa 2"><g id="Capa_1-2" data-name="Capa 1"><path class="cls-1" d="M198.49,74.89c-7.78-8.89-18.33-14.31-28.26-20.3-13-7.84-31.8-19.52-43.17-29.79a11.82,11.82,0,0,0-15.66-.64c-4.45,3.78-5.73,11.17-2.84,16.38C93.81,53.43,79,66.42,66.74,82,61.2,89.09,56.25,96.65,51.31,104.2Q40.57,120.61,29.81,137a3.78,3.78,0,0,0-.81,2.1,3,3,0,0,0,1.87,2.3c3.19,1.62,6.94,1.1,10.43.47,7-1.26,13.91-2.84,20.84-4.42C108,127,154.54,116.33,196.21,93.39c2.38-1.31,4.89-2.82,6.09-5.37C204.33,83.64,201.61,78.47,198.49,74.89Z"/><path class="cls-2" d="M124.91,117c-1.69.6-3.27,1.53-5,2-3.73,1.1-7.72.13-11.55.67s-7.12,2.43-10.72,3.56c-4.46,1.39-9.17,1.57-13.78,2.2-16.54,2.23-32,10.16-48.5,12.75a23.7,23.7,0,0,0-6.18,1.46l-.08,0a3.43,3.43,0,0,0,1.75,1.75c3.19,1.62,6.94,1.1,10.43.47,7-1.26,13.91-2.84,20.84-4.42,25-5.71,50.29-11.5,74.83-19.3A14.49,14.49,0,0,0,124.91,117Z"/><path class="cls-2" d="M119,28.09c1.9,1.35,2.79,3.86,4.58,5.38,3.15,2.7,7.84,1.48,11.7,2.79,6,2,8.67,9.5,13.84,13.32,2.57,1.9,5.66,2.81,8.52,4.18a59.66,59.66,0,0,1,7.66,4.68l10.86,7.43a24.05,24.05,0,0,1,4.65,3.78,13.15,13.15,0,0,1,2.86,5.52c.25,1,.46,2.22,1.32,2.75,1.17.74,2.59-.26,3.75-1A12.15,12.15,0,0,1,199,75.54l-.54-.65c-7.78-8.89-18.33-14.31-28.26-20.3-13-7.84-31.8-19.52-43.17-29.79a11.82,11.82,0,0,0-15.66-.64,12.82,12.82,0,0,0-4.08,7.21,14,14,0,0,1,1.14-1.06C111.48,27.81,115.8,25.83,119,28.09Z"/><path class="cls-2" d="M198.31,82.22c-4.21-1.08-8.83,1.92-10.34,6.24a13,13,0,0,1-1.19,3.08c-1.37,2.06-4.11,2.27-6.37,3-4.48,1.53-7.72,5.73-12,7.72-4.63,2.13-10.08,1.5-14.71,3.64a5.07,5.07,0,0,0-2.24,1.75,7.78,7.78,0,0,0-.83,2.63,22,22,0,0,1-1.14,3.67,309.8,309.8,0,0,0,46.76-20.6c2.38-1.31,4.89-2.82,6.09-5.37a7.42,7.42,0,0,0,.61-2.12A7.78,7.78,0,0,0,198.31,82.22Z"/><path class="cls-3" d="M184.47,78.61c-3.32-1.59-7.29-3.13-8.43-6.81-.36-1.19-.39-2.54-1.12-3.52-1.46-2-4.56-1.16-6.5-2.6-1.6-1.17-2-3.59-3.63-4.78s-3.49-.81-5.16-1.53c-3-1.27-4-5.19-6.37-7.55-2.2-2.2-5.45-2.91-7.59-5.17-2.74-2.87-3.29-7.85-6.65-9.84-4-2.36-8.87,1-13.35.33-3.32-.49-6-3.1-9-4.51s-7.93,0-8.82,3.43C86.4,56,68.36,79.62,50.76,103.39q-5.49,7.41-10.93,14.86-4.28,5.84-8.54,11.7c-1.37,1.88-2.79,4.39-1.66,6.44s3.88,2,6,1.29S40,136,42,136.82a19.57,19.57,0,0,1,2.66,1.82,6.39,6.39,0,0,0,7.84-.9c1.73-1.75,3.23-4.78,5.55-4.15.82.22,1.46.91,2.27,1.18,2.77,1,4.58-2.89,6.43-5.29C69.6,125.8,74.5,125,79,124.36L96.5,122a19.43,19.43,0,0,1,7-.07c3.89.92,7.1,4.18,11.07,4.69,9.26,1.21,14.88-12.4,24.16-13.41a29.21,29.21,0,0,0,4.59-.38c1.93-.54,3.5-2,5.3-2.94a24.8,24.8,0,0,1,6-1.74c11.47-2.56,21.61-9.44,31.46-16.19,1.79-1.22,3.72-2.64,4.27-4.83C191.36,83.43,187.79,80.2,184.47,78.61Z"/><path class="cls-4" d="M63.44,121.72a18.85,18.85,0,0,1-8.11,1.42,7.29,7.29,0,0,0-3.16.22,2.46,2.46,0,0,0-1.51,2,12.4,12.4,0,0,1-7.16,1.08c-1.79-.28-3.6-1-5.37-.52a2.09,2.09,0,0,0-1.26.75c-.7,1,.06,2.49,1.14,3a8,8,0,0,0,3.44.28,3.48,3.48,0,0,1,3.12,1.28,18.2,18.2,0,0,1,.76,2.11A2.77,2.77,0,0,0,47.89,135c2.38-.09,3.51-3.11,5.37-4.7a9.07,9.07,0,0,1,5.4-1.74,17.07,17.07,0,0,0,5.65-.92A5,5,0,0,0,67.5,123a2.32,2.32,0,0,0-.42-1.26C66.25,120.68,64.66,121.22,63.44,121.72Z"/><path class="cls-4" d="M163,75.79a18.23,18.23,0,0,1-3.3-1.25c-1.59-1-2.37-3-3.51-4.53s-3.25-2.75-4.76-1.65c-1.52-3.23-5.87-4.56-8.74-2.59a1.63,1.63,0,0,0-.87,1.51,1.7,1.7,0,0,0,.81,1c2.3,1.61,5.17,3.45,5.13,6.39-.06,4.72-7.42,6-8.07,10.65-.44,3.14,2.46,6.64.7,9.21-.52.75-1.34,1.21-1.84,2a4,4,0,0,0-.07,3.85,11.19,11.19,0,0,0,2.43,3.08c.85.85,2.07,1.77,3.09,1.15a2.74,2.74,0,0,0,1-2c.55-3.66-.45-7.47.37-11.07a12.36,12.36,0,0,1,5.4-7.52,16.22,16.22,0,0,1,8.75-2.38,10.72,10.72,0,0,0,3.71-.32,3,3,0,0,0,2.09-2.92A3.39,3.39,0,0,0,163,75.79Z"/><path class="cls-4" d="M117,84.83c-.51.13-1.12.37-1.49,0a1,1,0,0,1-.18-.3l.73-.24-.82,0,0-.06a1.64,1.64,0,0,0-2.07-.82,1.68,1.68,0,0,0-.89,1.1,3,3,0,0,0-1.91.79,2.28,2.28,0,0,0,.25,3,3.09,3.09,0,0,0,3,.6,6.6,6.6,0,0,1,2.56-.6c.86.12,1.59.82,2.45.81,1.22,0,2-1.68,1.53-2.86A2.66,2.66,0,0,0,117,84.83Z"/><path class="cls-4" d="M99.43,73.75a4.14,4.14,0,0,0,1.36.18c.92,0,2-.24,2.34-1.14a2,2,0,0,0-.85-2.18,20.69,20.69,0,0,0-2.12-1.16c-.46-.28-.92-.8-.75-1.33a1.18,1.18,0,0,1,1-.68c.85-.16,1.73-.1,2.58-.31a2.34,2.34,0,0,0,1.84-1.72,2.15,2.15,0,0,0-1.08-2.11,4.52,4.52,0,0,0-2.35-.5,2.79,2.79,0,0,0-2,.71,11.08,11.08,0,0,0-8.24-.78c-.41.12-.91.42-.84.87a1,1,0,0,0,.3.49,11.76,11.76,0,0,0,3.94,2.74c.4.17.87.38,1,.83.13.63-.56,1.08-1.15,1.24a7.63,7.63,0,0,0-2.55.91,1.88,1.88,0,0,0-.6,2.47,1.91,1.91,0,0,0,2.28.25,5.67,5.67,0,0,1,2.31-.81C97.16,71.77,98.1,73.29,99.43,73.75Z"/><path class="cls-4" d="M100.75,75.41c-1.94-.61-3.7-.82-5.49.32-.44.28-.28,1.09.27,1.06,3.56-.17,7.6,4.46,11.11,2.16a.78.78,0,0,0,.14-1.16C105.32,76.25,102.67,76,100.75,75.41Z"/><path class="cls-4" d="M109.57,69.27c-1.26-.82-4.11-1.43-5.14,0a.76.76,0,0,0,0,.76,3,3,0,0,0,1.93,1.12,14.53,14.53,0,0,0,2.55.67C110.27,72,110.58,69.93,109.57,69.27Z"/><path class="cls-4" d="M71.8,94.32a1.46,1.46,0,0,0,1.28-.78c.81-1.46-.84-2.47-1.84-3.07-.68-.39-2.34-1.13-2.36-2.11a1.06,1.06,0,0,0-1.3-1.06c-1.87.67-1.68,3.08-.53,4.38A7.33,7.33,0,0,0,71.8,94.32Z"/><path class="cls-4" d="M72.27,119.1c1.06-1.33.06-3.36-1.61-2.94s-3.49-.91-5.29-.27c-1.37.49-2.67,2.06-1.81,3.59a.94.94,0,0,0,1.51.2c.4-.46.6-.7,1.22-.59a16.73,16.73,0,0,1,2.11.87A3.55,3.55,0,0,0,72.27,119.1Z"/><path class="cls-4" d="M73.68,121.5a3.16,3.16,0,0,0-.87,0c-.22,0-.45.15-.67.21a8.56,8.56,0,0,1-1.59.29.9.9,0,0,0,0,1.8,4.88,4.88,0,0,0,2.08-.2,2.21,2.21,0,0,0,1.49-1.23A.55.55,0,0,0,73.68,121.5Z"/><path class="cls-4" d="M134.79,91a8.78,8.78,0,0,0-2.57-.67,6.86,6.86,0,0,0-2.95-.19c-.73.17-3.29,1.79-1.79,2.77a4.48,4.48,0,0,0,1.3.41c.64.18,1.26.43,1.9.62,1.33.39,2.86.84,4.11,0A1.79,1.79,0,0,0,134.79,91Z"/><path class="cls-4" d="M64,100.56c1.28,1.13,2.48,2.64,4.14,2.73.62,0,1.24-.15,1.85-.07,3,.36,3.29,5.76,6.23,6.35a4.24,4.24,0,0,0,2.64-.59c1.45-.71,3-2.32,2.27-3.81-.56-1.1-2-1.19-3.08-1.62-3-1.19-4.75-5.72-8-5.38-1.25.13-2.47,1-3.67.66s-1.72-1.81-2-3.09a18.79,18.79,0,0,1-.21-5.5c.18-1.58.55-3.21.1-4.73l0-.1q-4.63,6-9.18,12.15A13.26,13.26,0,0,1,64,100.56Z"/><path class="cls-4" d="M105.79,48.53c1.31.36,2.88,1.34,2.58,2.74a2.66,2.66,0,0,1-1.22,1.5,10.77,10.77,0,0,1-4.69,1.78,2.12,2.12,0,0,0-1.12.35c-.89.73,0,2.36,1.16,2.56s2.24-.32,3.37-.27A3.59,3.59,0,0,1,109,59.61c.29.85.29,1.8.66,2.62.76,1.68,2.91,2.19,4.6,1.63a13.26,13.26,0,0,0,4.37-3.1c1.34-1.21,2.85-2.4,4.61-2.56a8.88,8.88,0,0,1,4,.85l8.37,3.18a3.59,3.59,0,0,0,2.41.31c1.5-.55,1.64-2.95.65-4.27s-2.62-1.84-4.12-2.4a36.45,36.45,0,0,1-8.67-4.65c-1.91-1.37-3.76-3-6-3.57s-4.8-.2-6.74-1.56c-.91-.64-1.57-1.61-2.42-2.33-1.68-1.44-5.36-2.11-8.45-2.28-2,2-4,4-6,6.08A32,32,0,0,1,105.79,48.53Z"/><path class="cls-4" d="M113.36,120.12c-.72-3.27-3.78-6-3.18-9.28a18.47,18.47,0,0,1,1.49-3.57c.89-2.21.4-5.35-1.73-6.16-1.66-.64-3.42.4-5,1.15a16.79,16.79,0,0,1-9.12,1.45c-1.14-.14-2.7-.14-3,1s.84,1.94,1.84,2.26c1.6.51,3.29.55,4.91,1a11.25,11.25,0,0,1,7.36,6.79,17.85,17.85,0,0,1,.64,8.85,33.49,33.49,0,0,0,5.28,2.59A13.26,13.26,0,0,0,113.36,120.12Z"/><path class="cls-5" d="M184.47,78.61c-3.32-1.59-7.29-3.13-8.43-6.81-.36-1.19-.39-2.54-1.12-3.52-1.46-2-4.56-1.16-6.5-2.6-1.6-1.17-2-3.59-3.63-4.78s-3.49-.81-5.16-1.53c-3-1.27-4-5.19-6.37-7.55-2.2-2.2-5.45-2.91-7.59-5.17-2.74-2.87-3.29-7.85-6.65-9.84-4-2.36-8.87,1-13.35.33-3.32-.49-6-3.1-9-4.51a7.18,7.18,0,0,0-7.73,1.5,4.89,4.89,0,0,1,1.71,1.43c.82,1.08,1.29,2.52,2.42,3.22,1.39.87,3.15.24,4.69-.27s3.48-.79,4.55.5c1.32,1.6.37,4.55,1.92,5.89,1,.85,2.42.54,3.68.41s2.87.25,3.13,1.56c.11.56-.07,1.15,0,1.71.23,1.27,1.73,1.74,2.94,1.67s2.53-.41,3.6.21c1.76,1,1.65,3.8,2.88,5.49,2.26,3.09,7.54,1,10.16,3.8,1.38,1.46,1.58,3.87,3,5.27s3.34,1.36,4.9,2.31c2.2,1.32,3.27,4.19,5.48,5.48,1.27.73,2.78.86,4.09,1.5s2.47,2.2,1.94,3.63c-.67,1.8-3.54,2.22-3.53,4.15,0,1.56,1.89,2.14,3.33,2.44s3.21,1.56,2.58,3c-.4.9-1.71,1.43-1.47,2.4a1.47,1.47,0,0,0,.55.73c1.37,1.09,3.16,1.36,4.72,2.13s3,2.48,2.53,4.22c2.49-1.62,4.95-3.3,7.39-5,1.79-1.22,3.72-2.64,4.27-4.83C191.36,83.43,187.79,80.2,184.47,78.61Z"/><path class="cls-6" d="M130.51,38.54c3.05.6,6.26,1.79,8,4.52.81,1.27,1.24,2.79,2,4.11a8.53,8.53,0,0,0,7.17,4.36c1.09,0,2.27-.17,3.18.45a6.12,6.12,0,0,1,1.28,1.44,7.72,7.72,0,0,0,4.17,2.73,26.85,26.85,0,0,0-3-4.33c-2.2-2.2-5.45-2.91-7.59-5.17-2.74-2.87-3.29-7.85-6.65-9.84-3.92-2.34-8.78.93-13.24.34l.25.15A15.38,15.38,0,0,0,130.51,38.54Z"/><path class="cls-6" d="M184.47,78.61c-3.32-1.59-7.29-3.13-8.43-6.81-.36-1.19-.39-2.54-1.12-3.52-1.46-2-4.56-1.16-6.5-2.6h0a1.86,1.86,0,0,0,.1.31c.87,1.76,2.68,2.71,4.17,3.91s2.84,3.19,2.17,5a20,20,0,0,0-1,2c-.42,1.72,1.11,3.19,2.38,4.34s2.51,3.11,1.51,4.53c-.31.44-.79.73-1.06,1.2-.78,1.4.76,2.91,2,3.84a13.21,13.21,0,0,1,3.57,3.73L186.16,92c1.79-1.22,3.72-2.64,4.27-4.83C191.36,83.43,187.79,80.2,184.47,78.61Z"/><path class="cls-7" d="M114.26,44.81c-1.41-2.73-4.94-3.2-7.84-2.76a22.57,22.57,0,0,0-6.15,1.83l-16.09,17a7.29,7.29,0,0,0,5.85.75,57.65,57.65,0,0,0,5.73-2.06c3.38-1.18,7-1.56,10.37-2.71s6.75-3.32,8.14-6.8A6.43,6.43,0,0,0,114.26,44.81Z"/><path class="cls-7" d="M88.66,65.7a1.65,1.65,0,0,0-.66-.4,14.5,14.5,0,0,0-4-1.13,4.87,4.87,0,0,0-3.89,1.3C74.7,70.35,69.49,76.55,64.79,82.15a2,2,0,0,0-.67,1.74,1.49,1.49,0,0,0,.65.79c1.59,1,3.77.22,5.07-1.23s2-3.36,2.89-5.1,2.21-3.46,4-3.91a16.8,16.8,0,0,1,2.47-.19c2.41-.2,4.58-1.59,6.54-3.1,1.47-1.13,3-2.59,3.1-4.52A1.42,1.42,0,0,0,88.66,65.7Z"/><path class="cls-7" d="M63.67,99.14a9.76,9.76,0,0,0-8.12.5,28.3,28.3,0,0,0-6.79,5.16c-5.38,3.36-10.1,8.7-13.63,14.17a3.37,3.37,0,0,0-.74,2.72c.38,1.19,1.81,1.5,3,1.58a76.78,76.78,0,0,0,11.35-.06c4.17-.33,8.4-1,12.11-3.06a15,15,0,0,0,7.75-9.9C69.46,105.9,67.52,100.86,63.67,99.14Z"/><path class="cls-7" d="M111.28,86.09a10.07,10.07,0,0,0-4-5.51,14.93,14.93,0,0,0-4.67-1.68l-5.49-1.32-.31-.18c-4.14-.29-8.36-.53-12.39.52s-7.92,3.57-9.76,7.52C72,91,74.66,98.56,80,101a19.83,19.83,0,0,0,6.9,1.39,91.56,91.56,0,0,0,11.23.29,18.24,18.24,0,0,0,6.85-1.41C110.21,98.84,113.11,91.84,111.28,86.09Z"/><path class="cls-7" d="M146.1,71.47c-2.4-4.87-8.49-7.3-13.22-9.53a20.82,20.82,0,0,0-16.34,1.86c-3,1.73-5.83,4.64-6,8.27-.16,4.11,3.12,7.44,6.48,9.48a33.75,33.75,0,0,0,17.55,4.66c2.47,0,5.06-.3,7.1-1.78a14.19,14.19,0,0,0,3.83-5A10.23,10.23,0,0,0,147,75.22,7.54,7.54,0,0,0,146.1,71.47Z"/><path class="cls-7" d="M107.76,124a35.55,35.55,0,0,0-2.34-10.66c-1.45-3.33-3.91-6.31-7.15-7.55a15.34,15.34,0,0,0-8.5-.25c-3.57.71-7.2,2-9.75,4.78a20.37,20.37,0,0,0-4.1,8,55.41,55.41,0,0,0-2.46,17.46c5.45-.05,12.33-2.79,17.48-4.69,3.64-1.34,7.74-3.11,11.14-1.2a7.75,7.75,0,0,0,2,1.05c1.43.29,2.83-.89,3.37-2.33A10.14,10.14,0,0,0,107.76,124Z"/><path class="cls-7" d="M144.42,102.28a15,15,0,0,0-4.7-6.81c-5-4.36-12.31-6.15-18.2-3.26-4.17,2-7.23,6.2-8.69,10.82a29.84,29.84,0,0,0-.51,14.46c.34,1.75,1,3.77,2.67,4.23,5.18-1.22,10.26-6.7,15-9.2,4.29-2.27,9.31-3.09,13.08-6.24a4,4,0,0,0,1.55-2.3A3.8,3.8,0,0,0,144.42,102.28Z"/><path class="cls-7" d="M165.63,82.57a15.69,15.69,0,0,0-14,8.27c-1.82,3.52-2.24,7.66-2.26,11.67,0,2,.58,4.61,2.46,4.72a3.72,3.72,0,0,0,2.07-.77A239.51,239.51,0,0,1,181.17,92C177.54,87.42,171.23,82.65,165.63,82.57Z"/><path class="cls-8" d="M84.18,60.89a7.29,7.29,0,0,0,5.85.75,25.22,25.22,0,0,0,3.43-1.17c.25-1.91,1.56-3.71,1.11-5.58-.18-.73-.62-1.46-.43-2.18a2.33,2.33,0,0,1,.48-.82,21.7,21.7,0,0,1,5.55-5c.75-.47,1.65-1.11,1.58-2a1.84,1.84,0,0,0-.78-1.25l-.7.29Z"/><path class="cls-8" d="M83.63,68.41A13.91,13.91,0,0,0,87.86,67a4.47,4.47,0,0,0,1-.87,1.17,1.17,0,0,0-.18-.41,1.65,1.65,0,0,0-.66-.4,14.5,14.5,0,0,0-4-1.13,4.87,4.87,0,0,0-3.89,1.3C74.7,70.35,69.49,76.55,64.79,82.15a2,2,0,0,0-.67,1.74,1.49,1.49,0,0,0,.65.79,3.45,3.45,0,0,0,3.51,0A20.88,20.88,0,0,1,83.63,68.41Z"/><path class="cls-8" d="M63.67,99.14a9.76,9.76,0,0,0-8.12.5A17.67,17.67,0,0,0,53.34,101a9.81,9.81,0,0,1,3.85.41,5,5,0,0,1,3.49,4.39c0,2.17-1.7,3.9-3.45,5s-3.75,2-5,3.73a1.87,1.87,0,0,0-.42,1.12A1.73,1.73,0,0,0,52.8,117a12.52,12.52,0,0,0,3.14.94,3.49,3.49,0,0,1,2.55,1.95,2.77,2.77,0,0,1,.11,1.34,20.82,20.82,0,0,0,2.25-1,15,15,0,0,0,7.75-9.9C69.46,105.9,67.52,100.86,63.67,99.14Z"/><path class="cls-8" d="M77.75,84.16a12.91,12.91,0,0,1,12.32-1.45c2,.81,3.76,2.12,5.83,2.5s4.26-.22,6.37.05,4.4,2,4.1,4.23c.92-2,0-4.58-1.67-6a11.26,11.26,0,0,0-5.91-2.24c-2.17-.31-4.8-.78-5.56-3a3.2,3.2,0,0,1-.15-1.11,30.14,30.14,0,0,0-8.69.73c-4,1-7.92,3.57-9.76,7.52a10.67,10.67,0,0,0-.93,3.41A13.92,13.92,0,0,1,77.75,84.16Z"/><path class="cls-8" d="M145.54,79.47A10.23,10.23,0,0,0,147,75.22a7.54,7.54,0,0,0-.91-3.75c-2.4-4.87-8.49-7.3-13.22-9.53a20.82,20.82,0,0,0-16.34,1.86c-3,1.73-5.83,4.64-6,8.27a1.08,1.08,0,0,0,0,.18,11.58,11.58,0,0,1,5.68-3.32c3.13-.81,6.4-.66,9.61-.93s6.25-.93,9.25-.1,5.79,3.82,5.22,7.06c-.51,2.91-3.52,5.27-2.88,8.16a3.87,3.87,0,0,0,1.92,2.46,8,8,0,0,0,2.33-1.15A14.19,14.19,0,0,0,145.54,79.47Z"/><path class="cls-8" d="M85.11,122.31c2,.09,4.26-.23,5.74-1.73.92-.92,1.53-2.27,2.71-2.78s2.46,0,3.69.23,2.82,0,3.22-1.31c.52-1.69-1.53-3-3.18-3.19s-3.76-.52-4.24-2.22,1-3.09,2.41-3.84a12.73,12.73,0,0,1,3.74-1.27,8.65,8.65,0,0,0-.93-.43,15.34,15.34,0,0,0-8.5-.25c-3.57.71-7.2,2-9.75,4.78a20.37,20.37,0,0,0-4.1,8,54.51,54.51,0,0,0-1.59,6.56A8.48,8.48,0,0,1,79,122.18C81,121.82,83.06,122.23,85.11,122.31Z"/><path class="cls-8" d="M126.29,97.33a51,51,0,0,0,4.91,1.58,4.89,4.89,0,0,0,4.73-1.36.79.79,0,0,0-.11-1.23,6.38,6.38,0,0,0-3.89-1.61,9.84,9.84,0,0,1-4.08-1.14,3.6,3.6,0,0,1-1.6-2.69,13.79,13.79,0,0,0-4.73,1.33,17,17,0,0,0-7.52,7.93A13.7,13.7,0,0,1,126.29,97.33Z"/><path class="cls-8" d="M164.72,94.11a15.51,15.51,0,0,1,4.36-2,1.6,1.6,0,0,0,1.11-.87c.22-.7-.44-1.34-1.07-1.64-2.25-1.11-4.89-.76-7.28-.07s-4.72,1.71-7.19,1.91c-1,.08-2.32-.19-2.61-1.23-.12.21-.27.41-.38.62-1.82,3.52-2.24,7.66-2.26,11.67,0,2,.58,4.61,2.46,4.72a3.72,3.72,0,0,0,2.07-.77c3.25-2,6.55-3.91,9.88-5.75a7.22,7.22,0,0,1-1-2.28A4.65,4.65,0,0,1,164.72,94.11Z"/><path class="cls-9" d="M84.59,91a2.61,2.61,0,0,0,2.86,0,2.07,2.07,0,0,0,0-3.44,2.59,2.59,0,0,0-2.86,0,2,2,0,0,0,0,3.35Z"/><path class="cls-9" d="M90.19,89.34l.12.08c1.13.85,2.72-.84,1.92-2l-.08-.12A1.41,1.41,0,0,0,89.9,87a1.61,1.61,0,0,0,.29,2.39Z"/><path class="cls-9" d="M92.78,94c1.92,0,1.93-3.17,0-3.17S90.86,94,92.78,94Z"/><path class="cls-9" d="M97.18,92.3A1.9,1.9,0,0,0,98,91.15a1.16,1.16,0,0,0-1-1.46,1.34,1.34,0,0,0-1,.31,1.42,1.42,0,0,0-.45,1.82,1.23,1.23,0,0,0,1.71.48Z"/><path class="cls-9" d="M99.42,90.82a.79.79,0,0,0,0-1.57.79.79,0,0,0,0,1.57Z"/><path class="cls-9" d="M97.35,88.71a2,2,0,1,0-1.89-2,2,2,0,0,0,1.89,2Z"/><path class="cls-9" d="M105,95.18c2.26,0,2.26-3.72,0-3.72s-2.26,3.72,0,3.72Z"/><path class="cls-9" d="M92.78,97.26c1.82,0,1.83-3,0-3s-1.82,3,0,3Z"/><path class="cls-9" d="M85.51,91.77l.43.15a1.84,1.84,0,0,0-2.63,2.14,1.88,1.88,0,0,0,1.25,1.33,1.8,1.8,0,0,0,2-.87,2.72,2.72,0,0,0,.34-.78,1.55,1.55,0,0,0-1.41-2Z"/><path class="cls-9" d="M80.58,73.25l0-.14A1.26,1.26,0,0,0,79,71.35l-.13.06a1.4,1.4,0,0,0-.26,2.11,1.23,1.23,0,0,0,2-.27Z"/><path class="cls-9" d="M81.77,70.27a1.86,1.86,0,0,0,1.2-.35,1.23,1.23,0,0,0-.58-2.25,1.9,1.9,0,0,0-1.2.31,1.25,1.25,0,0,0,.58,2.29Z"/><path class="cls-9" d="M98,48.76c-.6,2.12,2.47,3.08,3,1s-2.45-3-3-1Z"/><path class="cls-9" d="M95.42,52.37l-.07.13a1,1,0,0,0,1.36,1.44l.13-.07c1.52-.86-.61-3.14-1.42-1.5Z"/><path class="cls-9" d="M93.72,55.43a1.3,1.3,0,0,0,0-2.59,1.3,1.3,0,0,0,0,2.59Z"/><path class="cls-9" d="M100.68,53.27a1.24,1.24,0,0,0,0-2.46,1.24,1.24,0,0,0,0,2.46Z"/><path class="cls-9" d="M99.87,54.89a3.25,3.25,0,0,0-1.33.39,1.44,1.44,0,0,0,0,2.4,1.69,1.69,0,0,0,2.56-1.06,1.36,1.36,0,0,0-1.23-1.73Z"/><path class="cls-9" d="M96.27,55.33,96,55.2A1.52,1.52,0,0,0,93.84,57a1.46,1.46,0,0,0,2.69.37c0-.1.1-.21.16-.31a1.3,1.3,0,0,0-.42-1.7Z"/><path class="cls-9" d="M121.77,73c2,0,2-3.24,0-3.24s-2,3.24,0,3.24Z"/><path class="cls-9" d="M127.13,71.92a2.49,2.49,0,0,0,.77.08,1.42,1.42,0,0,0,0-2.83,2.22,2.22,0,0,0-.77.07,1.43,1.43,0,0,0,0,2.68Z"/><path class="cls-9" d="M127.33,79A2.83,2.83,0,0,0,128.45,78a1.72,1.72,0,0,0-1.38-2.55,2.74,2.74,0,0,0-1.51.42,2,2,0,0,0-.63,2.55,1.72,1.72,0,0,0,2.4.66Z"/><path class="cls-9" d="M133.71,77.22a3,3,0,0,0,1.24-.66A1.59,1.59,0,0,0,134.3,74a3.05,3.05,0,0,0-1.41.09c-1.91.54-1.1,3.7.82,3.15Z"/><path class="cls-9" d="M133.91,71.46a1.67,1.67,0,0,0,2.46.13,1.71,1.71,0,0,0,0-2.15,1.52,1.52,0,0,0-2.3-.46,1.73,1.73,0,0,0-.16,2.48Z"/><path class="cls-9" d="M137.09,73.21a1.66,1.66,0,0,0,.88.52,1.15,1.15,0,0,0,1.36-.71,1.26,1.26,0,0,0-.48-1.53,1.59,1.59,0,0,0-1-.24,1.18,1.18,0,0,0-.77,2Z"/><path class="cls-9" d="M133.3,81.72c1.73,0,1.73-2.85,0-2.85s-1.73,2.85,0,2.85Z"/><path class="cls-9" d="M128.68,75.34l.11.09c1.06.8,2.55-.79,1.8-1.91l-.08-.12a1.31,1.31,0,0,0-2.1-.29,1.49,1.49,0,0,0,.27,2.23Z"/><path class="cls-9" d="M117.92,77.65a1.33,1.33,0,0,0,0-2.65c-1.6,0-1.61,2.65,0,2.65Z"/><path class="cls-9" d="M116.47,74.74a1.07,1.07,0,0,0,0-2.13,1.07,1.07,0,0,0,0,2.13Z"/><path class="cls-9" d="M118.13,70.5a1,1,0,0,0,0-2,1,1,0,0,0,0,2Z"/><path class="cls-9" d="M80.73,90.56a1.22,1.22,0,0,0,0-2.43,1.22,1.22,0,0,0,0,2.43Z"/><path class="cls-9" d="M74.81,92.11l-.09.13c-.81,1.07.41,2.37,1.42,1.51l.12-.1c1-.88-.62-2.63-1.45-1.54Z"/><path class="cls-9" d="M81.15,98.81c1.56,0,1.57-2.59,0-2.59a1.3,1.3,0,0,0,0,2.59Z"/><path class="cls-9" d="M98.07,100.05l.1-.12a1.33,1.33,0,0,0,0-1.73l-.1-.12c-.76-1-2.23-.15-2.23,1s1.48,1.94,2.23,1Z"/><path class="cls-9" d="M122.08,82.32c1.65,0,1.65-2.72,0-2.72s-1.65,2.72,0,2.72Z"/><path class="cls-9" d="M133.09,84.49a1.33,1.33,0,0,0,0-2.65c-1.6,0-1.61,2.65,0,2.65Z"/><path class="cls-9" d="M138.5,78.18a1.2,1.2,0,0,0,0-2.39,1.2,1.2,0,0,0,0,2.39Z"/><path class="cls-9" d="M122.29,105.17c1.78,0,1.78-2.94,0-2.94s-1.79,2.94,0,2.94Z"/><path class="cls-9" d="M116.89,108.77c1.86,0,1.86-3.08,0-3.08s-1.87,3.08,0,3.08Z"/><path class="cls-9" d="M116.63,113.3a1.73,1.73,0,0,0,2.7-1.14c.16-.91-.59-2.13-1.6-1.7h.14a.87.87,0,0,0-.45.09s-.34.1-.11.08a1.46,1.46,0,0,0-.68,2.66Z"/><path class="cls-9" d="M127.9,109c1.84,0,1.84-3,0-3s-1.85,3,0,3Z"/><path class="cls-9" d="M133.3,106.74a1.06,1.06,0,0,0,0-2.11,1.06,1.06,0,0,0,0,2.11Z"/><path class="cls-9" d="M128.67,102.78A1.46,1.46,0,0,0,126,101.6a1.61,1.61,0,0,0,.51,2.1,1.45,1.45,0,0,0,2.13-.92Z"/><path class="cls-9" d="M125.34,113.79a1.87,1.87,0,0,0,.36-2.47,1.72,1.72,0,0,0-2.39-.33,1.86,1.86,0,0,0-.47,2.62,1.63,1.63,0,0,0,2.5.18Z"/><path class="cls-9" d="M141.82,106.38c2.18,0,2.18-3.59,0-3.59s-2.18,3.59,0,3.59Z"/><path class="cls-9" d="M138.68,101.65l.42.12a1.65,1.65,0,0,0,2-1.21A1.81,1.81,0,0,0,140,98.41l-.41-.17a1.67,1.67,0,0,0-2,1.24,1.81,1.81,0,0,0,1.16,2.17Z"/><path class="cls-9" d="M131.22,111.78c1.77,0,1.77-2.91,0-2.91s-1.76,2.91,0,2.91Z"/><path class="cls-9" d="M116.89,105c1.88,0,1.88-3.11,0-3.11s-1.89,3.11,0,3.11Z"/><path class="cls-9" d="M84.54,127.84l.1-.12a1.3,1.3,0,0,0,0-1.68l-.1-.12c-.73-1-2.18-.13-2.18,1s1.46,1.91,2.18,1Z"/><path class="cls-9" d="M90.7,124.67v.08a1.67,1.67,0,0,0,1.59,1.68h.15c2.06.08,2-3.52,0-3.38a2.5,2.5,0,0,0-1,.27,1.54,1.54,0,0,0-.72,1.34Z"/><path class="cls-9" d="M95.69,127.09l-.15-.17c-1-1.19-2.63.09-2.39,1.48l0,.24a1.48,1.48,0,0,0,2.2.94,1.67,1.67,0,0,0,.3-2.49Z"/><path class="cls-9" d="M89,130.11c.68-.55,1.5-1.16,1.38-2.2a1.5,1.5,0,0,0-1-1.35,2,2,0,0,0-2.05.59,1.83,1.83,0,0,0-.58,2.34,1.58,1.58,0,0,0,2.21.62Z"/><path class="cls-9" d="M99.67,126.37l.21.08c1.54.6,2.33-1.83,1.07-2.7l-.19-.14a1.39,1.39,0,0,0-2,.72,1.55,1.55,0,0,0,.92,2Z"/><path class="cls-9" d="M101.55,122.29l.19-.15a1.87,1.87,0,0,0,.69-2.25,1.67,1.67,0,0,0-2-1l-.22.07a1.88,1.88,0,0,0-1.13,2.49,1.67,1.67,0,0,0,2.46.88Z"/><path class="cls-9" d="M104,120.08c2.2,0,2.2-3.62,0-3.62s-2.2,3.62,0,3.62Z"/><path class="cls-9" d="M105.25,126.35c1.76,0,1.77-2.91,0-2.91s-1.77,2.91,0,2.91Z"/><path class="cls-9" d="M94.86,124c1.8,0,1.81-3,0-3s-1.81,3,0,3Z"/><path class="cls-9" d="M82.18,132.31a1,1,0,0,0,0-2,1,1,0,0,0,0,2Z"/><path class="cls-9" d="M47.9,118.29c1.63,0,1.63-2.69,0-2.69s-1.63,2.69,0,2.69Z"/><path class="cls-9" d="M52.4,108.39l-.2.13a1.55,1.55,0,0,0-.5,2,1.38,1.38,0,0,0,1.9.52l.21-.09a1.55,1.55,0,0,0,.5-2,1.37,1.37,0,0,0-1.91-.54Z"/><path class="cls-9" d="M46.12,108c-1.43.23-1.62,2.3-.44,3a1.32,1.32,0,0,0,2-1.2c0-.14.05-1,0-.49,0,.23-.11.46-.17.7l.06-.09a1.39,1.39,0,0,0-.09-1.48,1.26,1.26,0,0,0-1.32-.47Z"/><path class="cls-9" d="M43.39,113l-.21.11a.75.75,0,0,0-.35.66.64.64,0,0,0,.21.53.71.71,0,0,0,.87.12l.21-.11c.82-.44.09-1.75-.73-1.31Z"/><path class="cls-9" d="M40.42,120a4.34,4.34,0,0,0,.72-.13,1.25,1.25,0,0,0,0-2.34,3.49,3.49,0,0,0-.72-.12c-1.57-.15-1.57,2.73,0,2.59Z"/><path class="cls-9" d="M50.27,110.81l-.12,0a1.45,1.45,0,0,0-.58,2.33,1.29,1.29,0,0,0,2.19-.61l.05-.13a1.3,1.3,0,0,0-1.54-1.63Z"/><path class="cls-9" d="M54.34,121.76c1.82,0,1.83-3,0-3s-1.82,3,0,3Z"/><path class="cls-9" d="M46.32,120.31a1.57,1.57,0,1,0-.92,2.41,1.68,1.68,0,0,0,.92-2.41Z"/><path class="cls-9" d="M53.3,106.32c1.84,0,1.85-3,0-3s-1.84,3,0,3Z"/><path class="cls-9" d="M58.7,110.31c1.87,0,1.87-3.07,0-3.07s-1.86,3.07,0,3.07Z"/><path class="cls-9" d="M160.4,89a2.36,2.36,0,0,0,1-1,1.75,1.75,0,0,0-.55-2.27,2.35,2.35,0,0,0-1.41-.34,2,2,0,0,0-1.76,2.46A1.83,1.83,0,0,0,160.4,89Z"/><path class="cls-9" d="M164.07,86.69l.15.16a1.2,1.2,0,0,0,1.93-.26,1.33,1.33,0,0,0-.73-1.92l-.23,0a1.24,1.24,0,0,0-1.12,2.06Z"/><path class="cls-9" d="M165.9,90a1.85,1.85,0,0,0,.93-.86c.29-.56.08-1.54-.63-1.64a2.06,2.06,0,0,0-1.5.32c-1.37.72-.17,2.9,1.2,2.18Z"/><path class="cls-9" d="M170.91,89.25h.21a1.24,1.24,0,0,0,0-2.46h-.21a1.24,1.24,0,0,0,0,2.46Z"/><path class="cls-9" d="M173.3,88.55h-.19a1.13,1.13,0,0,0,1.33-.7,1.23,1.23,0,0,0-.46-1.51,1.54,1.54,0,0,0-1.29-.13c-1.38.5-.83,2.73.61,2.34Z"/><path class="cls-9" d="M175.38,92.53l.21.08c1.22.51,1.9-1.48.86-2.17l-.19-.13c-1.35-.9-2.49,1.55-.88,2.22Z"/><path class="cls-9" d="M169.66,97.24c1.81,0,1.81-3,0-3s-1.8,3,0,3Z"/><path class="cls-9" d="M171.11,92.88a1.74,1.74,0,0,0,.82,1.52c1.37,1,3-1.25,1.76-2.43a4.22,4.22,0,0,0-.46-.38c-.91-.67-2.11.23-2.12,1.29Z"/><rect class="cls-10" width="232" height="164"/></g></g></svg>