<svg xmlns="http://www.w3.org/2000/svg" viewBox="0 0 232 164"><defs><style>.cls-1{isolation:isolate;}.cls-2{fill:#ec8b2d;}.cls-3{fill:#fdc071;}.cls-4{fill:#9cb219;}.cls-5{fill:#b8c766;}.cls-6{fill:#eb626c;}.cls-7{fill:#f2878f;}.cls-8{fill:#ff8900;}.cls-9{fill:#ff006e;}.cls-10{fill:#fa0;}.cls-11{fill:#ffce6b;}.cls-12{fill:#f4413d;}.cls-13{fill:#c01711;}.cls-14{fill:#497100;}.cls-15{opacity:0.5;mix-blend-mode:multiply;}.cls-16{fill:none;}</style></defs><title>Recurso 11</title><g class="cls-1"><g id="Capa_2" data-name="Capa 2"><g id="Capa_1-2" data-name="Capa 1"><path class="cls-2" d="M157.91,88.8c4.82-2.82,9.43-6,14.39-8.54C180.53,76,189.62,73.53,197.66,69a1.89,1.89,0,0,0-.19-.75A3.53,3.53,0,0,0,196.14,67a53.24,53.24,0,0,0-14.55-6.6c-16.63,7.5-38.68,16.85-56.37,21.28q-35.93,9-71.93,17.76c-3.51.86-7.73,2.46-8.16,6.06a8.26,8.26,0,0,0,.9,4.14A46.15,46.15,0,0,0,56.49,124.7q34-8.83,67.12-20.75C135.38,99.7,147.11,95.14,157.91,88.8Z"/><path class="cls-3" d="M172.3,80.26c-5,2.56-9.57,5.72-14.39,8.54-10.8,6.34-22.53,10.9-34.3,15.15Q90.55,115.88,56.49,124.7l.38.37a14.35,14.35,0,0,0,5.23,3.44,15.7,15.7,0,0,0,6.69.17c13.28-1.78,26-6.38,38.62-10.83Q146.34,104.14,185.79,92a7.92,7.92,0,0,0,3-1.38,6.13,6.13,0,0,0,1.44-2.07c2.37-5.09,1.54-11.63,5.24-15.84,1-1.1,2.29-2.39,2.24-3.7C189.62,73.53,180.53,76,172.3,80.26Z"/><path class="cls-4" d="M202.43,67.84c-.86-2.12-3.14-3.8-5.37-3.29a4.61,4.61,0,0,0-3-5.87,9.4,9.4,0,0,1-4.88,3.42c.18-2.47.3-5.16-1.13-7.18s-4.16-2.79-6.63-2.58a23.53,23.53,0,0,0-7.07,2.25,182.94,182.94,0,0,1-40.7,12.18c-11.34,2-23,3-33.58,7.64C90.64,78.59,79.7,89.71,71.93,96.5a205.06,205.06,0,0,0-39.6-2.38,3.81,3.81,0,0,1-.52,5.72c1.92-.48,2.7,2.59,1.8,4.36s-2.52,3.55-1.91,5.44c.21.67.69,1.24.89,1.91.58,1.9-1.14,3.64-2.39,5.18s-1.88,4.34-.06,5.14c1.45.63,3.29-.72,4.65.09s1,2.74.81,4.28.88,3.67,2.29,3c.56-.25.86-.87,1.3-1.29a2.45,2.45,0,0,1,3.92,1.81c0,1.07-.81,1.95-1.25,2.92s-.36,2.42.65,2.77a3.19,3.19,0,0,0,1.72-.15,4.87,4.87,0,0,1,5.47,3.23c.89-2.25,2.85-5,5-4,1.45.64,1.79,2.68,1.12,4.12A9.14,9.14,0,0,1,52.53,142a6.53,6.53,0,0,0,8.13-2.85c1,1.58,3,2.76,4.7,2s1.69-3.91-.16-4.11c2-.21,3.82.79,5.61,1.63s3.86,1.55,5.68.8,2.68-3.65,1-4.7c1.21,1,3-.47,3.62-1.92s1.47-3.31,3.06-3.28c1.95,0,3.25,3.11,5.06,2.39.93-.37,1.19-1.53,1.62-2.44a5.23,5.23,0,0,1,5.7-2.79,5.52,5.52,0,0,0-.76,3.08c.16,1.06,1.24,2,2.25,1.69,1.21-.43,1.3-2.24,2.38-2.94a4.88,4.88,0,0,1,2.56-.31,5.43,5.43,0,0,0,5-6.23c1.34,1.44,3.73-.33,4.34-2.2s.73-4.18,2.39-5.23c1.33-.83,3.39-.6,4.17-2,.5-.87.2-1.94.08-2.93a7.66,7.66,0,0,1,8-8.15,9.83,9.83,0,0,1-.81,7.81,9,9,0,0,0,9.6-2.73,16.79,16.79,0,0,1,2.72,4.64,3.53,3.53,0,0,0,2.23-.41,27.84,27.84,0,0,0-1.88-5.1c1.32-1,3,.45,4.19,1.54s3.65,1.57,4,0c1.74-1.69-.48-4.59-2.76-5.43s-5.19-1.36-6-3.66c-1-2.89,2.58-5.43,5.63-5.37a10.29,10.29,0,0,1,9.12,6.38c1.39,3.54,1.37,8.54,5,9.71,3.17,1,6.05-2.07,8-4.81,1-1.41,2-2.94,2-4.66,0-2.91-2.73-5.84-1.31-8.38s5.75-1.32,6.84,1.38.07,5.73-1,8.45c2.35,1.33,5.46.26,7.28-1.72s2.68-4.65,3.47-7.23c3-.54,5.5,3.83,8.35,2.79,1.38-.5,2-2,2.51-3.42.94-2.64,1.89-5.43,1.33-8.17-.39-1.94-1.52-3.69-1.79-5.65s.92-4.41,2.9-4.33c2.21.08,4.57,3.11,6,1.42A11.25,11.25,0,0,0,202.43,67.84Z"/><path class="cls-5" d="M188.33,64.12A2.66,2.66,0,0,0,190,66.66c.89.27,2-.09,2.69.55s.2,2.1-.71,2.65a24.34,24.34,0,0,1-3,1,5,5,0,0,0-2.1,6.67A7.94,7.94,0,0,0,191.57,81c1.14.37,2.32.62,3.49.89a24.43,24.43,0,0,1-1.44-4.41c-.26-2,.92-4.41,2.9-4.33,2.21.08,4.57,3.11,6,1.42a11.25,11.25,0,0,0-.1-6.75c-.86-2.12-3.14-3.8-5.37-3.29a4.61,4.61,0,0,0-3-5.87,9.4,9.4,0,0,1-4.88,3.42c0-.47.06-1,.08-1.44l-.13.33A7.73,7.73,0,0,0,188.33,64.12Z"/><path class="cls-5" d="M40,114.36c.7-1.48,0-3.75-1.6-3.81a8.48,8.48,0,0,0-2,.47c-.66.14-1.52-.09-1.65-.76a1.36,1.36,0,0,1,.19-.87c.5-1,1.34-1.85,1.93-2.82a3.26,3.26,0,0,0,.37-3.24c-.63-1.08-2-1.32-3.29-1.21a4,4,0,0,1-.35,2.08c-.9,1.77-2.52,3.55-1.91,5.44.21.67.69,1.24.89,1.91.58,1.9-1.14,3.64-2.39,5.18s-1.88,4.34-.06,5.14c1.31.57,2.93-.46,4.24-.07a9.75,9.75,0,0,1,2.3-3.86C37.82,116.78,39.28,115.84,40,114.36Z"/><path class="cls-5" d="M87.69,125.7c-2.17-.73-5.31.66-6.43-1.34-.6-1.09-.1-2.65-1-3.55s-2.55-.33-3.52.56A8.73,8.73,0,0,0,74,127.45a17.45,17.45,0,0,1-.11,3.76c-.32,1.21-1.5,2.36-2.71,2a2.17,2.17,0,0,0-2.93-1.4c-1.52.73-2.17,3.23-3.84,3-1.43-.2-1.65-2.16-1.53-3.6a8.85,8.85,0,0,0-.63-5c-.83-1.5-2.88-2.45-4.32-1.52a4,4,0,0,0-1.29,1.56c-1.38,2.53-2,5.4-2.93,8.13a2.2,2.2,0,0,1,1,.2c1.45.64,1.79,2.68,1.12,4.12A9.14,9.14,0,0,1,52.53,142a6.53,6.53,0,0,0,8.13-2.85c1,1.58,3,2.76,4.7,2s1.69-3.91-.16-4.11c2-.21,3.82.79,5.61,1.63s3.86,1.55,5.68.8,2.68-3.65,1-4.7c1.21,1,3-.47,3.62-1.92s1.47-3.31,3.06-3.28c1.95,0,3.25,3.11,5.06,2.39a2.7,2.7,0,0,0,1.28-1.63c0-.06,0-.13,0-.2C90.36,128.3,89.46,126.29,87.69,125.7Z"/><path class="cls-5" d="M188.42,93.37a3.55,3.55,0,0,1-2.08-3.61c.24-1.26,1.27-2.81.26-3.6a2.18,2.18,0,0,0-1.18-.32c-1.67-.09-3.53,0-4.71,1.21-.94.93-1.24,2.3-1.88,3.44s-2,2.16-3.19,1.58c-1.71-.84-.78-3.41-1-5.31a4.6,4.6,0,0,0-4.3-3.74,7.39,7.39,0,0,0-5.52,2.32,10.91,10.91,0,0,0-3,9.5c.28,1.6.91,3.3.24,4.78a2.93,2.93,0,0,1-5.55-.63,18.45,18.45,0,0,1,0-2.78c-.11-2.68-2.52-4.61-4.74-6.08-2.92-1.93-6.61-3.79-9.73-2.24a7.78,7.78,0,0,0-2.76,2.56,7.17,7.17,0,0,0-1.56,4.93,3.78,3.78,0,0,0,.39,1.22c.45-2.16,3.26-3.82,5.73-3.77a10.29,10.29,0,0,1,9.12,6.38c1.39,3.54,1.37,8.54,5,9.71,3.17,1,6.05-2.07,8-4.81,1-1.41,2-2.94,2-4.66,0-2.91-2.73-5.84-1.31-8.38s5.75-1.32,6.84,1.38.07,5.73-1,8.45c2.35,1.33,5.46.26,7.28-1.72s2.68-4.65,3.47-7.23c3-.54,5.5,3.83,8.35,2.79a2.9,2.9,0,0,0,1.19-.85A7.91,7.91,0,0,1,188.42,93.37Z"/><path class="cls-6" d="M186,57.2,137.34,71.35C120.65,76.2,104,81.05,87,85Q73.8,88.16,60.42,90.57c-6.92,2.17-16.27,4.63-23.07,7.16-3.18,1.19-6.91,3.2-6.86,6.59a1.7,1.7,0,0,0,.34,1.1,2.06,2.06,0,0,0,1.27.53c27,4.54,55.65,5.31,79.62,18.67l3.45-4.38,1.92,3c2.72-3.77,4-8.33,5.73-12.67,4-10.31,10.11-19.65,16.18-28.89a2.18,2.18,0,0,1,1.06-1,2.28,2.28,0,0,1,1.07,0q18.76,3.33,37.28,7.89a2.4,2.4,0,0,0,1.73,0,2.32,2.32,0,0,0,.88-1.27A73.48,73.48,0,0,0,186,57.2Z"/><path class="cls-7" d="M107.92,106.58a2.87,2.87,0,0,0-1,1.1c-.35.92.29,1.9,1,2.6a14.52,14.52,0,0,0,2.61,2.14,2,2,0,0,0,1,.38,2,2,0,0,0,1.19-.66,54.75,54.75,0,0,0,13-18.4C120.72,100.7,114.64,101.28,107.92,106.58Z"/><path class="cls-7" d="M36.11,105.39a9.72,9.72,0,0,1-5-1.68,3.33,3.33,0,0,1-.46-.46,4.74,4.74,0,0,0-.12,1.07,1.7,1.7,0,0,0,.34,1.1,2.06,2.06,0,0,0,1.27.53c27,4.54,55.65,5.31,79.62,18.67l1.75-2.22c-6.11-4.05-13.56-6.26-20.8-8C74.07,110.11,55,108,36.11,105.39Z"/><path class="cls-7" d="M175.39,87.79l3,.72a2.4,2.4,0,0,0,1.73,0,2.32,2.32,0,0,0,.88-1.27,73.76,73.76,0,0,0,4.88-21.58A114.89,114.89,0,0,1,175.39,87.79Z"/><path class="cls-8" d="M128.51,73.25c-5.29,1.25-10.56,2.58-15.84,3.92C97.39,81.05,76.48,85.93,61.2,89.81L46.26,95.46c-2.67,1-5.86,2.81-5.56,5.65l10.95,4a2.18,2.18,0,1,1,4.14,1.29,4.78,4.78,0,0,0,4.67,1.16c1.26-.39,2.45-1.32,3.75-1.06a2.26,2.26,0,0,1,1.1,3.59,155.75,155.75,0,0,1,23.17,9.32,3.65,3.65,0,0,1,4.2-.08,336.79,336.79,0,0,0,29.63-28.78c3.42-3.75,6.85-7.75,8.27-12.63a227,227,0,0,0,26.67,16,62.1,62.1,0,0,0,5.08-7.11c-1.19-1.14-2.36-3.24-1-4.17.66-.44,1.55-.25,2.32-.47a4.35,4.35,0,0,0,2-1.67L178.77,64.2A478.42,478.42,0,0,0,128.51,73.25Z"/><path class="cls-9" d="M97.75,108.06s.27,0,.63.28a1.84,1.84,0,0,1,.55.63,1.3,1.3,0,0,1,0,1.18,2.42,2.42,0,0,1-1,1,4.74,4.74,0,0,1-1.36.64,5.6,5.6,0,0,1-3.41,0,2.46,2.46,0,0,1-.9-.43,1,1,0,0,1-.31-.46,2,2,0,0,1-.16-.47,1.51,1.51,0,0,1,.17-1,2.22,2.22,0,0,1,.6-.68,5.93,5.93,0,0,1,2.63-.93,6.26,6.26,0,0,1,1.85,0c.44.09.65.26.62.29s-.24,0-.65,0a8.27,8.27,0,0,0-1.74.21,6,6,0,0,0-2.32,1,1.06,1.06,0,0,0-.49,1,1.19,1.19,0,0,0,.25.53,1.88,1.88,0,0,0,.65.3,4.92,4.92,0,0,0,5.1-1.15,1.21,1.21,0,0,0-.35-1.39C97.93,108.24,97.73,108.1,97.75,108.06Z"/><path class="cls-10" d="M152.45,84.66c-.62-1.11-5.83-3.4-6-.58a1.75,1.75,0,0,0,.56,1.08,5.41,5.41,0,0,0,4.25,1.94,1.72,1.72,0,0,0,1.15-.36A1.75,1.75,0,0,0,152.45,84.66Z"/><path class="cls-9" d="M78.14,106.59s.18,0,.41.12a1.27,1.27,0,0,1,.37.39.87.87,0,0,1,0,.78,2.45,2.45,0,0,1-1.43,1,3.45,3.45,0,0,1-2.11,0,1.5,1.5,0,0,1-.58-.29,1.11,1.11,0,0,1,.19-1.75,3.54,3.54,0,0,1,1.62-.55c.94-.13,1.56.16,1.49.27a11.55,11.55,0,0,0-1.41.21,3.7,3.7,0,0,0-1.32.57c-.18.17-.27.33-.23.5a.6.6,0,0,0,.11.24,1.21,1.21,0,0,0,.33.14,3.11,3.11,0,0,0,1.73.06,2.3,2.3,0,0,0,1.18-.65c.16-.25,0-.57-.16-.75S78.12,106.63,78.14,106.59Z"/><path class="cls-10" d="M91.64,105.49c-1.57.3-3.09.87-4.67,1.16a13.65,13.65,0,0,1-4.77,0c-2.09-.36-4.18-1.21-6.26-.78-1.37.28-2.59,1.1-4,1.43s-3.12-.08-3.55-1.41c-.14-.43-.13-.89-.3-1.31-.56-1.32-2.42-1.18-3.85-1.21a5.78,5.78,0,0,1-3.66-1.26,3.85,3.85,0,0,1-1.35-3.53,4.23,4.23,0,0,1,2.34-2.8,10.79,10.79,0,0,1,3.63-.92c2.6-.3,5.31-.41,7.64-1.59a2.66,2.66,0,0,0,1.26-1.1,2.86,2.86,0,0,0,.19-1.39c-.07-1.4-.28-2.79-.3-4.19-4.53,1.11-8.88,2.18-12.84,3.19L46.26,95.46c-2.67,1-5.86,2.81-5.56,5.65l10.95,4a2.18,2.18,0,1,1,4.14,1.29,4.78,4.78,0,0,0,4.67,1.16c1.26-.39,2.45-1.32,3.75-1.06a2.19,2.19,0,0,1,1.59,2q10.19,3.24,20.06,7.35a7.28,7.28,0,0,1,2.8,1.72,4.13,4.13,0,0,1,.77,1.37,3.64,3.64,0,0,1,3.25.42q7.23-6.19,14.08-12.81C101.7,106.33,96.63,104.54,91.64,105.49Z"/><path class="cls-11" d="M85.86,115.84Q76,111.73,65.8,108.49a2,2,0,0,1-.49,1.62,155.75,155.75,0,0,1,23.17,9.32,3.46,3.46,0,0,1,1-.5,4.13,4.13,0,0,0-.77-1.37A7.28,7.28,0,0,0,85.86,115.84Z"/><path class="cls-10" d="M163.23,81.86l-.34.44a4,4,0,0,0,.77-.12,4.35,4.35,0,0,0,2-1.67L178.77,64.2l-2.19.29Z"/><path class="cls-10" d="M154.23,92.35c1,.54,2,1.06,3,1.58a62.1,62.1,0,0,0,5.08-7.11,5.91,5.91,0,0,1-1.43-2.09c-1,1.16-2.16,2.24-3.22,3.37A40,40,0,0,0,154.23,92.35Z"/><path class="cls-12" d="M127.19,85.9q-.51-4.2-1.23-8.36a1.1,1.1,0,0,0-.34-.75,1.12,1.12,0,0,0-.77-.08L98.16,80.57A102.21,102.21,0,0,0,87.7,82.44c-3.54.89-7,3.23-10.3,4.84a42.15,42.15,0,0,0-1.09,11.47,1.84,1.84,0,0,0,.2.93,1.9,1.9,0,0,0,1.06.69c5.36,1.87,11.17,2,16.85,1.85,7.56-.17,15.34-.76,22.16-4A49.92,49.92,0,0,0,123,94.33c1.69-1.15,3.46-2.47,4.08-4.42A9.34,9.34,0,0,0,127.19,85.9Z"/><path class="cls-13" d="M127.19,81.34Q126.68,77.16,126,73a1.09,1.09,0,0,0-.34-.74,1.07,1.07,0,0,0-.77-.08L98.16,76A105,105,0,0,0,87.7,77.89c-3.54.88-7,3.23-10.3,4.83a42.15,42.15,0,0,0-1.09,11.47,1.44,1.44,0,0,0,1.26,1.62c5.36,1.88,11.17,2,16.85,1.86,7.56-.17,15.34-.76,22.16-4A49.92,49.92,0,0,0,123,89.78c1.69-1.15,3.46-2.48,4.08-4.43A9.33,9.33,0,0,0,127.19,81.34Z"/><path class="cls-12" d="M177.82,67.64c-.28-2.28-.61-4.56-1-6.82a.88.88,0,0,0-.28-.61.9.9,0,0,0-.63-.06l-21.78,3.14a84.62,84.62,0,0,0-8.53,1.53c-2.88.72-5.74,2.64-8.41,4a34.67,34.67,0,0,0-.89,9.36,1.66,1.66,0,0,0,.17.76,1.55,1.55,0,0,0,.86.56c4.38,1.53,9.12,1.61,13.75,1.51,6.18-.14,12.52-.62,18.09-3.3a41.43,41.43,0,0,0,5.24-3.13c1.38-.94,2.82-2,3.33-3.62A7.5,7.5,0,0,0,177.82,67.64Z"/><path class="cls-13" d="M177.82,63.92q-.42-3.42-1-6.82a.87.87,0,0,0-.28-.6.9.9,0,0,0-.63-.07l-21.78,3.15a81.9,81.9,0,0,0-8.53,1.53c-2.88.72-5.74,2.63-8.41,3.94a34.67,34.67,0,0,0-.89,9.36,1.63,1.63,0,0,0,.17.76,1.55,1.55,0,0,0,.86.56c4.38,1.53,9.12,1.62,13.75,1.52,6.18-.14,12.52-.63,18.09-3.3a40.35,40.35,0,0,0,5.24-3.14c1.38-.94,2.82-2,3.33-3.61A7.55,7.55,0,0,0,177.82,63.92Z"/><path class="cls-14" d="M100.57,90.63a1.29,1.29,0,0,0,.82-1.39,2.8,2.8,0,0,0-1.73-1.73A24.7,24.7,0,0,0,91,85.58q-6.15-.52-12.31-.47l-7,6.21A18.85,18.85,0,0,0,62.47,95c-.61.47-1.19,1.47-.54,1.89a1.18,1.18,0,0,0,.81.09,13.86,13.86,0,0,0,3.94-1.11,8.61,8.61,0,0,0-2.75,3.64A6.33,6.33,0,0,0,67.69,98a2.23,2.23,0,0,0-.81,2.11c.22.91,1.55,1.43,2.16.72a18.57,18.57,0,0,0-3.48,4.45,1.62,1.62,0,0,0-.26.8c0,.79,1.18,1,1.91.68s1.33-1,2.11-1.07l0,2.61a.68.68,0,0,0,.15.56c.28.24.69-.08.91-.38l4.54-6c-.21.18-.07.56.19.66a1.13,1.13,0,0,0,.8-.11,13.33,13.33,0,0,0,4.19-2.72A10.27,10.27,0,0,0,78.78,103c-.13.42-.22.94.1,1.24a1.2,1.2,0,0,0,1,.19,16.35,16.35,0,0,0,2.59-.46,7.2,7.2,0,0,0-3.9,5.25,1.87,1.87,0,0,0,0,1,1.49,1.49,0,0,0,1.47.76,4.39,4.39,0,0,0,1.66-.58,2.88,2.88,0,0,0-.73,3.15A11,11,0,0,0,86.34,105c-.13,2.08-.21,4.35,1,6a2.17,2.17,0,0,0,1.08.86,2,2,0,0,0,2.23-1.43,5.71,5.71,0,0,0,0-2.9c.2.53.62,1.17,1.15,1s.53-.73.53-1.19A20.85,20.85,0,0,0,90,97.52a17.47,17.47,0,0,0,1.88,2.06,9.29,9.29,0,0,0,5.73,2.61c-.57-1.06-1.14-2.12-1.72-3.17A5.81,5.81,0,0,0,99,101.26a2,2,0,0,0,1.7-.14,1.59,1.59,0,0,0,.37-1.81,4.64,4.64,0,0,0-1.19-1.56,4.94,4.94,0,0,0,2.11-.48.74.74,0,0,0,.47-.44.78.78,0,0,0-.13-.55,6.11,6.11,0,0,0-2.61-2.45,9.11,9.11,0,0,0,5.18-2.27A22.23,22.23,0,0,0,100.57,90.63Z"/><path class="cls-14" d="M145.43,76.78C142,75.35,138.27,75.17,134.6,75l-4.48-.19-7.94,4.86a12.59,12.59,0,0,0-6.78,6.16,9.21,9.21,0,0,0,4.18-1.47,4.26,4.26,0,0,0-1.67,4,42.47,42.47,0,0,0,4.59-4,4.37,4.37,0,0,0,0,3.54c.3.64,1.06,1.27,1.64.87a1.47,1.47,0,0,0,.46-.68l1-2.42a11,11,0,0,0,1,7.64c.27.51.72,1.07,1.29,1s.77-.53,1-.94c1-1.91,2.13-3.93,2.07-6.1a9.79,9.79,0,0,0,3.49,7.64c.43.35,1.1.65,1.47.24a1.2,1.2,0,0,0,.23-.67c.26-2.3.52-4.59.79-6.89a3,3,0,0,0,4,1.94,12.29,12.29,0,0,0-2.46-4.3c1,.44,2.26.85,3.09.14a2,2,0,0,0,0-2.74A6,6,0,0,0,139,81a12.48,12.48,0,0,0,6.76-.75A2.14,2.14,0,0,0,147.18,79C147.46,78,146.39,77.19,145.43,76.78Z"/><path class="cls-14" d="M190.73,69.18A24.14,24.14,0,0,0,185.28,66a5.61,5.61,0,0,0,3.93-.27,9.73,9.73,0,0,0-6-3.23,2.94,2.94,0,0,0,2-.44,12.32,12.32,0,0,0-10.43-3.7l-6.17,7.16a9.11,9.11,0,0,0-3,3.25,1.67,1.67,0,0,0-.28,1c.07.73,1,1.11,1.68,1a5.11,5.11,0,0,0,1.83-1.14,2.79,2.79,0,0,1,2-.78,12.25,12.25,0,0,0-.91,3.39A4,4,0,0,0,171,75.35a1.23,1.23,0,0,0,1,.37,1.35,1.35,0,0,0,.6-.37,14.06,14.06,0,0,0,3.32-4.45,5.73,5.73,0,0,0-.21,4.49,13.62,13.62,0,0,0,2.37,4,17,17,0,0,0,1.89-5.85,3,3,0,0,0,2,2.54,6.32,6.32,0,0,0,3.4.12,3.23,3.23,0,0,0,1.91-.88,2.48,2.48,0,0,0,0-2.91,6.57,6.57,0,0,0-2.45-1.9,7,7,0,0,0,5.68.42c.39-.14.83-.39.86-.81S191,69.41,190.73,69.18Z"/><path class="cls-3" d="M196.76,52.23A13.77,13.77,0,0,0,196,55.6a9.85,9.85,0,0,1,0,2.24c-.42,1.78-2.47,2.54-4.23,3q-25,6.77-49.81,13.94l-1.52.44q-20.49,5.91-40.89,12.07c-14.62,4.43-29.9,9-44.94,8.69-.73,0-1.46,0-2.19-.07a59.4,59.4,0,0,1-12.07-1.81c-1.94-.51-4-1.23-5.09-2.9-1.38-2.12-.71-5,.47-7.22,4.46-8.41,14.42-11.83,22.48-16.91l.23-.14c.57-.36,1.13-.74,1.68-1.13,6.37-4.38,11.9-10,18.52-14C86,47.36,94.46,45,102.4,41.62c10.82-4.65,20.91-11.38,32.45-13.71,7.27-1.47,14.86-1.13,22-3.2,3.7-1.08,7.27-2.81,11.11-3.15,4.77-.41,9.52,1.4,13.47,4.12s7.22,6.28,10.46,9.82C196,39.73,198.3,46.55,196.76,52.23Z"/><path class="cls-2" d="M103.22,78a9.31,9.31,0,0,0-1.46-4.3,27.77,27.77,0,0,0-2.37-2.23,13.47,13.47,0,0,1-2.68-5,61.7,61.7,0,0,1-3.35-13.21,32.37,32.37,0,0,1,0-8.05,88.71,88.71,0,0,0-14.75,6.68,79.35,79.35,0,0,0-8.4,6.08,16.19,16.19,0,0,0,.34,2.62c.63,2.91,1.84,5.67,2.28,8.62s-.06,6.27-2.29,8.23a7.18,7.18,0,0,1-6.12,1.46c-3-.6-5.68-2.75-8.64-2.23a10.58,10.58,0,0,0-3.64,1.72,8.69,8.69,0,0,1-3.7,1.56,3.16,3.16,0,0,1-3.31-1.79,4.29,4.29,0,0,1,.08-2.43c.11-.47.25-.93.39-1.39-4.06,2.54-7.67,5.5-9.9,9.72-1.19,2.23-1.85,5.1-.46,7.21,1.09,1.67,3.15,2.39,5.08,2.9,19.48,5.08,39.93-1,59.2-6.8L103.8,86A35.68,35.68,0,0,0,103.22,78Z"/><path class="cls-2" d="M100.6,44.81c.23.47.92.35,1.4.15,13.09-5.3,26-12.22,40.12-12.83,3.44-.15,6.92.08,10.3-.6a50,50,0,0,0,9-3.25,66.78,66.78,0,0,1,16.62-4.57,19.24,19.24,0,0,0-10.11-2.15c-3.84.33-7.41,2.06-11.11,3.14-7.12,2.08-14.71,1.73-22,3.2C123.32,30.23,113.22,37,102.4,41.62l-.83.34-.86,2A1,1,0,0,0,100.6,44.81Z"/><path class="cls-2" d="M177.7,39.7c-5.55.54-11.26-.63-16.67.73-2.19.55-4.31,1.51-6.56,1.67-2.53.18-5-.67-7.56-.66-3.34,0-6.47,1.5-9.71,2.34-7.11,1.85-14.69.54-21.92,1.85A15.11,15.11,0,0,0,109.16,48a12.4,12.4,0,0,0-4.25,5.84,16.48,16.48,0,0,0-.82,8.29c.51,3.22,2,6.21,2.93,9.32a32.23,32.23,0,0,1,1.18,13.31q41.62-12.47,83.54-23.86c1.76-.48,3.81-1.24,4.23-3a10.46,10.46,0,0,0,0-2.24,14.23,14.23,0,0,1,.74-3.37c1.36-5-.29-10.86-3.48-15.08C188.19,37.19,182.9,39.18,177.7,39.7Z"/><path class="cls-8" d="M60.1,99.23c-1.11-.63-6.75.13-5.43,2.62a1.7,1.7,0,0,0,1,.63,5.4,5.4,0,0,0,4.63-.55,1.73,1.73,0,0,0,.8-.91C61.35,100.3,60.74,99.6,60.1,99.23Z"/><path class="cls-11" d="M41.33,98.73a3.52,3.52,0,0,0-.63,2.38l10.95,4a2.18,2.18,0,1,1,4.14,1.29,4.78,4.78,0,0,0,4.67,1.16c.76-.24,1.5-.67,2.25-.92a15.09,15.09,0,0,0-4.7-2.28Z"/><path class="cls-3" d="M192.1,45.7c-.16-.08-.37-.1-.46-.26s.19-.37.24-.2l-.37-.39c-3-1.22-6.47-.52-9.54.59s-6,2.64-9.25,3.09c-4.14.58-8.34-.65-12.51-.34a33.6,33.6,0,0,0-6.7,1.42L140.83,53.2c-2.56.72-5.11,1.45-7.64,2.27-1.68.56-3.49,1.27-4.37,2.81a5.35,5.35,0,0,0,3.75.23C146,56.06,159.36,53.05,173,53.26a33.75,33.75,0,0,0,6.82-.26,28.41,28.41,0,0,0,7.88-3.23l3.58-1.91a2.68,2.68,0,0,0,1.12-.89A.92.92,0,0,0,192.1,45.7Z"/><g class="cls-15"><path class="cls-2" d="M54.58,96c-.73,0-1.46,0-2.19-.07a24.59,24.59,0,0,1-1.27-5.87,23.31,23.31,0,0,1,.34-6.94c.39-1.75.9-2.76,1.27-2.71.77.14.62,4.34,1.12,9.39C54.06,92.18,54.38,94.34,54.58,96Z"/><path class="cls-2" d="M57.69,89.26c-.36.11-.88-.41-1.31-1.4a12.32,12.32,0,0,1-.9-3.93c-.25-3.07.17-5.57.93-5.63s1.55,2.36,1.8,5.39a26.7,26.7,0,0,1,.07,3.82C58.22,88.49,58.05,89.16,57.69,89.26Z"/><path class="cls-2" d="M62.69,91.25c-.72.22-2.06-2.08-2.49-5.25s.23-5.74,1-5.72,1.33,2.43,1.74,5.35S63.42,91,62.69,91.25Z"/><path class="cls-2" d="M62.64,75.38c-.74.2-2.06-2.23-3.33-5.28-.44-1.1-.84-2.08-1.13-3l.23-.14c.57-.36,1.13-.74,1.68-1.13A17.85,17.85,0,0,1,61.84,69C63.18,72.27,63.36,75.18,62.64,75.38Z"/><path class="cls-2" d="M91.06,79.46c-.38.06-.89-1.09-1.45-3S88.44,72,87.69,69.26s-1.6-5.22-2.28-7-1.12-2.9-.8-3.14,1.32.56,2.51,2.22a23.44,23.44,0,0,1,3.21,7.18,34.82,34.82,0,0,1,1.19,7.65C91.6,78.16,91.43,79.4,91.06,79.46Z"/><path class="cls-2" d="M142.31,73.22c-.13.59-.26,1.11-.38,1.58l-1.52.44c0-.62,0-1.38,0-2.25,0-2.45.23-5.79.11-9.41a42.86,42.86,0,0,0-1.23-9.11c-.57-2.3-1.1-3.73-.76-3.93s1.47.94,2.57,3.26a24.76,24.76,0,0,1,2.16,9.69A40.26,40.26,0,0,1,142.31,73.22Z"/><path class="cls-2" d="M147.55,72.66c-.77-.22.12-5.07-.6-10.94s-2.59-10.39-1.9-10.78c.32-.17,1.26.77,2.26,2.62a23.18,23.18,0,0,1,1.84,16C148.6,71.62,147.9,72.75,147.55,72.66Z"/><path class="cls-2" d="M152.33,58.75c-.77-.17-.63-3.41-1.73-7.08s-2.86-6.35-2.3-6.9c.27-.25,1.14.13,2.16,1.18a12.48,12.48,0,0,1,3.07,10.64C153.22,58,152.69,58.82,152.33,58.75Z"/></g><rect class="cls-16" width="232" height="164"/></g></g></g></svg>