<svg xmlns="http://www.w3.org/2000/svg" viewBox="0 0 291.78 343.49"><defs><style>.cls-1{fill:none;}.cls-2{fill:#fff;}</style></defs><title>Recurso 1</title><g id="Capa_2" data-name="Capa 2"><g id="Capa_1-2" data-name="Capa 1"><path class="cls-1" d="M142.59.08C64.58,1.44-4,68.71.18,153.48,3.88,227.78,66.7,293,149.55,291.15c81.57-1.81,146.66-70.68,142-154.49C287.19,58.51,221.24-2.51,142.59.08ZM109.25,327.72c0-9.09-5.72-15.05-14.35-15s-14.51,6.13-14.56,14.95c0,9.47,5.61,15.59,14.4,15.59S109.28,336.93,109.25,327.72ZM78,342.43v-29.1c-5,0-9.64-.33-14.23.08-7.14.63-11.18,6.2-11.14,14.59s3.92,13.73,10.78,14.35C68.15,342.77,73,342.43,78,342.43Zm157.14-14.09c.15,9.78,5.36,15.23,14.49,15.15,8.46-.07,14.13-6,14-14.71-.1-10.09-5.87-16.17-15.07-15.89C240.64,313.14,235,319.6,235.14,328.34ZM184,342.28c4.94,1.4,6.77-.12,6.37-5-.16-1.89.68-5.11,1.95-5.65,5-2.13,9,.53,9.28,6,.22,4.8,2.11,6.07,7.07,4.38l-3.23-13.91c4.15-5.5,3.38-12.67-2.71-13.71s-12.34-.22-18.73-.22Zm-72.69-9.92-1,1.58c.74,7.39,7.68,11.1,16.66,8.9,4.52-1.1,7.47-3.77,7.69-8.57.21-4.54-2.73-6.91-6.66-8.21-2.84-.94-5.81-1.48-8.57-2.59a4,4,0,0,1-1.91-3c0-.75,1.41-2.28,2.13-2.24,2.34.12,5.81,0,6.74,1.44,2.15,3.24,4.33,2.71,7.09,2-1.13-8.15-10.69-11.78-18.29-7.21-5.57,3.34-5.55,10.62.2,13.63,2.46,1.29,5.49,1.51,7.92,2.85,1.87,1,3.2,3.05,4.78,4.62-2.26.92-4.47,2.26-6.81,2.57-1.28.17-2.83-1.35-4.21-2.19C115.1,334.8,113.21,333.57,111.31,332.36Zm122.88-12.75c-.51-3,1.08-5.87-3-5.85-5.36,0-10.73-.09-16.07.22a3,3,0,0,0-2.77,2.85c-.16,7.81-.06,15.63.2,23.44,0,1.06,1.43,2.93,2.25,3,6.3.25,12.61.14,19.17.14v-5h-9.91c-6.25,0-6.53-.44-4.65-7.56,2.61,0,5.36,0,8.1,0,5.11.11,5.19,0,4-5.16H219v-6Zm-74.31,23.1c6.28,0,12.25.16,18.21-.13,1.22-.05,2.37-1.74,3.56-2.68-1.33-.83-2.59-2.25-4-2.38-3.74-.33-7.53-.11-11.18-.11-1-6.82-.89-7,5-7,2,0,4.07.27,6-.17,1-.25,1.78-1.72,2.66-2.64-.87-.74-1.67-2-2.61-2.1a51.7,51.7,0,0,0-8-.11c-2.54.11-4.11-.94-3.4-3.44a5,5,0,0,1,3.2-3.1c2.92-.47,6,0,9-.31,1-.11,2-1.48,2.95-2.27-.94-.85-1.83-2.36-2.82-2.42a147.51,147.51,0,0,0-15.45-.26c-1.07,0-2.94,1.76-3,2.75C159.78,324.91,159.88,333.53,159.88,342.71ZM54.88,314c-4-1.41-6.53-1.29-7.83,3.23s-5.37,2.21-8.16,2.23c-1.58,0-4.16-1.53-4.58-2.9-1.4-4.5-4.17-3.74-7.77-2.92,3.3,9,6.37,17.74,9.8,26.34.48,1.2,2.72,2.33,4.15,2.34s3.6-1.12,4.1-2.32C48.19,331.49,51.45,322.81,54.88,314Zm79.72-.61c-.81,3.93.08,5.73,3.3,5.33,4.51-.55,5.31,1.84,5.12,5.64-.25,4.81-.12,9.64-.24,14.46-.05,2.24.24,3.85,3.09,3.94s3.39-1.26,3.41-3.64c0-4.81.47-9.65.21-14.44-.24-4.36.83-6.65,5.7-6.13.86.1,1.89-1.51,2.85-2.34-.84-.94-1.66-2.67-2.53-2.69C148.58,313.32,141.64,313.42,134.6,313.42Z"/><path class="cls-2" d="M142.59.08c78.65-2.59,144.6,58.43,149,136.58,4.67,83.81-60.42,152.68-142,154.49C66.7,293,3.88,227.78.18,153.48-4,68.71,64.58,1.44,142.59.08ZM147,280.57c74.3-.55,134.39-61.75,133.85-136.35-.53-74.38-61-134.13-135.21-133.6-75.22.55-135.82,62.31-134.6,138.3C12.22,221.07,72.89,281.3,147,280.57Z"/><path class="cls-2" d="M109.25,327.72c0,9.21-5.87,15.52-14.51,15.51s-14.45-6.12-14.4-15.59c0-8.82,6-14.93,14.56-14.95S109.22,318.63,109.25,327.72Zm-22.42.49c0,5.88,3,9.53,7.8,9.63s8.06-3.68,8.07-9.86-2.79-9.8-7.46-9.81C89.71,318.16,86.82,321.6,86.83,328.21Z"/><path class="cls-2" d="M78.2,342.43c-5,0-9.85.34-14.59-.08-6.86-.62-10.74-6.07-10.78-14.35s4-14,11.13-14.59c4.59-.41,9.25-.08,14.24-.08ZM72,328.13h.14a32,32,0,0,1,0-4.49c.63-4.33-1.31-5.55-5.37-5.15-6.42.64-9.67,7.8-6.54,14.6,1.94,4.23,5.76,4.36,9.36,4.05,4-.34,1.81-3.9,2.34-6A13,13,0,0,0,72,328.13Z"/><path class="cls-2" d="M235.14,328.34c-.14-8.74,5.5-15.2,13.45-15.45,9.2-.28,15,5.8,15.07,15.89.1,8.7-5.57,14.64-14,14.71C240.5,343.57,235.29,338.12,235.14,328.34Zm6.52-.39c-.22,6.32,2.59,10.21,7.5,10.4,4.49.17,8-3.62,8.15-8.85.21-6.63-2.6-10.89-7.35-11.15C244.9,318.07,241.87,321.56,241.66,328Z"/><path class="cls-2" d="M184.21,342.28V314.14c6.39,0,12.72-.81,18.73.22s6.86,8.21,2.71,13.71L208.88,342c-5,1.69-6.85.42-7.07-4.38-.25-5.47-4.29-8.13-9.28-6-1.27.54-2.11,3.76-1.95,5.65C191,342.16,189.15,343.68,184.21,342.28Zm5.64-16.54,1.62,1.87c3.37-1.05,6.79-2,10-3.33.35-.15-.07-4.09-.69-4.26-2.89-.82-6.17-1.65-8.91-.95C190.72,319.38,190.5,323.4,189.85,325.74Z"/><path class="cls-2" d="M111.31,332.36c1.9,1.21,3.79,2.44,5.71,3.6,1.38.84,2.93,2.36,4.21,2.19,2.34-.31,4.55-1.65,6.81-2.57-1.58-1.57-2.91-3.59-4.78-4.62-2.43-1.34-5.46-1.56-7.92-2.85-5.75-3-5.77-10.29-.2-13.63,7.6-4.57,17.16-.94,18.29,7.21-2.76.72-4.94,1.25-7.09-2-.93-1.4-4.4-1.32-6.74-1.44-.72,0-2.17,1.49-2.13,2.24a4,4,0,0,0,1.91,3c2.76,1.11,5.73,1.65,8.57,2.59,3.93,1.3,6.87,3.67,6.66,8.21-.22,4.8-3.17,7.47-7.69,8.57-9,2.2-15.92-1.51-16.66-8.9Z"/><path class="cls-2" d="M233.9,319.27H218.37v5.9h12.85c1.19,5.11,1.1,5.18-4.12,5.08-2.8-.05-5.61,0-8.28,0-1.91,7-1.63,7.42,4.76,7.44H233.7v4.95c-6.7,0-13.15.11-19.59-.13-.83,0-2.26-1.87-2.29-2.91-.28-7.65-.37-15.32-.21-23a4.09,4.09,0,0,1,2.77-2.87c5.48-.31,11-.19,16.48-.22C235,313.5,233.37,316.33,233.9,319.27Z"/><path class="cls-2" d="M159.88,342.71c0-9.18-.1-17.8.13-26.4,0-1,1.9-2.71,3-2.75a147.51,147.51,0,0,1,15.45.26c1,.06,1.88,1.57,2.82,2.42-1,.79-1.9,2.16-2.95,2.27-3,.33-6-.16-9,.31a5,5,0,0,0-3.2,3.1c-.71,2.5.86,3.55,3.4,3.44a51.7,51.7,0,0,1,8,.11c.94.11,1.74,1.36,2.61,2.1-.88.92-1.62,2.39-2.66,2.64-1.89.44-4,.16-6,.17-5.91,0-6.06.21-5,7,3.65,0,7.44-.22,11.18.11,1.39.13,2.65,1.55,4,2.38-1.19.94-2.34,2.63-3.56,2.68C172.13,342.87,166.16,342.71,159.88,342.71Z"/><path class="cls-2" d="M54.88,314c-3.43,8.78-6.69,17.46-10.29,26-.5,1.2-2.69,2.33-4.1,2.32s-3.67-1.14-4.15-2.34c-3.43-8.6-6.5-17.33-9.8-26.34,3.6-.82,6.37-1.58,7.77,2.92.42,1.37,3,2.91,4.58,2.9,2.79,0,6.88,2.2,8.16-2.23S50.9,312.62,54.88,314Zm-17.69,11c1,3,2,5.78,3,8.55l1.1,0c.92-2.78,1.85-5.56,2.94-8.82-2.14-.13-3.42-.25-4.7-.25A12.7,12.7,0,0,0,37.19,325.07Z"/><path class="cls-2" d="M134.6,313.42c7,0,14-.1,20.91.13.87,0,1.69,1.75,2.53,2.69-1,.83-2,2.44-2.85,2.34-4.87-.52-5.94,1.77-5.7,6.13.26,4.79-.19,9.63-.21,14.44,0,2.38-.65,3.72-3.41,3.64s-3.14-1.7-3.09-3.94c.12-4.82,0-9.65.24-14.46.19-3.8-.61-6.19-5.12-5.64C134.68,319.15,133.79,317.35,134.6,313.42Z"/><path d="M147,280.57c-74.13.73-134.8-59.5-136-131.65-1.22-76,59.38-137.75,134.6-138.3,74.19-.53,134.68,59.22,135.21,133.6C281.41,218.82,221.32,280,147,280.57Zm-58.45-37.8c8.7,1.32,9.27,1.06,9.3-4.14q.42-70.47.82-140.92c0-2.45,0-4.89,0-7.9-7.52,0-14.32-.17-21.09.19-1,.06-2.68,2.58-2.74,4-.39,8.82-.47,17.65-.53,26.47q-.28,46.23-.49,92.45c0,9.93,0,19.87,0,29.62,9.4,1.6,9.37,1.6,9.38-6.65q0-33.24.16-66.46c0-1.12.22-2.25.33-3.38,4.15-1.42,5.53-.15,5.47,4.06-.32,22.48-.43,45-.61,67.46C88.56,239.35,88.57,241.12,88.57,242.77Zm130.43.84v-153H196v153h8.84c0-7.39,0-13.86,0-20.33q.09-26.47.2-52.95c0-2.13-.51-4.52,3-4.5s2.74,2.56,2.89,4.59c0,.33,0,.67,0,1q-.34,31.71-.67,63.43c0,2.76,0,5.53,0,8.76Zm-75-77.52c4.9-1.4,6.17,0,6.1,3.59q-.3,17-.35,34c-.05,13,0,39,0,39H159v-153H135v153h9ZM101.89,64A15.18,15.18,0,0,0,86.66,48.83,15.42,15.42,0,0,0,71,64.66c.13,8.46,6.75,14.74,15.54,14.74A15,15,0,0,0,101.89,64Zm61,.44a15.42,15.42,0,1,0-30.83-.12,15.42,15.42,0,1,0,30.83.12Zm29.92.25c0,8.7,6.54,15.23,15.11,15.21a15.5,15.5,0,0,0,15.51-16c-.08-8-7.42-14.84-15.83-14.77S192.78,56,192.83,64.68ZM104,89.82v74.79h9.38c0-23.22,0-46,0-68.84,0-6.45,0-6.46-6.58-6.26C106,89.54,105.2,89.69,104,89.82Zm78,.65v75.14h8.81c0-7.5,0-14.78,0-22.07.09-16,0-31.95.44-47.92.12-4.63-1.54-6-5.72-5.39C184.59,90.36,183.61,90.37,182,90.47ZM60,90.61v75h9v-75Zm114,75v-75h-9v75Zm52,.52c3.11-1.94,8.81,3.05,8.86-4.53q.22-33.49.33-67c0-1.42-.18-2.84-.29-4.61l-8.9.41ZM121,90.61v74.65c8.69,1.55,8.83,1.46,8.85-6.66q.08-31.69.1-63.4c0-1.44-.2-2.89-.33-4.59Z"/><path d="M86.83,328.21c0-6.61,2.88-10,8.41-10,4.67,0,7.46,3.68,7.46,9.81s-3.1,10-8.07,9.86S86.85,334.09,86.83,328.21Z"/><path d="M72,328.13a13,13,0,0,1,0,3c-.53,2.12,1.65,5.68-2.34,6-3.6.31-7.42.18-9.36-4.05-3.13-6.8.12-14,6.54-14.6,4.06-.4,6,.82,5.37,5.15a32,32,0,0,0,0,4.49Z"/><path d="M241.66,328c.21-6.39,3.24-9.88,8.3-9.6,4.75.26,7.56,4.52,7.35,11.15-.16,5.23-3.66,9-8.15,8.85C244.25,338.16,241.44,334.27,241.66,328Z"/><path d="M189.85,325.74c.65-2.34.87-6.36,2.05-6.67,2.74-.7,6,.13,8.91.95.62.17,1,4.11.69,4.26-3.24,1.37-6.66,2.28-10,3.33Z"/><path d="M37.19,325.07a12.7,12.7,0,0,1,2.31-.54c1.28,0,2.56.12,4.7.25-1.09,3.26-2,6-2.94,8.82l-1.1,0C39.19,330.85,38.23,328.07,37.19,325.07Z"/><path class="cls-2" d="M88.57,242.77c0-1.65,0-3.42,0-5.18.18-22.49.29-45,.61-67.46.06-4.21-1.32-5.48-5.47-4.06-.11,1.13-.33,2.26-.33,3.38q-.1,33.23-.16,66.46c0,8.25,0,8.25-9.38,6.65,0-9.75,0-19.69,0-29.62q.21-46.23.49-92.45c.06-8.82.14-17.65.53-26.47.06-1.44,1.72-4,2.74-4,6.77-.36,13.57-.19,21.09-.19,0,3,0,5.45,0,7.9q-.41,70.46-.82,140.92C97.84,243.83,97.27,244.09,88.57,242.77Z"/><path class="cls-2" d="M219.35,243.33h-9.14c0-3,0-5.72,0-8.48q.33-31.71.67-63.43c0-.33,0-.67,0-1-.15-2,.67-4.57-2.89-4.59s-2.95,2.37-3,4.5q-.1,26.47-.2,52.95c0,6.47,0,12.94,0,19.82h-8.66V90.44h23.17Z"/><path class="cls-2" d="M144.23,166.09v76.7h-8.62V90.19H159V242.91h-9.26c0-13.36,0-26.32,0-39.27q.08-17,.35-34C150.17,166.11,148.9,164.69,144.23,166.09Z"/><path class="cls-2" d="M101.89,64A15,15,0,0,1,86.51,79.4C77.72,79.4,71.1,73.12,71,64.66A15.42,15.42,0,0,1,86.66,48.83,15.18,15.18,0,0,1,101.89,64Z"/><path class="cls-2" d="M162.91,64.43a15.42,15.42,0,1,1-30.83-.12,15.42,15.42,0,1,1,30.83.12Z"/><path class="cls-2" d="M192.83,64.68c-.05-8.64,6.5-15.55,14.79-15.61s15.75,6.77,15.83,14.77a15.5,15.5,0,0,1-15.51,16C199.37,79.91,192.88,73.38,192.83,64.68Z"/><path class="cls-2" d="M104.31,90.29c1.2-.14,2-.29,2.8-.31,6.6-.2,6.58-.2,6.58,6.25,0,22.81,0,45.62,0,68.84h-9.37Z"/><path class="cls-2" d="M181.59,90.15c1.61-.11,2.58-.12,3.54-.25,4.18-.59,5.83.76,5.72,5.39-.4,16-.35,31.95-.44,47.93,0,7.28,0,14.56,0,22.06h-8.81Z"/><path class="cls-2" d="M59.94,90.13H68.6v75H59.94Z"/><path class="cls-2" d="M174,165.43H165.4V90.22H174Z"/><path class="cls-2" d="M225.78,166.13V90.42l8.89-.41c.12,1.77.3,3.19.29,4.61q-.14,33.48-.33,67C234.58,169.18,228.89,164.19,225.78,166.13Z"/><path class="cls-2" d="M121,90.19h8.62c.13,1.7.33,3.15.33,4.59q0,31.71-.1,63.4c0,8.12-.16,8.21-8.85,6.66Z"/></g></g></svg>