<?xml version="1.0" encoding="utf-8"?>
<!-- Generator: Adobe Illustrator 22.0.0, SVG Export Plug-In . SVG Version: 6.00 Build 0)  -->
<svg version="1.1" id="Capa_1" xmlns="http://www.w3.org/2000/svg" xmlns:xlink="http://www.w3.org/1999/xlink" x="0px" y="0px"
	 viewBox="0 0 302.5 302.5" style="enable-background:new 0 0 302.5 302.5;" xml:space="preserve">
<style type="text/css">
	.st0{fill:none;stroke:#000000;stroke-width:5;stroke-miterlimit:10;}
	.st1{fill:#FFFFFF;stroke:#000000;stroke-width:5;stroke-miterlimit:10;}
	.st2{fill:#EC8B2D;}
	.st3{fill:#F2AF71;}
	.st4{fill:#E46D00;}
	.st5{fill:#6A3224;}
	.st6{fill:#8E5132;}
	.st7{fill:#561808;}
	.st8{fill:#FFAA00;}
	.st9{fill:#FFCE6B;}
	.st10{fill:#FF8900;}
	.st11{fill:#C01711;}
	.st12{fill:#F4413D;}
	.st13{fill:#9CB219;}
	.st14{fill:#8A8E00;}
	.st15{fill:#B8C766;}
	.st16{fill:#E1CCB7;}
	.st17{opacity:0.5;}
	.st18{fill:#F0E5DA;}
	.st19{fill:none;}
</style>
<g>
	<path class="st0" d="M302.5,251.2l-5.2-200c0-4.3-3.5-7.8-7.8-7.8c-1.2,0-2.2,0.3-3.2,0.7v-0.1c0,0-0.2,0.1-0.5,0.3
		c-0.7,0.4-1.4,0.9-2,1.5c-5.7,4.7-23.9,23.8-25.4,49.6c-2.3,39.4,16.8,55.3,23.3,69.9l-5.2,85.8c0,4.3,8.7,7.8,13,7.8
		C293.8,259,302.5,255.6,302.5,251.2z"/>
	<path class="st0" d="M13.6,126.8l13.5,6.7c1.5,0.8,3.2,1.3,5,1.7l-5.2,117c0,3.6,8.7,6.5,13,6.5c4.3,0,13-2.9,13-6.5l-5.2-117.6
		c1.8-0.6,3.6-1.3,5.1-2.2l10-6.1c7.2-4.4,12.6-14,12.6-22.5V51.5c0-4.3-3.5-7.8-7.8-7.8c-4.3,0-7.8,3.5-7.8,7.8v47.2h-4.3V51.5
		c0-4.3-3.5-7.8-7.8-7.8c-4.3,0-7.8,3.5-7.8,7.8v47.2h-4.3V51.5c0-4.3-3.5-7.8-7.8-7.8c-4.3,0-7.8,3.5-7.8,7.8v47.2h-4.3V53.1
		c0-4.3-3.5-7.8-7.8-7.8c-4.3,0-7.8,3.5-7.8,7.8v51.6C0,113.4,5.9,122.9,13.6,126.8z"/>
	<g>
		<path class="st1" d="M167,240.4c49.2,0,89.1-39.9,89.1-89.1c0-49.2-39.9-89.1-89.1-89.1c-49.2,0-89.1,39.9-89.1,89.1
			C77.9,200.4,117.8,240.4,167,240.4z M167,75.8c41.6,0,75.5,33.9,75.5,75.5c0,41.6-33.9,75.5-75.5,75.5s-75.5-33.9-75.5-75.5
			C91.5,109.6,125.4,75.8,167,75.8z"/>
		<g>
			<g id="Capa_2_1_">
				<g id="Capa_1-2">
					<path class="st2" d="M200.1,167.5l-67.7,1.9c-0.5,3.1-0.8,6.3-0.9,9.5c-0.1,1.6,0,3.3,0.6,4.8c0.9,2,2.9,2.9,4.7,3.6
						c14.3,5.3,29.4,6.3,44.3,5.2c4.1-0.3,8.3-0.8,12.2-2.7c1.8-0.8,3.5-2.2,4.9-4c1-1.5,1.8-3.3,2.2-5.3
						C201.4,176.2,201.3,171.6,200.1,167.5z"/>
					<path class="st3" d="M136.4,180.2c5.4,4.5,13.5,5.4,19.9,6.2c3.6,0.4,7.2,0.6,10.9,0.4c3-0.1,6.5-0.1,9.3-1.9
						c0.3-0.2,0.2-0.8-0.1-0.9c-2.9-1.3-6.2-0.7-9.2-0.6c-3.4,0.1-6.8,0.1-10.2-0.3s-7-1-10.4-1.8c-3.3-0.7-6.5-2-9.8-2.2
						c-0.2-0.1-0.4,0.1-0.5,0.5C136.2,179.8,136.3,180.1,136.4,180.2L136.4,180.2z"/>
					<path class="st3" d="M178,184.8c2.2,1,4.9,0.4,7.1,0c2.1-0.4,4.3-0.6,5.9-2.2c0.3-0.3,0.1-1-0.2-1.2c-2.2-0.8-4.6,0-6.8,0.3
						c-2.1,0.3-4.3,0.2-6.2,1.3C177.1,183.4,177.4,184.6,178,184.8L178,184.8z"/>
					<path class="st4" d="M200.5,169c-0.1,1.6-0.3,3.1-0.6,4.7c-0.8,4-2.1,8.1-4.7,10.8c-1.8,1.9-4.1,3-6.4,3.6
						c-2.4,0.6-4.9,0.9-7.4,1c-11.8,0.7-23.7,0.2-35.5-1.7c-5-0.8-10.3-2-14.3-5.6c0.1,0.7,0.3,1.3,0.5,1.9c0.9,2,2.9,2.9,4.7,3.6
						c14.3,5.3,29.4,6.3,44.3,5.2c4.1-0.3,8.3-0.8,12.2-2.7c1.8-0.8,3.5-2.2,4.9-4c1-1.5,1.8-3.3,2.2-5.3
						C201.3,176.7,201.3,172.7,200.5,169z"/>
					<path class="st5" d="M204.8,164.9c0-0.4-0.1-0.7-0.2-1c-0.1-0.2-0.2-0.3-0.4-0.5l-2.8-2.7c-0.7-0.7-1.5-1.4-2.3-1.9
						c-1.5-0.8-3.1-0.9-4.7-1c-5.5-0.1-11,0.5-16.5,0.4c-13.1-0.2-26.2-4.2-39.2-3.1c-2.4,0.2-4.1,3.5-5.9,5.6
						c-0.6-0.6-1.6-0.1-2.1,0.7c-0.5,0.8-0.7,1.7-1.3,2.4c-0.3,0.4-0.8,0.8-0.9,1.3c-0.3,1,0.3,2.1,0.2,3.2s-0.9,2.2-0.5,3.1
						c0.3,0.5,0.8,0.8,1.1,1.3c0.2,0.6,0,1.2,0,1.8c0.1,1.3,1.3,2.1,2.4,2.1s2.2-0.5,3.2-0.2c0.6,0.2,1.2,0.4,1.7,0.8
						c0.8,0.4,1.7,0.7,2.6,0.9c2,0.5,4.1,0.9,6.1,1c1.7,0.1,3.4,0.1,5.1,0.1l32.4-0.4c4.9-0.1,9.8-0.1,14.7,0.1c0.4,0,0.7,0,1.1-0.1
						c0.5-0.3,1-0.7,1.4-1.2c0.8-0.5,1.8-0.4,2.7-0.9c1.2-0.7,1.6-2.6,1.8-4.3C204.9,169.9,205,167.4,204.8,164.9z"/>
					<path class="st6" d="M130.1,169.2c-1,0.4-1.5,2.1-0.8,3.2c0.4,0.6,0.9,0.6,1.5,0.6c0.4,0,0.8,0.2,1.2,0.4
						c0.3,0.3,0.6,0.4,0.9,0.5c0.3,0,0.5-0.3,0.5-0.7c0,0,0-0.1,0-0.1c-0.1-1.1-1.4-1.5-2.1-1.6c-0.4,0-1.2,0.4-1.3-0.4
						c0-0.6,0.3-1.1,0.4-1.7C130.2,169.3,130.2,169.2,130.1,169.2C130.1,169.2,130,169.2,130.1,169.2L130.1,169.2z"/>
					<path class="st6" d="M133.3,170.7c0.2,0.3,0.5,0.5,0.7,0.8s0.3,0.7,0.5,1c0.2,0.3,0.7,0.4,0.8-0.1c0.1-0.7-0.2-1.4-0.6-1.7
						c-0.4-0.4-0.9-0.6-1.3-0.4C133.3,170.3,133.2,170.5,133.3,170.7C133.3,170.7,133.3,170.7,133.3,170.7z"/>
					<path class="st6" d="M158,173.2c-0.6,1.6,0.9,2.4,1.9,1.8c0.7-0.4,1.2-0.7,2-0.3c0.3,0.2,0.7,0.4,1.1,0.4
						c0.8,0.1,1.8-0.1,2.2-1.1c0.1-0.2,0.1-0.5-0.1-0.6c0,0,0,0-0.1-0.1c-0.4-0.2-0.8-0.3-1.1-0.2c-1,0.1-1.4-0.4-2.2-0.7
						c-0.4-0.1-0.8,0-1.2,0.2c-0.3,0.2-2.2,1.9-2.1,0.5C158.4,173,158.1,172.9,158,173.2L158,173.2z"/>
					<path class="st6" d="M166,172.6c0.4,0.3,2.2,0.9,2.3,0s-1.8-0.8-2.2-0.7c-0.1,0-0.2,0.2-0.2,0.4
						C165.8,172.4,165.9,172.6,166,172.6L166,172.6z"/>
					<path class="st6" d="M169.1,171.8c0.7,0.2,1.3-0.1,1.9,0.8c0.4,0.5,0.6,1.1,1.1,1.4c1,0.2,2,0,2.8-0.8c0.1-0.1,0.1-0.4,0.1-0.6
						c-0.3-0.6-0.8-0.7-1.3-0.6c-0.3,0.1-0.5,0.2-0.8,0.3c-0.6,0-0.7-0.6-1.1-1c-0.7-0.8-2.3-1.2-2.8,0
						C168.9,171.4,169,171.7,169.1,171.8C169.1,171.8,169.1,171.8,169.1,171.8L169.1,171.8z"/>
					<path class="st6" d="M182.4,174.5c1.6-0.4,2.8,1.4,4.2,2.1c0.9,0.5,1.9,0.9,2.7,0c0.3-0.4,0.1-1.1-0.4-1.1
						c-0.8,0-1.6-0.3-2.4-0.7c-0.6-0.3-1.1-1-1.7-1.3c-0.8-0.5-2.1-0.6-2.7,0.3C181.9,174.2,182.1,174.6,182.4,174.5L182.4,174.5z"
						/>
					<path class="st6" d="M189,174.2c0.2-0.1-0.1,0,0.1,0c0.1,0,0.1,0,0.2,0c0.1,0,0.3,0.1,0.4,0.1c0.3,0.2,0.5,0.4,0.9,0.6
						c0.2,0.1,0.5-0.1,0.6-0.4c0-0.1,0-0.1,0-0.2c0-0.7-0.5-1.2-1.1-1.4c-0.5-0.2-1,0-1.4,0.4C188.3,173.7,188.5,174.4,189,174.2
						L189,174.2z"/>
					<path class="st6" d="M191.8,177.2c0.4,0.3,0.9,0.4,1.4,0.4c0.5-0.1,1.1-0.2,1.3-0.8c0.2-0.4,0-0.8-0.3-0.9
						c-0.4-0.1-0.8,0-1.2,0.2c-0.4,0.1-0.8,0.1-1.1,0.3c-0.2,0-0.3,0.3-0.3,0.5C191.6,177,191.7,177.2,191.8,177.2L191.8,177.2z"/>
					<path class="st6" d="M179,171.2c1,0.4,2,0.6,3.1,0.6c1,0.1,2.1,0.5,3.1,0.1c0.2,0,0.3-0.2,0.3-0.5c0-0.2-0.1-0.3-0.2-0.4
						c-0.9-0.7-2-0.6-3-0.7c-1.1-0.1-2.2,0-3.3,0.4c-0.1,0-0.1,0.1-0.1,0.2C178.9,171.1,178.9,171.1,179,171.2L179,171.2z"/>
					<path class="st7" d="M204.8,164.7c0-0.4-0.1-0.7-0.2-1c-0.1-0.2-0.2-0.3-0.4-0.5l-2.8-2.7c-0.7-0.7-1.5-1.4-2.3-1.9
						c-1.5-0.8-3.1-0.9-4.7-1c-5.5-0.1-11,0.5-16.5,0.4c-13.1-0.2-26.2-4.2-39.2-3.1c-2.4,0.2-4.1,3.5-5.9,5.6
						c-0.6-0.6-1.6-0.1-2.1,0.7c-0.1,0.2-0.3,0.5-0.4,0.8c0.1,0.5,0.3,1,0.6,1.3c0.7,0.9,1.7,1.3,2.1,2.3c0.3,0.9,0.1,2,0.5,2.9
						c0.3,0.6,0.7,1,1.2,1.3c0.9,0.8,1.8,1.8,2.6,2.8l4,4.9c0.2,0.3,0.5,0.6,0.7,0.9c0.9,0.2,1.9,0.3,2.8,0.4c3-1.7,5.7-4.2,8.2-7.2
						c0.1-0.2,0.3-0.3,0.5-0.3c0.2,0,0.4,0.2,0.5,0.3c0.8,0.7,1.8-0.1,2.6-0.7c1.4-1.2,2.9-2.2,4.4-3c0.7-0.4,1.5-0.7,2.3-0.8
						c0.9,0.1,1.8,0.3,2.7,0.6c1.8,0.4,3.7-0.2,5.6-0.4c1.8-0.1,3.5-0.1,5.3,0.2l3,0.3c2.6,0.3,5.2,0.5,7.8,0.9
						c1.6,0.2,3.3,0.5,4.9,0.9c1.3,0.3,2.6,0.7,3.8,1.2c0.7,0.3,1.5,0.6,1.8,1.4c0.3,0.6,0.2,1.4,0.5,2c0.4,0.7,1.1,0.9,1.8,1.3
						c0.5,0.3,1,0.7,1.5,1.3c0.2-0.1,0.5-0.2,0.7-0.3c1.2-0.7,1.6-2.6,1.8-4.3C204.9,169.7,205,167.2,204.8,164.7z"/>
					<path class="st7" d="M182.3,177.6c-0.3,0-0.7,0-1,0.1c-0.8,0-1.4-1.1-2.2-1.2c-0.9-0.1-1.8,1-2.7,0.9c-0.6-0.1-1.1-0.7-1.7-0.8
						c-0.7-0.2-1.4,0.3-2.1,0.3c-1.7,0.1-3.2-1.8-4.8-1.3c-0.7,0.2-1.3,0.9-2,1c-0.8,0.1-1.6-0.5-2.4-0.4c-0.8,0.1-1.5,0.8-2.2,1.3
						s-1.7,0.8-2.3,0.1c-0.1-0.1-0.2-0.2-0.3-0.3c-0.3-0.1-0.6,0.2-0.8,0.5c-0.6,0.7-1.2,1.1-1.9,1.5h27h0.8
						c-0.2-0.6-0.3-0.7-0.5-0.8C182.9,178.1,182.6,177.8,182.3,177.6z"/>
					<path class="st8" d="M203,161.5c-4.6-5.5-11.4-7.1-17.8-7.6l-46.2,1.1c-2.7,0-5.4,1-7.8,2.9c-0.4,0.3-0.9,0.8-0.8,1.5
						c0.1,0.3,0.2,0.6,0.3,0.8c0.9,1.6,1.9,3.2,3.3,4.1c0.6,0.3,1.1,0.6,1.6,1c0.4,0.4,0.7,1,1,1.6c2.1,4,4.4,7.7,6.9,11
						c0.1-1.5,1.3-2.6,2.3-3.4c3.4-2.6,7-5,10.9-6.1c2.4-0.6,4.8-1,7.3-1.1l11.6-1.1c3.8-0.3,7.5-0.7,11.3-0.5
						c2.3,0.1,4.6,0.4,6.8,0.9c1.9,0.3,3.7,1,5.4,2.2c1.6,1.2,3,3,3.4,5.3c0.5-1.6,1.1-3.3,1.7-4.9c0.4-0.9,0.6-2,0.7-3.1
						C204.9,164.2,204,162.7,203,161.5z"/>
					<path class="st9" d="M142.3,174.8c0.1-0.5,0.1-1,0.1-1.4c-0.2-1.1-1.4-1.8-1.3-2.9c0-0.5,0.3-1,0.3-1.6c0-0.8-0.5-1.4-1-1.8
						c-0.5-0.3-1.1-0.7-1.5-1.2c-0.4-0.4-0.4-1.2-0.1-1.7c0.1-0.1,0.1-0.2,0.2-0.3c0.3-0.3,0.9-0.3,0.9-0.8
						c-1.5-0.8-3.2-0.2-4.9-0.3c-0.1,0-0.3,0-0.4-0.1c-0.4-0.4,0-1.2,0-1.8c0-1.2-1.3-1.5-1.7-2.5c-0.2-0.6-0.2-1.3,0-1.8
						c-0.6,0.3-1.2,0.8-1.8,1.2c-0.4,0.3-0.9,0.8-0.8,1.5c0.1,0.3,0.2,0.6,0.3,0.8c0.9,1.6,1.9,3.2,3.3,4.1c0.6,0.3,1.1,0.6,1.6,1
						c0.4,0.4,0.7,1,1,1.6c1.7,3.3,3.6,6.3,5.6,9.2C142.2,175.6,142.3,175.2,142.3,174.8z"/>
					<path class="st9" d="M200.9,159.3c-0.6-0.1-1.1,0-1.4,0.6c-0.5,1.1,0.7,2.4,0.4,3.6c-0.9-0.6-1.9-1.1-2.9-1.4
						c-1-0.3-2.1-0.1-3,0.6c-0.2,0.2-0.4,0.4-0.3,0.7c0,0.3,0.3,0.4,0.5,0.6c1.3,0.7,2.6,1.3,3.9,1.7c0.5,0.2,1,0.6,0.8,1.1
						c0.8,1,2.4,0.1,3.2,1c0.4,0.5,0.5,1.3,0.5,2.1c0,1-0.1,2-0.2,3c0.1,0.3,0.2,0.7,0.3,1c0.5-1.6,1.1-3.3,1.7-4.9
						c0.4-0.9,0.6-2,0.7-3.1c0-1.8-0.9-3.3-2-4.5C202.3,160.7,201.6,159.9,200.9,159.3z"/>
					<path class="st10" d="M162.2,164.4c-0.1-0.6,0.1-1.2,0.5-1.4c0.1,0,0.2-0.1,0.2-0.1c0.2,0.1,0.4,0.2,0.6,0.3
						c0.3,0.1,0.7,0.1,1,0c1.2-0.3,2.4-0.6,3.6-0.7c0.7,0,1.5,0.1,2.2,0.1c1.8,0,3.5-0.9,5.2-1.4c4.4-1.1,9,0.8,13.5,0.6
						c0.4,0,0.8-0.1,1.2-0.3c0.4-0.3,0.7-0.8,0.5-1.3c-0.1-0.3-0.3-0.6-0.3-0.9c-0.1-0.9,0.8-1.4,1.5-1.3c0.9,0.1,1.8,0.5,2.8,0.4
						c0.9-0.1,1.8-0.7,1.9-1.7c-3.6-1.7-7.6-2.4-11.5-2.7l-18.4,0.4c-0.4,0.2-0.9,0.5-1.3,0.8c-0.7,0.5-1.4,1.1-2.1,1.6
						c-2.9,2-6.4,2.1-9.7,1.8c-3.3-0.3-6.6-1-9.9-0.7c-0.5,0.1-1.2,0.3-1.2,1c0,0.4,0.3,0.7,0.5,0.9c1.6,1.3,3.8,0.8,5.6,1.5
						c0.7,0.3,1.3,0.7,2,1.1c2.7,1.2,5.9,0,8.6,1.2c0.4,0.2,0.9,0.6,0.8,1.2c-0.1,0.2-0.2,0.3-0.3,0.5c-1.7,1.8-4.3,1.1-6.4,2.1
						c-0.9,0.5-1.8,1.1-2.5,2c-1.3,1.3-2.5,2.7-3.6,4.3c3.1-2.3,6.3-4.1,9.7-5.2c1.9-0.5,3.8-0.8,5.7-1c0.1-0.3,0.2-0.6,0.2-1
						C162.7,165.7,162.4,165.1,162.2,164.4z"/>
					<path class="st11" d="M137.9,151c-0.6,1.9-1,3.8-1.4,5.9c6.5,2.2,13.1,3.1,19.7,2.4c3.3-0.3,6.6-0.9,9.7,0.3
						c0.2,0.1,0.5,0.2,0.8,0.1c0.2-0.1,0.4-0.4,0.5-0.8c0.8-2.4,1-5,0.7-7.6L137.9,151z"/>
					<path class="st11" d="M198.1,154.6c-0.1-2.1-0.3-4.2-0.5-6.3l-24.6,2.5c-0.2,2.7-0.4,5.4-0.6,8.1c0,0.3,0,0.5,0,0.8
						c0.1,0.3,0.3,0.6,0.5,0.7c0.8,0.6,1.9,0.6,2.8,0.6c6.7-0.3,13.4-1.2,20-2.6c0.7-0.2,1.6-0.4,2-1.1S198.1,155.5,198.1,154.6z"/>
					<path class="st12" d="M151.8,156.9c-1.6-0.5-3.5,0-5-1.1c-0.3-0.3-0.7-0.6-1-0.8c-0.8-0.4-1.7-0.1-2.5,0.3
						c-0.1,0-0.3,0.1-0.4,0.3c-0.2,0.3-0.1,0.8,0.1,1.2c0.3,0.9,0.7,1.7,1.2,2.4c3.7,0.6,7.4,0.8,11.1,0.5
						C154.3,158.2,153.1,157.3,151.8,156.9z"/>
					<path class="st12" d="M191.5,157.3c-0.1-0.8-0.8-1.2-1.4-1.3c-0.6,0-1.2,0.1-1.9,0.3c-1.1,0.2-2.2,0-3.3,0.1
						c-1.4,0.2-2.7,1-3.9,2.2c-0.6,0.6-1.2,1.3-1.7,2.1c4-0.3,7.9-0.8,11.9-1.5c0.1-0.3,0.2-0.6,0.3-1
						C191.5,158,191.5,157.6,191.5,157.3z"/>
					<path class="st13" d="M206.5,150.6c-0.8-0.3-1.5-0.4-2.3-0.4c-0.8-0.1-1.7-0.4-2-1.2l1.2-1.7c-0.5-0.7-1-1.3-1.5-1.9
						c0.8,0.1,1.5-0.4,1.9-1.3c0.2-0.5,0.3-1.1,0.6-1.4c0.6-0.7,1.6-0.4,2.1-1.1c0.6-0.9-0.4-2.3-1.3-2.2s-1.6,1-2.3,1.8
						c-0.7,0.8-1.5,1.6-2.4,1.4c-0.9-0.2-1.6-1.2-2.4-0.9c-0.3,0.2-0.6,0.4-0.9,0.7c-1,0.8-2.2,0.4-3.4,0.2
						c-2.2-0.6-4.5-0.8-6.7-1.1c-16.4-1.9-35.3-1.9-51.4,2.3l-2.6,2.7c-1.3-1.6-2.8-2.6-4.5-3.1c-0.2-0.1-0.5-0.1-0.7,0
						c-0.4,0.3-0.3,1.1-0.1,1.7c0.6,1.7,1.4,3.2,2.3,4.5c-0.8-0.3-1.7-0.4-2.5-0.1c-0.8,0.4-1.3,1.7-0.8,2.5c0.4,0.6,1,0.7,1.6,0.7
						l3.3,0.2c0.1,1.5-2.2,2.4-1.8,3.8c0.2,0.8,1.2,0.8,1.8,0.3c0.6-0.5,0.9-1.3,1.4-2c0.5-0.6,1.3-1.1,1.9-0.6
						c0.3,0.3,0.5,0.7,0.8,1c0.7,0.6,1.6-0.1,2.2-0.8c0.6-0.7,1.2-1.7,2-1.7c0.4,0.1,0.9,0.2,1.3,0.4c2.7,0.8,5.4-3,7.9-1.6
						c-1,1.1-1.6,2.7-1.9,4.5l5.6-4.2c-0.9,1.2-0.3,3.3,0.8,4.1c1.2,0.8,2.6,0.5,3.8-0.2s2.3-1.6,3.4-2.3c0.3-0.2,0.7-0.3,1-0.2
						c0.4,0.2,0.5,0.9,0.7,1.4c0.4,0.8,1.2,1,1.8,0.7c0.7-0.4,1-1.3,1.5-1.9c0.5-0.6,1.5-0.9,1.8-0.1c-0.5,0.6-1,1.4-0.8,2.2
						c0.4,1.2,1.9,1,2.7,0.2c0.8-0.8,1.7-2,2.7-1.8c1.2,0.2,1.9,2,3.2,2.2c1.4,0.2,2.5-1.9,3.9-1.5c0.8,0.2,1.3,1.2,2,1.8
						c1.1,0.9,2.7,0.5,3.4-0.8c0.3-0.5,0.4-1.1,0.9-1.4c0.8-0.6,1.7,0.5,2.3,1.4c0.9,1.3,2,2.2,3.2,2.6c1.3,0.3,2.7-0.3,3.3-1.7
						c0.5,0.5,1,0.9,1.6,1.1c0.6,0.2,1.2,0,1.7-0.7c0.1-0.3,0.2-0.5,0.3-0.7c0.4-0.3,0.8-0.2,1.1,0.2c0.3,0.4,0.4,0.8,0.7,1.2
						c0.8,1.1,2.5,0.5,3.1-0.8c0.6-1.3,0.4-2.9,0-4.3l4.6,0.2C207.7,152.1,207.2,151,206.5,150.6z"/>
					<path class="st14" d="M162.3,143.5c-0.3,1.1-0.1,2.4,0.5,3.1c0.8,0.8,1.9,0.7,2.8,0.4c2.1-0.7,4.1-2,5.9-3.8
						c0.1-0.2,0.3-0.3,0.4-0.3c0.2,0,0.4,0.2,0.5,0.5c0.8,1.1,1.9,1.6,3,1.4c0.6-0.1,1.2-0.4,1.8-0.6c1.7-0.5,3.5,0.2,4.9,1.8
						c-0.6,0.5-1.1,1.1-1.7,1.7c-0.1,0.1-0.2,0.3-0.2,0.4c0,0.2,0.2,0.3,0.3,0.4c1.5,0.9,3.4,0.2,4.3-1.6c0.2-0.6,0.5-1.1,0.8-1.7
						c0.8-1.1,2.3-1,3.5-0.5c1.2,0.4,2.5,1,3.6,0.4c0.7-0.4,1.2-1.2,1.5-2.3l-0.6-0.1c-2.2-0.6-4.5-0.8-6.7-1.1
						c-7.2-0.9-15-1.3-22.8-1.2c-0.1,0.1-0.3,0.3-0.4,0.4C163.2,141.5,162.7,142.4,162.3,143.5z"/>
					<path class="st15" d="M173.7,153.8c-0.6,0.3-1.5,0.7-1.8,0c-0.1-0.3-0.1-0.6,0-0.8c0.3-0.9,1-1.3,1.7-1.6
						c0.7-0.2,1.4-0.5,2.1-0.9c0.6-0.5,1.1-1.5,0.7-2.4c-0.3-0.8-1.4-1-2.1-0.7c-1.5,0.5-2.7,2-4,3.1c-1.3,1.1-3,2-4.4,1.1
						c-0.7-0.4-1.4-1.2-2-0.8c-0.2,0.1-0.4,0.3-0.6,0.6c-0.7,0.7-1.6,0.9-2.5,0.5c-0.6-0.3-1.1-1-1.7-1.1c-0.8-0.1-1.5,0.4-2,1.2
						c-0.6,0.8-0.9,2-0.9,3.2c0,0.5,0.1,0.9,0.3,1.3c0.4-0.1,0.8-0.3,1.1-0.5c1.2-0.6,2.3-1.6,3.4-2.3c0.3-0.2,0.7-0.3,1-0.2
						c0.4,0.2,0.5,0.9,0.7,1.4c0.4,0.8,1.2,1,1.8,0.7c0.7-0.4,1-1.3,1.5-1.9s1.5-0.9,1.8-0.1c-0.5,0.6-1,1.4-0.8,2.2
						c0.4,1.2,1.9,1,2.7,0.2s1.7-2,2.7-1.8c1.2,0.2,1.9,2,3.2,2.2c0.4,0,0.9-0.1,1.3-0.4c-0.1-0.3-0.2-0.7-0.3-0.9
						C175.8,153.9,174.7,153.4,173.7,153.8z"/>
					<path class="st14" d="M152,151.6c0.3-0.8,1.1-1.3,1.8-1.5c0.7-0.1,1.5-0.3,2.2-0.7c0.2-0.1,0.3-0.3,0.4-0.5
						c0.1-0.3-0.1-0.6-0.3-0.8c-1.1-1.3-2.9-0.5-4.3-1.1c-0.9-0.3-1.6-1.1-2.5-1.3c-0.9-0.2-1.8,0.1-2.7,0.6c-0.8,0.5-1.9,1-2.5,0.2
						c-0.3-0.3-0.4-0.7-0.6-1c-0.5-0.6-1.4-0.4-2.1,0s-1.5,0.8-2.1,0.4c-0.6-0.4-1-1.4-0.7-2.4c0,0,0,0,0-0.1c0-0.1,0.1-0.3,0.1-0.4
						c-1.1,0.2-2.1,0.5-3.1,0.7l-2.6,2.7c-1.1-1.4-2.5-2.4-3.9-2.9c0,0.2-0.1,0.3-0.1,0.5c0.1,0.7,0.3,1.3,0.7,1.8
						c0.8,1.2,1.7,2.1,2.8,2.8c0.2,0.1,0.5,0.3,0.6,0.6c0.3,1-1.4,1.4-1.2,2.4c0.1,0.4,0.4,0.6,0.7,0.6c0.3,0,0.6-0.2,0.9-0.4
						l1.5-1.1c0.3-0.2,0.6-0.4,0.9-0.4c1,0.1,1.3,2.1,2.3,2c0.6-0.1,0.9-1.1,1.5-1.1c0.2,0,0.4,0.1,0.6,0.2c1,0.2,2-0.1,2.9-0.8
						c0.8-0.8,1.7-1.4,2.7-1.8c1.3-0.5,2.7,0,3.8,1.2c-0.4,0.7-0.9,1.3-1.5,1.6c0.3,0,0.7,0.1,1,0.3c-1,1.1-1.6,2.7-1.9,4.5l4.7-3.5
						C151.8,152.5,151.8,152,152,151.6z"/>
					<path class="st15" d="M189.4,155.6c0.3-0.7,0.7-1.2,1.3-1.2c0.6-0.1,1.1-0.1,1.7-0.1c1.2-0.1,2.3-0.7,3.3-1.7
						c0.1-0.1,0.3-0.3,0.3-0.6c0.1-0.5-0.4-0.8-0.8-0.9c-1-0.2-1.9,0.4-2.8,0.7s-2.2,0.2-2.6-0.8c-0.2-0.4-0.3-1-0.6-1.2
						c-0.3-0.2-0.5-0.2-0.8-0.2c-1,0.1-2.3,0.3-2.7,1.4c-0.3,0.7-0.2,1.6-0.8,1.9c-0.6,0.4-1.2-0.4-1.9-0.8c-0.8-0.3-1.7,0-2.3,0.8
						c-0.4,0.6-0.7,1.3-0.9,2.1c0.6,0.4,1.1,1.2,1.6,1.6c1.1,0.9,2.7,0.5,3.4-0.8c0.3-0.5,0.4-1.1,0.9-1.4c0.8-0.6,1.7,0.5,2.3,1.4
						c0.8,1.3,1.9,2.2,3.1,2.6c0.4,0.1,0.7,0.1,1.1,0c-0.6-0.1-1.2-0.4-1.8-0.7C189.7,157.3,189.2,156.4,189.4,155.6z"/>
					<path class="st14" d="M206.5,150.6c-0.8-0.3-1.5-0.4-2.3-0.4c-0.8-0.1-1.7-0.4-2-1.2l1.2-1.7c-0.5-0.7-1-1.3-1.5-1.9
						c0.8,0.1,1.5-0.4,1.9-1.3c0.2-0.5,0.3-1.1,0.6-1.4c0.6-0.7,1.6-0.4,2.1-1.1c0.6-0.9-0.4-2.3-1.3-2.2s-1.6,1-2.3,1.8
						c-0.5,0.7-1.1,1.1-1.7,1.4c-0.2,0.9-1,1.4-1.7,1.6c-0.7,0.3-1.6,0.5-2.2,1.2c-0.4,0.5-0.6,1.5-0.1,2s1.1,0.2,1.7,0.2
						c0.5,0,1,0.3,1.3,0.8c0.3,0.5,0.2,1.3-0.1,1.8c-0.5,0.6-1.5,0.6-1.7,1.4c-0.2,0.8,0.7,1.6,1,2.5c0.3,0.9,0.1,1.6-0.1,2.5l0,0
						c0.3,0.4,0.4,0.8,0.7,1.2c0.8,1.1,2.5,0.5,3.1-0.8s0.4-2.9,0-4.3l4.6,0.2C207.7,152.1,207.2,151,206.5,150.6z"/>
					<path class="st16" d="M198.6,142.4c-0.4-2.4-1-4.8-1.9-7l-60.9,1.5c-2,1.4-3.5,4.2-4.1,7.4c-0.2,0.7-0.1,1.5,0.3,2
						c0.6,0.7,1.5,0.3,2.3-0.1c4-2,8.3-3,12.5-2.7c0.4,0,0.9,0.1,1.3,0.3c0.8,0.5,1,1.8,1.3,2.9s1.1,2.2,1.9,1.9
						c0.7-0.2,1-1.2,1.4-2s1.2-1.5,1.7-0.9c0.4,0.4,0.3,1.3,0.7,1.8c0.6,0.9,1.9,0.1,2.3-0.9c0.3-0.6,0.7-1.4,1.3-1.3
						c0.2,0.1,0.4,0.1,0.6,0.3c0.9,0.4,1.8-0.3,2.4-1.1s1.2-1.8,2.1-2.1c1.1-0.5,2.3,0.3,3.5,0.4c1.6,0.2,3.5-0.8,4.6,0.6
						c0.5,0.6,0.7,1.5,1.3,2c1.6,1.2,3.7-2.5,5.2-1.2c1,0.9,0.5,3.1,1.4,4.2c0.9,1.1,2.3,0.5,3.2-0.5c0.9-1,1.5-2.4,2.5-3.1
						c0.5-0.4,1.1-0.4,1.7,0c0.6,0.6,0.5,2.1,1.2,2.5c0.7,0.4,1.4-0.5,1.9-1.3s1.3-1.6,1.9-1.1c0.3,0.2,0.4,0.7,0.8,0.8
						c0.2,0,0.5-0.1,0.7-0.3c0.8-0.5,1.7-0.2,2.5,0c0.8,0.2,1.9,0.1,2.3-0.8C198.8,143.7,198.8,143,198.6,142.4z"/>
					<path class="st4" d="M200,132.1c-2.9-9.9-10.5-16.8-18.7-19.7c-8.2-2.9-16.9-2.2-25.3-0.4c-2.8,0.5-5.5,1.4-8.1,2.8
						c-3.1,1.9-5.9,4.6-8.3,8c-3.5,4.8-6.5,10.3-8.5,16.4c16.9,3.8,34.3-2.8,51.3,0c6,1,12.1,3.2,18.1,2
						C201.3,138.2,200.8,135,200,132.1z"/>
					<path class="st2" d="M151.5,131.8c-0.8-1.4-2.5-1.2-3.9-0.8l-5.7,1.4c-0.5,0.2-1,0.2-1.4,0.1c-0.5-0.2-0.9-0.6-0.9-1.2
						c0-0.6,0.3-0.9,0.6-1.3c1.8-2.1,3.6-3.9,5.6-5.6c1-0.9,2.1-1.6,3.2-2.1c2-0.9,4.2-0.8,6.3-1.2c2.1-0.4,4.3-1.5,5.3-3.8
						c0.3-0.9,0.6-2,0.6-3.1c0.1-1,0.1-2.1,0-3.1c-1.8,0.3-3.5,0.6-5.2,1c-2.8,0.5-5.5,1.4-8.1,2.8c-3.1,1.8-5.9,4.5-8.3,8
						c-3.5,4.8-6.5,10.3-8.5,16.4c6.3,1.4,12.6,1.4,19,0.9c0.6-1.3,1.1-2.6,1.5-4C151.9,134.7,152.2,133,151.5,131.8z"/>
					<path class="st2" d="M200,132.1c-2.8-9.5-9.9-16.3-17.7-19.4c-1.5,0.1-3.1,0.5-4.5,1.3c-1.2,0.6-2.6,1.8-2.4,3.5
						c0.1,1.2,1,2,1.9,2.7c3.5,2.8,6.8,5.8,10.1,8.9c0.4,0.4,0.8,0.8,0.9,1.4c0,0.5,0,1-0.1,1.4c-0.1,1.3,0.5,2.6,1.3,3.4
						c0.9,0.8,1.8,1.4,2.8,1.8c2.7,1.3,5.7,2.3,8.6,2.1C201,136.8,200.7,134.3,200,132.1z"/>
					<g class="st17">
						<path class="st4" d="M164.4,118.9c0.5-0.3,1.1-0.3,1.6-0.6c0.5-0.2,0.4-1.1-0.1-1.2c-0.7,0-1.4,0.4-1.9,1
							C163.6,118.5,164.1,119.1,164.4,118.9L164.4,118.9z"/>
						<path class="st4" d="M167.5,116.2c0.2,0.4,0.5,0.7,0.8,1c0.6,0.4,1.3-0.6,0.8-1.2c-0.3-0.3-0.6-0.6-1-0.7
							C167.6,115,167.2,115.7,167.5,116.2L167.5,116.2z"/>
						<path class="st4" d="M163.9,114.7c0.3,0.1,0.6,0.2,0.9,0.2l0.4,0.1c0.2,0,0.4,0,0.6-0.1c0.3,0,0.5-0.4,0.4-0.8
							c0-0.3-0.1-0.5-0.3-0.6c-0.2-0.1-0.4-0.2-0.6-0.3l-0.4,0c-0.3,0-0.6-0.1-0.9-0.1C163.3,113.1,163.2,114.4,163.9,114.7z"/>
						<path class="st4" d="M170.1,114.2c0.2,0.6,0.6,1,1.1,1.2c0.5,0.2,1.1-0.5,0.9-1.1c-0.2-0.6-0.6-1.1-1-1.3
							C170.5,112.7,169.7,113.5,170.1,114.2L170.1,114.2z"/>
						<path class="st4" d="M172.9,117.8c0.6,0.5,2.1,0.5,2.1-0.7c0-0.6-0.4-0.9-0.8-0.9c-0.3,0-0.6,0.2-1,0.1
							c-0.3,0-0.5,0.2-0.6,0.6C172.5,117.3,172.6,117.7,172.9,117.8L172.9,117.8z"/>
						<path class="st4" d="M175.4,114.8c0.5,0.2,0.9,0.2,1.4,0c0.5-0.3,0.4-1.1,0-1.5c-0.4-0.3-0.8-0.4-1.2-0.3
							C174.8,113.1,174.6,114.6,175.4,114.8L175.4,114.8z"/>
						<path class="st4" d="M179.5,116.2c0.4,0.6,0.9,1,1.4,1.2c0.7,0.1,1.2-0.8,0.7-1.4c-0.4-0.4-0.9-0.7-1.3-0.9
							C179.7,114.6,179.1,115.6,179.5,116.2L179.5,116.2z"/>
						<path class="st4" d="M181.8,114.6c0.3,0.5,0.7,0.9,1.2,1.1c0.7,0.3,1.2-0.8,0.7-1.5c-0.3-0.3-0.6-0.6-0.9-0.9
							c-0.3-0.3-0.7-0.3-1,0c-0.2,0.3-0.3,0.8-0.1,1.1C181.7,114.5,181.7,114.6,181.8,114.6z"/>
						<path class="st4" d="M176.1,121.2c0.7,0,1.4-0.2,2.1-0.5c0.7-0.4,0.3-1.8-0.4-1.8c-0.6,0.1-1.3,0.3-1.9,0.6
							c-0.3,0.1-0.5,0.5-0.5,1C175.5,121,175.8,121.3,176.1,121.2L176.1,121.2z"/>
						<path class="st4" d="M157.6,115.2c0.2,0.1,0.4,0.3,0.6,0.5c0.2,0.3,0.5,0.6,0.8,0.8c0.4,0.2,0.8-0.1,0.9-0.7
							c0-0.1,0-0.1,0-0.2c0.1-0.7-0.4-1.2-0.8-1.5c-0.4-0.3-0.8-0.5-1.2-0.5c-0.3-0.1-0.6,0.2-0.6,0.6
							C157.3,114.7,157.4,115.1,157.6,115.2L157.6,115.2z"/>
						<path class="st4" d="M155.1,119.2c0.7,0.5,1.6,0.5,2.3-0.1c0.5-0.5,0.1-1.6-0.5-1.6c-0.4,0.1-0.9,0.2-1.3,0.2
							c-0.3-0.1-0.6,0.1-0.8,0.5C154.7,118.6,154.8,119,155.1,119.2C155,119.2,155.1,119.2,155.1,119.2L155.1,119.2z"/>
						<path class="st4" d="M153.3,116.2c0.5,0.1,1,0.3,1.5,0.3c0.3,0,0.6-0.3,0.7-0.8c0-0.5-0.2-0.9-0.5-1c-0.5-0.2-1-0.2-1.5-0.1
							c-0.3,0-0.6,0.3-0.6,0.7C152.8,115.8,153,116.2,153.3,116.2L153.3,116.2z"/>
						<path class="st4" d="M160.6,113.3c0.4,0.5,0.8,0.8,1.3,0.9c0.3,0.1,0.7-0.1,0.8-0.5c0.1-0.4,0-0.9-0.2-1.1c0,0,0,0,0,0
							c-0.4-0.2-0.8-0.4-1.3-0.6C160.6,111.8,160.2,112.8,160.6,113.3z"/>
						<path class="st4" d="M164.8,112.2c0.5,0.4,1.1,0.6,1.7,0.8c0.4,0.1,0.7-0.1,0.9-0.6c0.1-0.4,0-1-0.3-1.2c0,0,0,0,0,0
							c-0.6-0.3-1.3-0.5-1.9-0.5c-0.3-0.1-0.6,0.2-0.6,0.7C164.5,111.7,164.6,112.1,164.8,112.2L164.8,112.2z"/>
						<path class="st4" d="M170,110.4c0,0.5,0.1,0.9,0.3,1.3c0.1,0.5,0.4,0.8,0.7,1c0.4,0.2,1,0.1,1.1-0.5c0.1-1-0.5-2-1-2.5
							C170.6,109.3,170,109.8,170,110.4L170,110.4z"/>
						<path class="st4" d="M176,110.3c-0.4,0.3-0.8,0.7-1.2,1.3c-0.4,0.8,0.4,1.9,1.1,1.3c0.2-0.2,0.4-0.4,0.6-0.7
							c0.2-0.2,0.3-0.5,0.4-0.8C177.2,110.7,176.6,109.8,176,110.3L176,110.3z"/>
						<path class="st4" d="M157,112.2c0.6,0.4,1.3,0.6,2,0.6c0.8-0.1,1-1.4,0.2-1.7c-0.7-0.2-1.4-0.2-2.1-0.1
							C156.6,111,156.5,112,157,112.2L157,112.2z"/>
						<path class="st4" d="M183,119.1c0.3,0.1,0.4,0.2,0.7,0.3c0.6,0.2,1.2-0.7,0.8-1.4c-0.4-0.7-1.1-0.9-1.7-0.5
							c-0.3,0.2-0.4,0.6-0.3,1.1C182.7,118.8,182.8,119,183,119.1L183,119.1z"/>
						<path class="st4" d="M186.9,116.9c0.6,0.6,1.4,1.1,2.2,0.6c0.3-0.2,0.4-0.6,0.3-1.1c-0.1-0.2-0.2-0.4-0.3-0.5
							c-0.5-0.2-1-0.3-1.5-0.4C186.9,115.4,186.3,116.4,186.9,116.9L186.9,116.9z"/>
						<path class="st4" d="M149.1,115c0.7,0.2,1.3,0.2,2,0.2c0.8-0.2,0.7-1.6,0-1.8c-0.7-0.2-1.5-0.1-2.1,0.4
							c-0.2,0.2-0.3,0.6-0.2,0.9C148.8,114.8,149,114.9,149.1,115z"/>
						<path class="st4" d="M148,118.6c0.6,0.1,1.4,0.3,2-0.1c0.3-0.2,0.4-0.7,0.3-1.1c-0.1-0.3-0.3-0.5-0.5-0.5
							c-0.6-0.2-1.2,0.1-1.8,0.1c-0.3,0-0.6,0.3-0.7,0.8C147.3,118.3,147.6,118.6,148,118.6z"/>
						<path class="st4" d="M162.2,124.8"/>
						<path class="st4" d="M162.3,124.2c0.2,0.3,0.5,0.6,0.8,0.8c0.4,0.3,0.8,0.2,1.2-0.3c0.2-0.5,0-0.9-0.3-1.2
							c-0.3-0.3-0.6-0.3-0.8-0.5c-0.3-0.2-0.6-0.1-0.8,0.2C162,123.5,162,124,162.3,124.2C162.2,124.2,162.2,124.2,162.3,124.2z"/>
						<path class="st4" d="M172.3,131c0.5,0,1,0,1.5-0.1c0.3,0,0.6-0.5,0.5-0.9c0-0.4-0.2-0.8-0.5-0.8c-0.7-0.2-1.2,0.2-1.8,0.5
							C171.5,129.9,171.8,131.1,172.3,131z"/>
						<path class="st4" d="M163.2,131.9c0.3,0.2,0.6,0.4,1,0.5c0.2,0.1,0.4,0,0.6-0.2l0,0l-0.2,0.2c0.4-0.1,0.5-0.5,0.3-0.9l0.1,0.3
							v-0.1c0-0.3-0.1-0.6-0.3-0.7c-0.3-0.2-0.6-0.3-1-0.5C163.1,130.3,162.6,131.6,163.2,131.9L163.2,131.9z"/>
						<path class="st4" d="M192,127.7c0.5,0.6,1.1,1.4,1.8,1.4c0.5,0,0.9-0.8,0.6-1.3c-0.5-0.8-1.2-0.9-1.9-1.2
							C192,126.3,191.6,127.2,192,127.7L192,127.7z"/>
					</g>
					<path class="st9" d="M164.4,118c0.5-0.3,1.1-0.3,1.6-0.6c0.5-0.2,0.4-1.1-0.1-1.2c-0.7,0-1.4,0.4-1.9,1
						C163.6,117.7,164.1,118.2,164.4,118L164.4,118z"/>
					<path class="st9" d="M167.5,115.7c0.2,0.4,0.5,0.7,0.8,1c0.6,0.4,1.3-0.6,0.8-1.2c-0.3-0.3-0.6-0.6-1-0.7
						C167.6,114.4,167.2,115.1,167.5,115.7L167.5,115.7z"/>
					<path class="st9" d="M163.9,113.8c0.3,0.1,0.6,0.2,0.9,0.2l0.4,0.1c0.2,0,0.4,0,0.6-0.1c0.3,0,0.5-0.4,0.4-0.8
						c0-0.3-0.1-0.5-0.3-0.6c-0.2-0.1-0.4-0.2-0.6-0.3l-0.4,0c-0.3,0-0.6-0.1-0.9-0.1C163.3,112.3,163.2,113.6,163.9,113.8z"/>
					<path class="st9" d="M170.1,113.2c0.2,0.6,0.6,1,1.1,1.2c0.5,0.2,1.1-0.5,0.9-1.1c-0.2-0.6-0.6-1.1-1-1.3
						C170.5,111.7,169.7,112.5,170.1,113.2L170.1,113.2z"/>
					<path class="st9" d="M172.9,117c0.6,0.5,2.1,0.5,2.1-0.7c0-0.6-0.4-0.9-0.8-0.9c-0.3,0-0.6,0.2-1,0.1c-0.3,0-0.5,0.2-0.6,0.6
						C172.5,116.4,172.6,116.8,172.9,117L172.9,117z"/>
					<path class="st9" d="M175.4,114c0.5,0.2,0.9,0.2,1.4,0c0.5-0.3,0.4-1.1,0-1.5c-0.4-0.3-0.8-0.4-1.2-0.3
						C174.8,112.2,174.6,113.8,175.4,114L175.4,114z"/>
					<path class="st9" d="M179.5,115.3c0.4,0.6,0.9,1,1.4,1.2c0.7,0.1,1.2-0.8,0.7-1.4c-0.4-0.4-0.9-0.7-1.3-0.9
						C179.7,113.7,179.1,114.7,179.5,115.3L179.5,115.3z"/>
					<path class="st9" d="M181.8,113.7c0.3,0.5,0.7,0.9,1.2,1.1c0.7,0.3,1.2-0.8,0.7-1.5c-0.3-0.3-0.6-0.6-0.9-0.9
						c-0.3-0.3-0.7-0.3-1,0c-0.2,0.3-0.3,0.8-0.1,1.1C181.7,113.6,181.7,113.7,181.8,113.7z"/>
					<path class="st9" d="M176.1,120.4c0.7,0,1.4-0.2,2.1-0.5c0.7-0.4,0.3-1.8-0.4-1.8c-0.6,0.1-1.3,0.3-1.9,0.6
						c-0.3,0.1-0.5,0.5-0.5,1C175.5,120.1,175.8,120.4,176.1,120.4L176.1,120.4z"/>
					<path class="st9" d="M157.6,114.2c0.2,0.1,0.4,0.3,0.6,0.5c0.2,0.3,0.5,0.6,0.8,0.8c0.4,0.2,0.8-0.1,0.9-0.7c0-0.1,0-0.1,0-0.2
						c0.1-0.7-0.4-1.2-0.8-1.5c-0.4-0.3-0.8-0.5-1.2-0.5c-0.3-0.1-0.6,0.2-0.6,0.7C157.3,113.7,157.4,114.1,157.6,114.2L157.6,114.2
						z"/>
					<path class="st9" d="M155.1,118.2c0.7,0.5,1.6,0.5,2.3-0.1c0.5-0.5,0.1-1.6-0.5-1.6c-0.4,0.1-0.9,0.2-1.3,0.2
						c-0.3-0.1-0.6,0.1-0.8,0.5C154.7,117.6,154.8,118,155.1,118.2C155,118.2,155.1,118.2,155.1,118.2L155.1,118.2z"/>
					<path class="st9" d="M153.3,115.2c0.5,0.1,1,0.3,1.5,0.3c0.3,0,0.6-0.3,0.7-0.8c0-0.5-0.2-0.9-0.5-1c-0.5-0.2-1-0.2-1.5-0.1
						c-0.3,0-0.6,0.3-0.6,0.7C152.8,114.8,153,115.2,153.3,115.2L153.3,115.2z"/>
					<path class="st9" d="M160.6,112.4c0.4,0.5,0.8,0.8,1.3,0.9c0.3,0.1,0.7-0.1,0.8-0.5c0.1-0.4,0-0.9-0.2-1.1c0,0,0,0,0,0
						c-0.4-0.2-0.8-0.4-1.3-0.6C160.6,110.9,160.2,111.9,160.6,112.4z"/>
					<path class="st9" d="M164.8,111.2c0.5,0.4,1.1,0.6,1.7,0.8c0.4,0.1,0.7-0.1,0.9-0.6c0.1-0.4,0-1-0.3-1.2c0,0,0,0,0,0
						c-0.6-0.3-1.3-0.5-1.9-0.5C164.5,109.6,164.2,110.9,164.8,111.2L164.8,111.2z"/>
					<path class="st9" d="M170,109.5c0,0.5,0.1,0.9,0.3,1.3c0.1,0.5,0.4,0.8,0.7,1c0.4,0.2,1,0.1,1.1-0.5c0.1-1-0.5-2-1-2.5
						C170.6,108.4,170,108.9,170,109.5L170,109.5z"/>
					<path class="st9" d="M176,109.4c-0.4,0.3-0.8,0.7-1.2,1.3c-0.4,0.8,0.4,1.9,1.1,1.3c0.2-0.2,0.4-0.4,0.6-0.7
						c0.2-0.2,0.3-0.5,0.4-0.8C177.2,109.8,176.6,108.9,176,109.4L176,109.4z"/>
					<path class="st9" d="M157,111.2c0.6,0.4,1.3,0.6,2,0.6c0.8-0.1,1-1.4,0.2-1.7c-0.7-0.2-1.4-0.2-2.1-0.1
						C156.6,110,156.5,111,157,111.2L157,111.2z"/>
					<path class="st9" d="M183,118.2c0.3,0.1,0.4,0.2,0.7,0.3c0.6,0.2,1.2-0.7,0.8-1.4c-0.4-0.7-1.1-0.9-1.7-0.5
						c-0.3,0.2-0.4,0.6-0.3,1.1C182.6,117.9,182.8,118.1,183,118.2L183,118.2z"/>
					<path class="st9" d="M186.9,116.1c0.6,0.6,1.4,1.1,2.2,0.6c0.3-0.2,0.4-0.6,0.3-1.1c-0.1-0.2-0.2-0.4-0.3-0.5
						c-0.5-0.2-1-0.3-1.5-0.4C186.9,114.6,186.3,115.5,186.9,116.1L186.9,116.1z"/>
					<path class="st9" d="M149.1,114.1c0.7,0.2,1.3,0.2,2,0.2c0.8-0.2,0.7-1.6,0-1.8c-0.7-0.2-1.5-0.1-2.1,0.4
						c-0.2,0.2-0.3,0.6-0.2,0.9C148.8,113.9,149,114.1,149.1,114.1z"/>
					<path class="st9" d="M148,117.8c0.6,0.1,1.4,0.3,2-0.1c0.3-0.2,0.4-0.7,0.3-1.1c-0.1-0.3-0.3-0.5-0.5-0.5
						c-0.6-0.2-1.2,0.1-1.8,0.1c-0.3,0-0.6,0.3-0.7,0.8C147.3,117.4,147.6,117.7,148,117.8z"/>
					<path class="st9" d="M162.2,123.9"/>
					<path class="st9" d="M162.3,123.4c0.2,0.3,0.5,0.6,0.8,0.8c0.4,0.3,0.8,0.2,1.2-0.3c0.2-0.5,0-0.9-0.3-1.2
						c-0.3-0.3-0.6-0.3-0.8-0.5c-0.3-0.2-0.6-0.1-0.8,0.2C162,122.6,162,123.1,162.3,123.4C162.2,123.4,162.2,123.4,162.3,123.4z"/>
					<path class="st9" d="M172.3,130.1c0.5,0,1,0,1.5-0.1c0.3,0,0.6-0.5,0.5-0.9c0-0.4-0.2-0.8-0.5-0.8c-0.7-0.2-1.2,0.2-1.8,0.5
						C171.5,129.1,171.8,130.2,172.3,130.1z"/>
					<path class="st9" d="M163.2,131.1c0.3,0.2,0.6,0.4,1,0.5c0.2,0.1,0.4,0,0.6-0.2l0,0l-0.2,0.2c0.4-0.1,0.5-0.5,0.3-0.9
						c0,0.1,0,0.2,0.1,0.3v-0.1c0-0.3-0.1-0.6-0.3-0.7c-0.3-0.2-0.6-0.3-1-0.5C163.1,129.4,162.6,130.7,163.2,131.1L163.2,131.1z"/>
					<path class="st9" d="M192,126.8c0.5,0.6,1.1,1.4,1.8,1.4c0.5,0,0.9-0.8,0.6-1.3c-0.5-0.8-1.2-0.9-1.9-1.2
						C192,125.5,191.6,126.4,192,126.8L192,126.8z"/>
					<path class="st18" d="M134.4,141.3c-1.8,0.4-1.6,2.9,0.1,3.4c1.2,0.4,2.4-0.3,3.5-0.7c1.4-0.5,3-0.6,4.2-1.6
						c0.5-0.4,0.3-1.1-0.1-1.3c-1.1-0.5-2.4-0.2-3.5,0.2c-0.6,0.2-1.2,0.5-1.9,0.7c-0.3,0.1-2.8,1.3-2.1-0.4
						C134.6,141.4,134.5,141.3,134.4,141.3L134.4,141.3z"/>
					<path class="st18" d="M148,142.8c1.6,0.3,1.2,2.1,2.4,3.1c1.2,0.9,2.2,0.2,3.3-0.4c0.7-0.5,0.9-0.7,1.9-0.5
						c0.5,0.2,1.1,0.3,1.7,0.2c1-0.3,1.7-1.1,1.5-2.3c0-0.3-0.3-0.4-0.5-0.4c-1.2,0.2-1.1,0.7-2.6,0.2c-0.3-0.2-0.7-0.3-1-0.3
						c-0.3,0.1-0.7,0.2-1,0.4c-1,0.8-0.8,1.6-2.1,0.9c-1-0.5-0.6-0.6-1.2-1.4c-0.2-0.3-0.4-0.5-0.7-0.6c-0.7-0.3-1.3,0.2-1.8,0.7
						C147.8,142.5,147.8,142.8,148,142.8L148,142.8z"/>
					<path class="st18" d="M166,141.5c1.9-0.5,3.7-1.3,5.6-0.4c1.3,0.6,1.7,1.8,2.8,2.5c0.5,0.2,1.1,0.3,1.6,0.3
						c1.2-0.1,1.6-0.8,2.9-0.4c1.4,0.3,1,0.2,1.9,0.9c0.4,0.3,1-0.1,1-0.7c-0.3-5.3-5.2-1.7-7.3-3c-1.2-0.8-1.7-1.8-3.3-2.1
						c-2-0.3-3.9,0.8-5.5,2.1C165.4,140.9,165.6,141.6,166,141.5L166,141.5z"/>
					<path class="st18" d="M181,146.1c0.3,2.6,4.4-1.3,4.8-2.3c0.1-0.2,0-0.3-0.1-0.4c0,0-0.1,0-0.1,0c-0.8,0.1-1.5,0.8-2.1,1.4
						c-0.3,0.3-0.6,0.6-1,0.9c-0.4,0.2-0.9,0.4-1.3,0.4C181,145.9,181,146,181,146.1L181,146.1z"/>
					<path class="st18" d="M187,143c1.3,0,0.6,0.7,1.4,1.5c0.5,0.5,1.1,0.6,1.6,0.4c1-0.4,1.1-1.2,2.5-1c0.8,0.1,1.2,0.5,2,0
						c0.1-0.1,0.2-0.3,0.1-0.5c0,0,0,0,0-0.1c-0.7-1.3-3-1.7-4.1-0.9c-0.7,0.5-0.8,0.6-1.5-0.1c-0.2-0.2-0.2-0.4-0.5-0.6
						c-0.6-0.3-1.2,0.2-1.7,0.6C186.7,142.6,186.8,143,187,143L187,143z"/>
					<rect x="113" y="94.2" class="st19" width="108" height="114"/>
				</g>
			</g>
		</g>
	</g>
</g>
</svg>
